<svg width="750" height="521" viewBox="0 0 750 521" fill="none" xmlns="http://www.w3.org/2000/svg">
<path opacity="0.1" d="M593.182 446.384C678.177 446.384 747.079 433.273 747.079 417.101C747.079 400.928 678.177 387.818 593.182 387.818C508.186 387.818 439.284 400.928 439.284 417.101C439.284 433.273 508.186 446.384 593.182 446.384Z" fill="#8BA503"/>
<g opacity="0.5">
<path d="M461.361 73.7569C459.285 74.3343 456.744 75.8384 455.492 79.9514C453.038 88.0136 458.739 93.4953 456.861 101.9C456.339 104.129 455.347 106.227 453.948 108.058C451.655 111.102 449.164 112.542 446.747 114.674C443.681 117.396 441.483 120.929 440.42 124.846C439.254 129.169 439.157 133.702 440.136 138.069C440.995 141.719 442.458 144.377 443.74 147.336C445.333 151.109 446.578 155.014 447.461 159.005C447.945 160.948 448.218 162.936 448.276 164.936C448.24 167.592 447.996 170.242 447.548 172.862L444.06 196.685C443.53 199.8 443.212 202.946 443.106 206.102C443.152 209.265 443.525 212.415 444.22 215.504C445.444 221.805 446.762 228.335 449.565 231.671C452.368 235.007 457.145 233.81 460.079 227.059C462.868 220.601 462.933 211.983 465.394 205.082C469.275 194.212 476.986 192.75 481.268 182.379C485.374 172.399 484.115 160.224 486.197 148.875C487.653 140.742 490.864 133.328 492.75 125.295C495.459 113.725 495.19 101.714 493.027 92.8181C491.382 85.5085 487.824 78.7433 482.702 73.1866C480.889 71.2263 478.945 69.4799 476.666 69.3017C474.241 69.1163 472.122 72.1031 469.727 73.0013C466.96 74.0634 464.178 72.9728 461.361 73.7569Z" fill="#8BA503"/>
<path d="M474.489 69.9076C474.489 69.9076 470.382 172.798 453.111 233.467" stroke="#535461" stroke-width="2" stroke-miterlimit="10"/>
<path d="M455.39 80.4361C455.39 80.4361 473.848 96.8884 470.346 128.196" stroke="#535461" stroke-width="2" stroke-miterlimit="10"/>
<path d="M439.903 127.255C439.903 127.255 470.2 133.222 467.95 150.964" stroke="#535461" stroke-width="2" stroke-miterlimit="10"/>
<path d="M493.078 92.6042C493.078 92.6042 480.816 103.111 469.894 132.872" stroke="#535461" stroke-width="2" stroke-miterlimit="10"/>
<path d="M481.1 182.55C481.1 182.55 472.734 188.965 466.021 166.504" stroke="#535461" stroke-width="2" stroke-miterlimit="10"/>
<path d="M445 195.673C445 195.673 462.06 193.492 463.632 183.034" stroke="#535461" stroke-width="2" stroke-miterlimit="10"/>
</g>
<path d="M502.602 4.74736C498.379 5.36039 493.297 7.27792 491.207 13.1873C487.107 24.778 499.566 33.553 496.697 45.6641C495.841 48.997 494.038 52.0245 491.498 54.3963C487.129 58.6091 482.134 60.4482 477.401 63.3067C472.669 66.1652 467.754 70.6632 465.533 77.5634C463.4 84.1999 464.324 91.5278 466.545 97.0024C468.766 102.477 472.123 106.562 475.122 111.067C478.768 116.612 481.816 122.512 484.217 128.674C485.428 131.482 486.241 134.439 486.634 137.463C487.02 141.17 486.532 145.154 486.044 149.054L481.712 183.797C481.137 188.416 480.554 193.107 480.882 197.555C481.253 202.68 482.804 207.157 484.333 211.526C487.624 220.95 491.149 230.773 497.36 235.962C503.57 241.152 513.313 240.04 518.563 230.388C523.558 221.2 522.64 208.518 526.9 198.645C533.613 183.084 549.399 181.823 556.993 167.053C564.275 152.882 560.205 134.754 563.132 118.288C565.229 106.49 570.908 95.9403 573.821 84.3282C578.022 67.598 576.005 49.884 570.457 36.5683C564.908 23.2525 556.134 13.7576 546.72 6.46529C542.729 3.36446 538.499 0.563021 533.759 0.0497806C528.72 -0.499102 524.694 3.64959 519.852 4.69746C514.216 5.84512 508.332 3.91334 502.602 4.74736Z" fill="#8BA503"/>
<path d="M529.31 0.598669C529.31 0.598669 533.285 151.641 504.874 238.985" stroke="#535461" stroke-width="2" stroke-miterlimit="10"/>
<path d="M491.047 13.9144C491.047 13.9144 531.239 40.2893 527.795 86.0247" stroke="#535461" stroke-width="2" stroke-miterlimit="10"/>
<path d="M464.666 81.042C464.666 81.042 528.101 93.3456 525.596 119.207" stroke="#535461" stroke-width="2" stroke-miterlimit="10"/>
<path d="M570.529 36.1834C570.529 36.1834 546.421 50.2333 527.431 92.7895" stroke="#535461" stroke-width="2" stroke-miterlimit="10"/>
<path d="M556.615 167.252C556.615 167.252 540.086 175.806 523.463 141.868" stroke="#535461" stroke-width="2" stroke-miterlimit="10"/>
<path d="M483.489 182.371C483.489 182.371 518.534 181.138 520.529 165.919" stroke="#535461" stroke-width="2" stroke-miterlimit="10"/>
<path d="M48.9689 412.375C48.9689 412.375 55.0706 420.216 46.151 431.978C37.2314 443.739 29.8627 453.733 32.8553 461.09C32.8553 461.09 46.3112 439.184 57.2623 438.878C68.2134 438.571 61.0194 425.548 48.9689 412.375Z" fill="#8BA503"/>
<path opacity="0.1" d="M48.9689 412.375C49.5134 413.128 49.9449 413.954 50.2504 414.827C60.9394 427.116 66.6261 438.586 56.3594 438.878C46.7918 439.149 35.3164 455.893 32.5641 460.127C32.6549 460.454 32.7643 460.775 32.8917 461.09C32.8917 461.09 46.3476 439.184 57.2987 438.878C68.2498 438.571 61.0195 425.548 48.9689 412.375Z" fill="black"/>
<path d="M60.3132 422.333C60.3132 425.084 60.0001 427.323 59.5851 427.323C59.17 427.323 58.8569 425.092 58.8569 422.333C58.8569 419.574 59.2501 420.907 59.636 420.907C60.0219 420.907 60.3132 419.581 60.3132 422.333Z" fill="#FFD037"/>
<path d="M64.2087 425.612C61.7404 426.931 59.5924 427.75 59.4104 427.387C59.2283 427.023 61.0705 425.712 63.5389 424.4C66.0072 423.089 65.0315 424.044 65.2208 424.4C65.4102 424.757 66.6698 424.293 64.2087 425.612Z" fill="#FFD037"/>
<path d="M16.7565 412.375C16.7565 412.375 10.6547 420.216 19.5743 431.978C28.4939 443.739 35.8481 453.726 32.87 461.083C32.87 461.083 19.4142 439.177 8.46305 438.871C-2.48804 438.564 4.69133 425.548 16.7565 412.375Z" fill="#8BA503"/>
<path opacity="0.1" d="M16.7565 412.375C16.2248 413.13 15.8055 413.956 15.5114 414.827C4.8224 427.116 -0.864307 438.586 9.40234 438.878C18.97 439.149 30.4453 455.893 33.1977 460.127C33.1069 460.454 32.9975 460.775 32.87 461.09C32.87 461.09 19.4141 439.184 8.46305 438.878C-2.48804 438.571 4.69133 425.548 16.7565 412.375Z" fill="black"/>
<path d="M5.39746 422.333C5.39746 425.084 5.71056 427.323 6.12559 427.323C6.54063 427.323 6.85372 425.092 6.85372 422.333C6.85372 419.574 6.46053 420.907 6.07462 420.907C5.68871 420.907 5.39746 419.581 5.39746 422.333Z" fill="#FFD037"/>
<path d="M1.50206 425.612C3.97043 426.931 6.11841 427.75 6.30044 427.387C6.48248 427.023 4.64031 425.712 2.17194 424.4C-0.296425 423.089 0.679273 424.044 0.489959 424.4C0.300645 424.757 -0.959023 424.293 1.50206 425.612Z" fill="#FFD037"/>
<path d="M7.34167 460.063C7.34167 460.063 24.4018 459.55 29.5424 455.964C34.683 452.379 55.7551 448.123 57.0585 453.826C58.3618 459.529 82.696 482.418 63.4369 482.567C44.1778 482.717 18.686 479.631 13.5526 476.572C8.41931 473.514 7.34167 460.063 7.34167 460.063Z" fill="#A8A8A8"/>
<path opacity="0.2" d="M63.7791 480.586C44.5201 480.735 19.0282 477.649 13.8949 474.591C9.98479 472.26 8.42659 463.898 7.90962 460.042H7.34167C7.34167 460.042 8.41931 473.514 13.5526 476.573C18.686 479.631 44.1778 482.724 63.4369 482.567C68.9998 482.525 70.9148 480.586 70.8129 477.72C70.0411 479.474 67.9222 480.557 63.7791 480.586Z" fill="black"/>
<path d="M715.289 409.131C716.624 408.066 717.596 406.629 718.078 405.011C718.442 403.372 717.729 401.411 716.127 400.812C714.335 400.142 712.42 401.354 710.971 402.587C709.523 403.821 707.855 405.218 705.955 404.954C706.931 404.087 707.662 402.987 708.076 401.762C708.489 400.536 708.571 399.227 708.314 397.961C708.232 397.436 708.005 396.944 707.658 396.535C706.661 395.495 704.862 395.944 703.668 396.764C699.882 399.373 698.826 404.405 698.804 408.939C698.426 407.306 698.746 405.603 698.732 403.949C698.717 402.295 698.251 400.385 696.809 399.515C695.915 399.045 694.911 398.811 693.897 398.838C692.193 398.774 690.3 398.945 689.135 400.164C687.679 401.675 688.064 404.22 689.324 405.866C690.584 407.513 692.491 408.575 694.254 409.73C695.666 410.552 696.87 411.675 697.778 413.016C697.884 413.202 697.972 413.398 698.04 413.601H708.707C711.097 412.408 713.311 410.905 715.289 409.131Z" fill="#8BA503"/>
<path opacity="0.1" d="M106.841 342.324C130.01 371.166 121.01 413.301 106.287 447.04C101.358 458.338 95.7805 470.292 97.863 482.404C100.404 497.216 113.882 508.066 128.095 513.768C153.944 524.233 184.889 521.738 208.634 507.274C229.16 494.771 243.861 474.441 264.736 462.508C299.686 442.549 344.146 450.084 382.082 463.834C408.921 473.564 438.264 486.224 464.936 476.052C483.7 468.924 496.675 451.481 503.745 433.018C507.16 424.101 509.636 414.485 516.123 407.356C519.997 403.158 525.05 400.171 530.235 397.662C577.563 374.701 637.27 386.969 683.201 361.535C714.226 344.342 734.09 311.901 742.907 278.077C751.725 244.253 750.676 208.782 748.441 173.953C746.854 149.196 744.007 122.771 727.849 103.66C710.76 83.4514 681.424 75.931 654.913 79.7732C628.401 83.6154 604.358 97.3731 583.243 113.497C556.819 133.649 532.317 158.748 499.872 166.917C477.78 172.477 454.538 169.434 431.748 168.386C393.652 166.625 355.549 170.524 317.664 174.801C281.396 178.907 244.851 183.426 210.316 194.974C185.865 203.151 166.264 217.985 143.175 228.349C128.124 235.107 111.712 236.975 97.4698 245.578C79.9145 256.178 63.8301 274.619 68.3445 296.19C72.5823 316.727 94.5354 327.02 106.841 342.324Z" fill="#8BA503"/>
<path opacity="0.1" d="M402.185 342.31C574.167 342.31 713.585 329.2 713.585 313.027C713.585 296.854 574.167 283.744 402.185 283.744C230.204 283.744 90.7855 296.854 90.7855 313.027C90.7855 329.2 230.204 342.31 402.185 342.31Z" fill="#8BA503"/>
<path opacity="0.1" d="M162.856 511.252C247.851 511.252 316.754 498.141 316.754 481.969C316.754 465.796 247.851 452.685 162.856 452.685C77.8605 452.685 8.95813 465.796 8.95813 481.969C8.95813 498.141 77.8605 511.252 162.856 511.252Z" fill="#8BA503"/>
<path d="M320.176 303.896L317.737 307.367C317.737 307.367 320.394 310.839 320.649 311.273C320.904 311.708 328.404 311.06 328.404 311.06L329.067 308.458L327.96 305.421L320.176 303.896Z" fill="#E6E6F0"/>
<path d="M238.167 301.942L233.288 302.805L236.39 308.671L239.717 310.404L242.819 312.571L243.708 310.19L241.487 305.628L238.167 301.942Z" fill="#FDC2CC"/>
<path d="M317.962 245.521C317.962 245.521 343.898 251.595 348.77 258.352C348.77 258.352 353.204 262.045 348.77 268.767C344.335 275.489 338.132 290.687 338.132 290.687C338.132 290.687 333.697 305.442 331.928 306.526C330.159 307.609 319.958 308.479 319.069 304.387C319.069 304.387 324.829 295.491 324.829 291.364C324.829 287.237 334.36 267.712 334.36 267.712C334.36 267.712 312.64 265.324 305.766 266.842C298.893 268.361 308.875 243.133 317.962 245.521Z" fill="#565171"/>
<path opacity="0.1" d="M317.962 245.521C317.962 245.521 343.898 251.595 348.77 258.352C348.77 258.352 353.204 262.045 348.77 268.767C344.335 275.489 338.132 290.687 338.132 290.687C338.132 290.687 333.697 305.442 331.928 306.526C330.159 307.609 319.958 308.479 319.069 304.387C319.069 304.387 324.829 295.491 324.829 291.364C324.829 287.237 334.36 267.712 334.36 267.712C334.36 267.712 312.64 265.324 305.766 266.842C298.893 268.361 308.875 243.133 317.962 245.521Z" fill="black"/>
<path d="M312.64 251.381C312.589 252.643 312.451 254.061 312.254 255.587C310.834 266.636 306.21 283.066 306.21 283.066C306.21 283.066 301.558 292.832 300.225 299.127C298.893 305.421 289.806 306.968 289.806 306.968C289.806 306.968 264.976 309.819 259.879 308.707C254.783 307.595 246.773 311.965 242.812 311.309C238.851 310.653 236.383 301.543 236.383 301.543C243.257 301.583 250.061 300.178 256.333 297.423C266.527 292.868 281.163 295.035 281.163 295.035C282.254 294.725 283.27 294.199 284.146 293.49C285.023 292.782 285.742 291.905 286.26 290.915C287.811 287.657 287.811 267.912 287.366 266.607C284.454 258.053 284.694 252.564 285.532 249.364C285.812 247.966 286.442 246.658 287.366 245.557L312.64 251.381Z" fill="#565171"/>
<path opacity="0.1" d="M312.64 251.381C312.589 252.643 312.45 254.061 312.254 255.587C310.026 255.758 303.778 255.922 299.147 253.12C294.779 250.497 288.422 249.606 285.561 249.328C285.841 247.93 286.471 246.622 287.395 245.521L312.64 251.381Z" fill="black"/>
<path d="M315.705 248.665C314.671 251.516 313.084 254.86 313.084 254.86C313.084 254.86 304.885 255.943 299.118 252.472C293.352 249 284.046 248.565 284.046 248.565C285.553 247.66 286.573 244.908 287.206 242.499C287.56 241.137 287.837 239.757 288.036 238.365C288.036 238.365 315.298 243.789 316.433 244.659C316.856 245.001 316.404 246.726 315.705 248.665Z" fill="#E6E6F0"/>
<path d="M364.286 157.201L331.222 176.74L327.938 178.679V169.134L330.217 168.065L358.083 155.027C358.083 155.027 359.415 131.375 362.961 135.068C366.507 138.76 364.286 157.201 364.286 157.201Z" fill="#FDC2CC"/>
<path opacity="0.1" d="M331.222 176.74L327.938 178.679V169.134L330.217 168.065C330.368 170.974 330.704 173.872 331.222 176.74Z" fill="black"/>
<path d="M305.774 180.233L329.489 166.782C329.489 166.782 329.933 179.805 332.591 181.751C332.591 181.751 322.841 184.603 319.069 190.647L305.774 180.233Z" fill="#8BA503"/>
<path opacity="0.1" d="M305.459 176.82L323.028 166.323C323.028 166.323 323.357 176.486 325.326 178.005C325.326 178.005 318.103 180.23 315.309 184.948L305.459 176.82Z" fill="#8BA503"/>
<path d="M364.075 191.702C364.075 191.702 352.796 196.514 345.326 198.282C343.645 198.778 341.886 198.976 340.134 198.866C335.037 197.997 341.467 191.738 341.467 191.738L344.146 191.332L358.534 189.136C358.534 189.136 360.085 167.438 362.743 169.177C365.4 170.916 364.075 191.702 364.075 191.702Z" fill="#FDC2CC"/>
<path d="M316.411 172.171C316.411 172.171 306.88 179.114 310.426 187.796C313.972 196.478 292.026 182.585 292.026 182.585C292.026 182.585 299.118 172.171 300.669 164.358C302.22 156.545 316.411 172.171 316.411 172.171Z" fill="#FDC2CC"/>
<path opacity="0.1" d="M315.705 248.665C311.583 247.145 307.274 246.162 302.89 245.742C296.483 245.03 290.614 243.825 287.214 242.499C287.567 241.137 287.844 239.757 288.044 238.365C288.044 238.365 315.305 243.789 316.441 244.659C316.856 245.001 316.404 246.726 315.705 248.665Z" fill="black"/>
<path opacity="0.1" d="M345.318 198.282C343.637 198.778 341.879 198.976 340.127 198.866C335.03 197.997 341.459 191.738 341.459 191.738L344.139 191.332C345.26 193.021 346.403 195.659 345.318 198.282Z" fill="black"/>
<path d="M300.895 176.077C300.895 176.077 292.252 175.863 289.15 179.335C286.048 182.806 286.711 192.166 286.711 192.166C286.711 192.166 286.063 210.906 290.92 221.392C291.08 221.73 291.098 222.117 290.971 222.468C290.92 222.597 290.92 222.518 290.92 222.518C290.92 222.518 287.818 236.19 284.716 238.578C281.614 240.966 291.364 243.789 302.919 245.087C314.475 246.384 319.098 249.642 319.098 249.642C319.098 249.642 321.093 247.503 321.283 242.699C321.472 237.894 318.203 202.987 318.203 202.987C318.203 202.987 330.392 206.023 337.709 202.338C337.709 202.338 341.037 204.077 344.139 199.301C347.241 194.525 341.954 189.322 341.954 189.322C341.954 189.322 337.076 194.098 323.555 187.803C310.033 181.509 305.096 175.863 300.895 176.077Z" fill="#8BA503"/>
<path d="M234.621 302.377H231.963V306.07L234.621 311.929C234.621 311.929 238.167 312.578 238.392 312.578C238.618 312.578 241.494 311.929 241.494 311.929L242.382 310.411C242.382 310.411 232.625 306.711 234.621 302.377Z" fill="#E6E6F0"/>
<path d="M317.962 305.849L313.972 314.531L330.821 322.372L344.124 322.807C344.124 322.807 345.231 319.77 340.797 318.252L337.251 317.603C337.251 317.603 332.598 309.356 332.154 305.485C332.154 305.485 327.719 306.355 327.057 309.605C327.05 309.534 320.846 312.571 317.962 305.849Z" fill="#8BA503"/>
<path d="M232.626 301.507L231.271 302.591L225.315 307.367L239.055 325.188C239.055 325.188 246.809 328.445 250.363 325.188C250.363 325.188 252.547 323.049 247.705 321.281C247.705 321.281 243.933 321.93 243.933 318.245C243.933 314.559 244.822 310.653 246.118 309.783C246.118 309.783 242.79 308.7 241.909 309.57C241.231 310.301 240.636 311.102 240.133 311.958C240.133 311.958 232.181 308.885 232.626 301.507Z" fill="#B45181"/>
<path opacity="0.1" d="M300.233 164.793C300.007 165.894 299.711 166.98 299.344 168.043C300.496 170.755 302.681 172.92 305.437 174.08C308.193 175.239 311.302 175.301 314.103 174.252C314.688 173.662 315.313 173.112 315.975 172.606C315.975 172.606 301.783 156.98 300.233 164.793Z" fill="black"/>
<path opacity="0.1" d="M299.009 193.777C299.009 193.777 305.883 202.673 315.858 202.894L299.009 193.777Z" fill="black"/>
<g opacity="0.1">
<path d="M340.09 202.488C339.95 202.449 339.814 202.399 339.683 202.338C339.469 202.447 339.251 202.549 339.027 202.644C339.387 202.638 339.745 202.585 340.09 202.488Z" fill="black"/>
<path d="M342.45 190.213C342.208 189.909 341.951 189.619 341.678 189.343C341.678 189.343 340.221 190.769 336.625 191.04C338.606 191.232 340.606 190.948 342.45 190.213Z" fill="black"/>
<path d="M320.176 202.987L320.22 203.45C323.144 203.98 326.115 204.219 329.088 204.163C326.086 204.056 323.101 203.662 320.176 202.987Z" fill="black"/>
<path d="M304.885 245.101C293.359 243.796 283.609 240.981 286.682 238.593C289.755 236.205 292.886 222.533 292.886 222.533C292.886 222.533 292.886 222.611 292.937 222.483C293.064 222.131 293.046 221.745 292.886 221.406C288.029 210.892 288.677 192.18 288.677 192.18C288.677 192.18 288.014 182.849 291.116 179.349C293.424 176.761 298.805 176.227 301.405 176.12C301.162 176.102 300.919 176.102 300.677 176.12C300.677 176.12 292.034 175.906 288.932 179.378C285.83 182.849 286.493 192.209 286.493 192.209C286.493 192.209 285.845 210.949 290.701 221.435C290.861 221.773 290.88 222.16 290.752 222.511C290.701 222.639 290.701 222.561 290.701 222.561C290.701 222.561 287.621 236.19 284.49 238.578C281.359 240.966 291.138 243.789 302.694 245.087C314.249 246.384 318.873 249.642 318.873 249.642C319.105 249.369 319.309 249.076 319.484 248.765C317.234 247.703 312.603 245.956 304.885 245.101Z" fill="black"/>
</g>
<path d="M310.426 174.559C316.792 174.559 321.953 169.507 321.953 163.275C321.953 157.043 316.792 151.99 310.426 151.99C304.061 151.99 298.9 157.043 298.9 163.275C298.9 169.507 304.061 174.559 310.426 174.559Z" fill="#FDC2CC"/>
<path opacity="0.1" d="M326.831 158.228C325.877 160.566 323.03 161.45 320.533 162.056C316.965 162.911 313.12 163.752 309.706 162.426C309.263 162.183 308.753 162.086 308.249 162.148C307.844 162.308 307.505 162.597 307.288 162.968C303.524 168.215 304.135 175.207 303.16 181.552C302.854 183.526 302.337 185.565 300.975 187.041C298.325 189.892 293.323 189.785 290.883 192.814C289.274 194.81 289.26 197.583 289.274 200.128C289.274 202.842 289.25 205.558 289.201 208.276C289.158 210.058 289.07 211.904 288.248 213.487C286.849 216.167 283.733 217.443 280.857 218.477C279.066 219.132 277.216 219.795 275.294 219.617C273.372 219.439 271.45 218.191 271.202 216.31C270.86 213.758 273.547 211.976 275.396 210.136C278.352 207.207 279.568 202.944 279.677 198.824C279.781 197.16 279.534 195.492 278.949 193.927C278.272 192.308 277.063 190.947 276.335 189.35C274.093 184.432 276.86 178.743 280.173 174.438C283.486 170.132 287.556 165.934 288.262 160.594C288.324 159.439 288.492 158.291 288.765 157.166C289.274 155.612 290.483 151.32 291.815 150.337C293.949 148.764 296.453 147.743 299.097 147.371C301.143 147.079 303.232 147.186 305.264 146.801C307.638 146.352 309.844 145.247 312.218 144.834C317.351 143.943 322.921 149.781 325.171 154.386C325.79 155.797 327.414 156.795 326.831 158.228Z" fill="black"/>
<path d="M326.831 157.793C325.877 160.131 323.03 161.015 320.533 161.621C316.965 162.476 313.12 163.317 309.706 161.992C309.263 161.748 308.753 161.651 308.249 161.713C307.844 161.873 307.505 162.162 307.288 162.533C303.524 167.78 304.135 174.773 303.16 181.117C302.854 183.091 302.337 185.13 300.975 186.606C298.325 189.457 293.323 189.35 290.883 192.38C289.274 194.376 289.26 197.148 289.274 199.693C289.274 202.407 289.25 205.123 289.201 207.841C289.158 209.623 289.07 211.469 288.248 213.052C286.849 215.732 283.733 217.008 280.857 218.042C279.066 218.698 277.216 219.36 275.294 219.182C273.372 219.004 271.45 217.757 271.202 215.875C270.86 213.323 273.547 211.541 275.396 209.702C278.352 206.772 279.568 202.509 279.677 198.389C279.781 196.725 279.534 195.058 278.949 193.492C278.272 191.874 277.063 190.512 276.335 188.915C274.093 183.997 276.86 178.308 280.173 174.003C283.486 169.697 287.556 165.499 288.262 160.16C288.324 159.004 288.492 157.857 288.765 156.731C289.274 155.177 290.483 150.886 291.815 149.902C293.949 148.329 296.453 147.309 299.097 146.936C301.143 146.644 303.232 146.751 305.264 146.366C307.638 145.917 309.844 144.812 312.218 144.399C317.351 143.508 322.921 149.346 325.171 153.951C325.79 155.362 327.414 156.36 326.831 157.793Z" fill="#4B7026"/>
<path d="M364.075 136.101H555.697V323.684H364.075V136.101Z" fill="#F7DF1E"/>
<path d="M414.469 292.861L429.134 284.171C431.966 289.083 434.536 293.239 440.711 293.239C446.631 293.239 450.359 290.972 450.359 282.161V222.219H468.365V282.404C468.365 300.659 457.443 308.971 441.483 308.971C427.08 308.971 418.721 301.664 414.476 292.854M478.144 290.965L492.801 282.653C496.66 288.826 501.677 293.346 510.553 293.346C518.017 293.346 522.771 289.696 522.771 284.656C522.771 278.611 517.885 276.473 509.665 272.944L505.165 271.055C492.175 265.645 483.554 258.844 483.554 244.488C483.554 231.265 493.843 221.192 509.92 221.192C521.366 221.192 529.579 225.099 535.514 235.292L521.497 244.11C518.41 238.693 515.068 236.554 509.92 236.554C504.648 236.554 501.299 239.826 501.299 244.11C501.299 249.399 504.641 251.538 512.359 254.803L516.859 256.692C532.15 263.107 540.785 269.658 540.785 284.392C540.785 300.26 528.05 308.949 510.932 308.949C494.185 308.949 483.408 301.108 478.166 290.943" fill="black"/>
<path d="M639.753 427.786C639.753 427.786 632.275 428.299 627.659 420.458C626.756 418.879 625.69 417.396 624.477 416.031C622.986 413.639 622.212 410.885 622.241 408.083C622.496 402.274 616.307 370.453 616.307 370.453C616.307 370.453 617.079 358.335 610.89 350.757C606.812 345.767 600.951 331.511 597.419 322.301C597.656 322.508 597.941 322.654 598.249 322.729L598.104 321.937H598.249L596.422 312.107C593.761 309.113 591.518 305.786 589.752 302.213L590.167 302.128L595.643 301.001C595.643 301.001 604.54 288.619 605.108 282.532H605.837H606.863C615.099 282.488 623.331 282.909 631.518 283.794C631.518 283.758 631.459 283.601 631.387 283.352C631.04 282.127 630.773 280.881 630.586 279.623H631.095L636.192 279.296C636.192 279.296 653.733 260.106 647.282 256.57C640.83 253.035 634.124 272.481 634.124 272.481L631.94 272.866L631.35 272.973C631.408 272.887 631.467 272.809 631.532 272.73C631.598 272.652 602.902 271.476 598.482 264.647C598.482 264.647 585.842 254.795 585.325 248.252C585.232 246.894 584.759 245.588 583.957 244.476C583.156 243.365 582.057 242.491 580.781 241.95C579.22 241.22 577.49 240.903 575.765 241.031L569.845 241.43L570.26 242.143H570.093C569.721 241.31 569.41 240.452 569.16 239.576H569.284C569.241 239.398 569.204 239.22 569.168 239.042C570.982 238.623 572.692 237.852 574.196 236.774C575.7 235.697 576.968 234.335 577.925 232.768C578.882 231.202 579.508 229.464 579.766 227.657C580.024 225.85 579.909 224.01 579.427 222.247C580.006 222.32 580.594 222.303 581.167 222.197C583.352 221.763 584.888 219.596 584.946 217.429C584.946 217.286 584.946 217.143 584.946 217.008C584.946 217.008 584.946 216.951 584.946 216.923C584.925 215.834 584.655 214.763 584.158 213.789C583.66 212.815 582.947 211.962 582.07 211.291C580.891 210.329 579.478 209.644 578.43 208.575C577.155 207.299 576.456 205.588 575.466 204.084C573.807 201.596 571.347 199.722 568.476 198.759C566.343 198.047 563.721 197.975 562.083 199.472C561.238 200.249 560.751 201.376 559.804 202.031C558.442 202.987 556.593 202.701 554.926 202.894C553.416 203.121 551.986 203.709 550.763 204.605C549.54 205.502 548.562 206.679 547.914 208.033C547.096 209.729 546.702 211.591 546.763 213.465C546.745 214.751 546.902 216.034 547.229 217.279C547.55 218.519 548.023 219.717 548.372 220.957C549.1 223.523 549.268 226.225 550.105 228.756C550.668 230.634 551.791 232.304 553.331 233.553L553.083 234.594C552.923 234.594 548.904 235.47 546.13 241.408C543.945 246.092 536.511 250.925 533.242 252.878C532.632 253.243 532.103 253.724 531.685 254.292C531.268 254.86 530.97 255.503 530.81 256.185C530.496 257.563 530.356 258.973 530.395 260.384C530.337 263.428 530.985 267.641 533.482 272.98C539.154 285.098 543.283 290.401 543.283 290.401C543.283 290.401 543.596 294.115 543.618 298.029C543.618 300.944 543.399 303.846 542.766 305.3C542.227 306.526 542.038 309.655 542.081 313.234C542.081 320.091 542.766 329.037 542.766 329.037C542.766 329.037 544.739 329.408 547.79 329.843L549.69 362.576C549.929 366.54 548.629 370.446 546.05 373.511C544.717 375.123 543.177 376.56 541.47 377.788C536.052 381.573 524.446 421.477 524.446 421.477C524.446 421.477 525.014 421.478 525.946 421.584L522.378 431.329C522.378 431.329 536.635 442.021 545.307 439.099C546.246 438.799 547.232 438.664 548.219 438.7C549.931 438.7 553.593 437.374 551.554 435.627C547.617 432.078 543.904 428.298 540.436 424.307C540.715 424.441 540.983 424.596 541.237 424.771V424.692L541.36 424.771C541.36 424.771 541.36 424.379 541.455 423.737L541.331 423.694C541.593 421.071 542.424 414.428 544.069 413.658C546.13 412.645 561.355 383.099 561.355 383.099L576.573 344.712C576.573 344.712 588.696 365.171 599.014 368.699V377.253C599.014 377.253 604.686 402.509 606.754 405.282C608.822 408.055 606.754 419.168 606.754 419.168C607.162 419.625 607.629 420.028 608.145 420.365L606.492 429.518C606.492 429.518 618.36 429.012 638.479 435.071C638.464 435.107 646.204 431.828 639.753 427.786ZM592.293 295.712L589.781 296.325L589.286 296.446C589.235 296.14 589.199 295.962 589.199 295.962C588.622 296.216 588.003 296.364 587.371 296.396C586.481 293.635 585.967 290.771 585.842 287.878C584.997 284.416 584.482 280.884 584.306 277.328C584.306 275.489 584.619 273.885 585.325 272.98L586.162 273.044L586.745 273.586L586.789 273.621L587.087 273.885L587.4 274.156L587.451 274.199L587.786 274.491L587.844 274.541L588.187 274.826L588.572 275.14L588.66 275.211L589.068 275.532L589.468 275.845L589.563 275.917L590.007 276.245L590.102 276.309L590.524 276.615L590.597 276.665L591.077 277L591.194 277.079L591.703 277.421H591.747L592.242 277.742L592.359 277.82L592.89 278.155L593.007 278.226L593.502 278.526L593.597 278.583L594.165 278.911L594.303 278.989L594.893 279.31H594.936L595.512 279.609L595.65 279.68L596.262 279.98L596.385 280.037L596.953 280.293L597.062 280.343L597.703 280.614L597.856 280.678L598.519 280.942C594.405 285.376 592.293 295.712 592.293 295.712Z" fill="url(#paint0_linear_18_1051)"/>
<path d="M528.669 415.582L523.885 428.649C523.885 428.649 536.992 438.486 545.511 436.447C546.794 436.134 548.102 435.927 549.421 435.827C551.183 435.699 554.219 434.437 552.333 432.84C546.29 427.665 538.229 418.049 538.229 418.049L528.669 415.582Z" fill="#4F4D59"/>
<path d="M608.247 414.349L605.982 426.924C605.982 426.924 617.567 426.432 637.212 432.348C637.212 432.348 644.77 429.141 638.471 425.22C638.471 425.22 631.19 425.712 626.639 418.092C622.088 410.471 619.358 411.434 619.358 411.434L608.247 414.349Z" fill="#4F4D59"/>
<path d="M548.292 323.135L550.477 361.4C550.716 365.477 549.336 369.487 546.625 372.591C545.4 374.017 544.004 375.292 542.467 376.391C537.181 380.09 525.844 419.04 525.844 419.04C525.844 419.04 538.688 419.752 542.212 422.247C542.212 422.247 542.941 412.389 544.979 411.398C547.018 410.407 561.85 381.566 561.85 381.566L576.711 344.092C576.711 344.092 588.543 364.052 598.621 367.516V375.899C598.621 375.899 604.162 400.556 606.179 403.265C608.196 405.973 606.179 416.808 606.179 416.808C606.179 416.808 612.004 423.937 625.314 416.317C625.314 416.317 621.033 411.633 621.287 405.959C621.542 400.285 615.462 369.227 615.462 369.227C615.462 369.227 616.191 357.394 610.176 349.98C604.162 342.567 594.165 314.246 594.165 314.246L587.233 299.647L548.292 323.135Z" fill="#8BA503"/>
<g opacity="0.1">
<path d="M528.29 419.033C528.29 419.033 539.62 380.083 544.914 376.384C546.537 375.218 548.005 373.858 549.282 372.335C551.867 369.273 553.168 365.365 552.923 361.4L550.702 323.128L587.837 300.716L587.335 299.654L548.438 323.135L550.659 361.407C550.903 365.372 549.602 369.28 547.018 372.342C545.741 373.865 544.273 375.226 542.649 376.391C537.37 380.083 526.026 419.033 526.026 419.033C526.026 419.033 538.87 419.745 542.394 422.24C542.394 422.24 542.394 421.855 542.489 421.235C537.53 419.567 528.29 419.033 528.29 419.033Z" fill="black"/>
<path d="M608.625 416.816C608.625 416.816 610.642 405.966 608.625 403.272C606.608 400.577 601.067 375.906 601.067 375.906V367.509C590.997 364.059 579.158 344.085 579.158 344.085L578.284 346.323C581.699 351.627 590.808 364.786 598.81 367.523V375.906C598.81 375.906 604.351 400.563 606.368 403.272C608.385 405.981 606.368 416.816 606.368 416.816C606.368 416.816 609.179 420.28 615.382 419.81C610.744 419.432 608.625 416.816 608.625 416.816Z" fill="black"/>
</g>
<path d="M634.94 280.236L629.996 280.557L627.389 280.728V274.562L630.811 273.956L632.93 273.579C632.93 273.579 639.483 254.596 645.774 258.046C652.066 261.496 634.94 280.236 634.94 280.236Z" fill="#714B4F"/>
<path d="M555.617 229.419C555.617 229.419 552.341 241.743 551.336 249.378C550.331 257.012 574.753 250.861 574.753 250.861C574.753 250.861 565.432 239.769 570.726 233.852L555.617 229.419Z" fill="#714B4F"/>
<path d="M582.056 280.743L582.558 285.426L574.753 284.934L566.947 278.276L559.142 256.82L554.117 249.171L550.338 244.488L551.853 238.785C551.853 238.785 552.545 239.377 553.71 240.246C557.547 243.098 566.539 249.093 573.114 247.439C573.418 247.364 573.717 247.271 574.01 247.161L583.832 263.677L582.056 280.743Z" fill="#E6E6F0"/>
<path opacity="0.1" d="M553.855 237.338C553.855 237.338 549.829 238.051 547.054 243.996C544.928 248.544 537.734 253.263 534.523 255.166C533.911 255.532 533.379 256.015 532.96 256.585C532.541 257.156 532.243 257.803 532.084 258.488C531.436 261.296 531.188 266.536 534.713 274.07C540.254 285.904 544.28 291.079 544.28 291.079C544.28 291.079 545.285 302.912 543.778 306.362C542.271 309.812 543.778 328.795 543.778 328.795C543.778 328.795 570.216 333.728 579.034 328.795C587.852 323.862 586.592 304.879 586.592 304.879C586.592 304.879 594.9 322.137 597.922 322.629L596.16 313.013C596.16 313.013 586.337 302.655 585.835 289.347C585.835 289.347 582.813 277.264 585.332 274.063C585.332 274.063 627.892 277.513 630.411 274.555C630.411 274.555 602.458 273.322 598.177 266.664C598.177 266.664 585.835 257.048 585.332 250.64C585.259 249.437 584.874 248.272 584.212 247.255C583.551 246.238 582.636 245.404 581.553 244.83C579.84 243.876 577.875 243.447 575.91 243.597L570.224 243.982C570.224 243.982 580.046 260.99 579.544 263.228C579.041 265.467 580.046 283.444 580.046 283.444C580.046 283.444 568.68 259.529 563.678 256.82C558.675 254.111 552.843 242.962 552.843 242.962L553.848 237.331" fill="black"/>
<path opacity="0.1" d="M582.056 280.743L582.558 285.426L574.753 284.934L566.947 278.276L559.142 256.82L554.117 249.171L550.338 244.488L551.853 238.785C551.853 238.785 552.545 239.377 553.71 240.246L553.36 242.193C553.36 242.193 559.185 253.327 564.187 256.043C569.19 258.759 580.556 282.667 580.556 282.667C580.556 282.667 579.551 264.668 580.053 262.451C580.396 260.947 575.983 252.636 573.114 247.439C573.418 247.364 573.717 247.271 574.01 247.161L583.832 263.677L582.056 280.743Z" fill="black"/>
<path opacity="0.1" d="M629.996 280.557L627.389 280.728V274.562L630.811 273.956C629.617 275.503 629.661 278.241 629.996 280.557Z" fill="black"/>
<path d="M553.855 236.604C553.855 236.604 549.829 237.317 547.054 243.262C544.928 247.81 537.734 252.529 534.523 254.432C533.911 254.798 533.379 255.281 532.96 255.851C532.541 256.422 532.243 257.069 532.084 257.754C531.436 260.562 531.188 265.802 534.713 273.336C540.254 285.169 544.28 290.344 544.28 290.344C544.28 290.344 545.285 302.178 543.778 305.628C542.271 309.078 543.778 328.061 543.778 328.061C543.778 328.061 570.216 332.993 579.034 328.061C587.852 323.128 586.592 304.145 586.592 304.145C586.592 304.145 594.893 321.374 597.922 321.902L596.16 312.286C596.16 312.286 586.337 301.928 585.835 288.619C585.835 288.619 582.813 276.537 585.332 273.336C585.332 273.336 595.155 283.694 606.237 283.444C614.313 283.397 622.384 283.808 630.411 284.677C630.411 284.677 627.892 276.786 630.411 273.828C630.411 273.828 602.458 272.595 598.177 265.937C598.177 265.937 585.835 256.321 585.332 249.913C585.259 248.709 584.874 247.545 584.212 246.528C583.551 245.511 582.636 244.677 581.553 244.103C579.84 243.149 577.875 242.719 575.91 242.87L570.224 243.255C570.224 243.255 580.046 260.263 579.544 262.501C579.041 264.739 580.046 282.717 580.046 282.717C580.046 282.717 568.68 258.787 563.678 256.079C558.675 253.37 552.843 242.25 552.843 242.25L553.848 236.618" fill="#8BA503"/>
<path opacity="0.1" d="M548.292 262.487C548.292 262.487 554.336 282.446 557.86 284.92C561.384 287.393 582.791 299.961 589.089 297.002C589.089 297.002 590.604 304.402 588.361 306.127C588.361 306.127 564.879 305.229 564.69 305.143C564.69 305.143 549.326 303.168 546.807 295.776C544.288 288.384 541.266 275.817 541.266 275.817L548.292 262.487Z" fill="black"/>
<path d="M580.548 285.048C581.035 285.048 581.429 284.496 581.429 283.815C581.429 283.134 581.035 282.582 580.548 282.582C580.062 282.582 579.667 283.134 579.667 283.815C579.667 284.496 580.062 285.048 580.548 285.048Z" fill="#BA7855"/>
<path d="M583.06 293.673C583.547 293.673 583.942 293.121 583.942 292.44C583.942 291.759 583.547 291.207 583.06 291.207C582.574 291.207 582.179 291.759 582.179 292.44C582.179 293.121 582.574 293.673 583.06 293.673Z" fill="#BA7855"/>
<g opacity="0.1">
<path d="M545.547 327.79C545.547 327.79 544.033 308.807 545.547 305.357C547.062 301.907 546.05 290.074 546.05 290.074C546.05 290.074 542.023 284.898 536.482 273.065C532.951 265.531 533.205 260.291 533.853 257.483C534.013 256.798 534.311 256.151 534.73 255.58C535.149 255.01 535.68 254.527 536.293 254.161C539.504 252.236 546.69 247.539 548.824 242.991C550.389 239.655 552.348 237.965 553.761 237.124L553.855 236.583C553.855 236.583 549.829 237.295 547.054 243.24C544.928 247.788 537.734 252.507 534.523 254.411C533.911 254.777 533.379 255.259 532.96 255.83C532.541 256.4 532.243 257.047 532.084 257.732C531.436 260.541 531.188 265.78 534.713 273.315C540.254 285.148 544.28 290.323 544.28 290.323C544.28 290.323 545.285 302.156 543.778 305.606C542.271 309.056 543.778 328.039 543.778 328.039C543.778 328.039 562.666 331.561 573.835 329.672C562.556 330.99 545.547 327.79 545.547 327.79Z" fill="black"/>
<path d="M579.536 262.487C579.194 264.005 579.536 272.937 579.82 278.412C581.036 280.842 581.801 282.461 581.801 282.461C581.801 282.461 580.796 264.461 581.298 262.245C581.779 260.106 572.932 244.666 572.051 243.141L570.216 243.262C570.216 243.262 580.046 260.27 579.536 262.487Z" fill="black"/>
<path d="M607.999 283.195C596.917 283.444 587.094 273.087 587.094 273.087C586.8 273.488 586.585 273.941 586.461 274.42C589.373 277.072 597.383 283.637 606.237 283.437C614.313 283.39 622.384 283.801 630.411 284.67C630.411 284.67 630.36 284.506 630.28 284.228C622.878 283.479 615.44 283.134 607.999 283.195Z" fill="black"/>
<path d="M588.339 303.903C588.339 303.903 588.441 305.442 588.383 307.752C591.004 312.842 595.774 321.545 597.907 321.895L597.536 319.87C593.873 315.365 588.339 303.903 588.339 303.903Z" fill="black"/>
</g>
<path d="M595.402 301.415L590.051 302.52L585.828 303.389L588.092 297.223L589.672 296.838L592.126 296.24C592.126 296.24 595.65 278.982 602.706 280.215C609.761 281.448 595.402 301.415 595.402 301.415Z" fill="#714B4F"/>
<path opacity="0.1" d="M590.058 302.541L585.835 303.411L588.099 297.245L589.679 296.86C590.029 298.733 590.156 300.639 590.058 302.541Z" fill="black"/>
<path d="M548.292 261.995C548.292 261.995 554.336 281.954 557.86 284.428C561.384 286.902 582.791 299.469 589.089 296.511C589.089 296.511 590.604 303.91 588.361 305.635C588.361 305.635 564.879 304.737 564.69 304.651C564.69 304.651 549.326 302.677 546.807 295.284C544.288 287.892 541.266 275.325 541.266 275.325L548.292 261.995Z" fill="#8BA503"/>
<path opacity="0.1" d="M555.865 229.946C555.865 229.946 555.355 231.878 554.671 234.686C556.065 237.272 558.29 239.337 561.003 240.561C563.715 241.785 566.764 242.1 569.678 241.458C569.073 238.928 569.204 236.369 570.974 234.387L555.865 229.946Z" fill="black"/>
<path d="M566.445 241.287C573.956 241.287 580.046 235.326 580.046 227.971C580.046 220.617 573.956 214.656 566.445 214.656C558.933 214.656 552.843 220.617 552.843 227.971C552.843 235.326 558.933 241.287 566.445 241.287Z" fill="#714B4F"/>
<path opacity="0.1" d="M578.255 224.307C579.24 224.577 580.272 224.64 581.284 224.493C582.332 224.215 583.259 223.61 583.924 222.77C584.589 221.93 584.955 220.901 584.968 219.838C584.949 218.775 584.688 217.73 584.203 216.779C583.717 215.828 583.021 214.996 582.165 214.342C581.015 213.401 579.638 212.738 578.583 211.69C577.338 210.443 576.653 208.775 575.67 207.306C574.051 204.878 571.65 203.049 568.848 202.11C566.765 201.397 564.209 201.34 562.607 202.823C561.785 203.585 561.304 204.676 560.387 205.325C559.054 206.251 557.248 205.981 555.625 206.166C554.154 206.385 552.76 206.954 551.566 207.825C550.373 208.695 549.416 209.839 548.78 211.156C547.538 213.842 547.301 216.87 548.11 219.71C548.423 220.922 548.89 222.091 549.224 223.274C549.953 225.783 550.098 228.413 550.914 230.887C551.729 233.36 553.411 235.784 555.96 236.525C555.759 233.749 556.319 230.971 557.583 228.478C557.792 227.932 558.203 227.484 558.734 227.223C559.188 227.109 559.663 227.109 560.117 227.223C563.311 227.686 566.569 227.04 569.328 225.398C570.297 224.828 571.804 222.86 572.83 222.668C574.156 222.447 576.872 224.008 578.255 224.307Z" fill="black"/>
<path d="M578.255 223.816C579.24 224.085 580.272 224.148 581.284 224.001C582.332 223.723 583.259 223.119 583.924 222.278C584.589 221.438 584.955 220.409 584.968 219.346C584.949 218.283 584.688 217.238 584.203 216.287C583.717 215.336 583.021 214.504 582.165 213.85C581.015 212.909 579.638 212.246 578.583 211.198C577.338 209.951 576.653 208.283 575.67 206.815C574.051 204.386 571.65 202.557 568.848 201.618C566.765 200.905 564.209 200.848 562.607 202.331C561.785 203.094 561.304 204.184 560.387 204.833C559.054 205.76 557.248 205.489 555.625 205.674C554.154 205.893 552.76 206.463 551.566 207.333C550.373 208.203 549.416 209.347 548.78 210.664C547.538 213.35 547.301 216.378 548.11 219.218C548.423 220.43 548.89 221.599 549.224 222.782C549.953 225.291 550.098 227.922 550.914 230.395C551.729 232.869 553.411 235.292 555.96 236.034C555.765 233.258 556.33 230.482 557.598 227.993C557.806 227.448 558.217 227 558.748 226.738C559.202 226.624 559.678 226.624 560.132 226.738C563.326 227.201 566.584 226.555 569.343 224.913C570.311 224.343 571.818 222.376 572.845 222.183C574.156 221.955 576.872 223.516 578.255 223.816Z" fill="#503F43"/>
<path d="M713.942 179.869L702.846 301.55L652.969 315.094L603.23 301.55L592.148 179.869H713.942Z" fill="#E44D26"/>
<path d="M653.041 304.744L693.343 293.809L702.809 189.821H653.041V304.744Z" fill="#F16529"/>
<path d="M631.474 219.674H653.041V204.747H614.814L615.178 208.753L618.928 249.884H653.049V234.957H632.872L631.474 219.674ZM634.94 257.347H619.649L621.783 280.785L652.976 289.297H653.049V273.721H652.983L636.003 269.23L634.94 257.347Z" fill="#EBEBEB"/>
<path d="M603.485 146.794H611.232V154.286H618.317V146.794H626.064V169.491H618.317V161.892H611.232V169.491H603.485V146.794ZM636.251 154.321H629.428V146.794H650.82V154.321H643.998V169.491H636.258V154.321H636.251ZM654.221 146.794H662.303L667.276 154.771L672.242 146.794H680.324V169.491H672.606V158.242L667.276 166.311H667.145L661.808 158.242V169.491H654.221V146.794ZM684.176 146.794H691.923V161.984H702.845V169.483H684.198V146.794H684.176Z" fill="black"/>
<path d="M652.99 249.884H671.761L669.992 269.245L652.99 273.735V289.297L684.249 280.814L684.475 278.29L688.057 238.992L688.428 234.986H652.99V249.913V249.884ZM652.99 219.638V219.674H689.819L690.125 216.317L690.853 208.746L691.217 204.74H652.99V219.631V219.638Z" fill="white"/>
<path d="M267.03 269.701C265.61 265.631 263.564 260.434 261.933 259.251C261.834 259.174 261.727 259.109 261.612 259.058H261.408V254.033L257.578 254.631C256.964 252.815 256.499 250.953 256.188 249.064C256.557 249.426 257.027 249.672 257.539 249.772C258.051 249.872 258.581 249.822 259.064 249.627C258.998 249.528 258.947 249.421 258.889 249.314L259.064 249.242C258.461 248.201 258.143 247.025 258.139 245.828C258.171 244.736 258.35 243.652 258.671 242.606C259.355 240.289 260.513 238.122 261.161 235.798C261.575 234.298 261.771 232.748 261.743 231.193C261.763 228.56 261.149 225.96 259.952 223.602C259.655 222.923 259.19 222.328 258.598 221.87C258.059 221.577 257.505 221.313 256.938 221.078C255.988 220.452 255.17 219.654 254.528 218.726C251.808 215.484 248.166 213.105 244.064 211.89C242.996 211.502 241.839 211.413 240.722 211.633C238.152 212.346 237.213 215.433 235.13 217.065C233.288 218.491 230.761 218.655 228.461 219.139C226.098 219.533 223.924 220.648 222.25 222.326C221.161 223.544 220.567 225.112 220.582 226.731C220.519 227.487 220.656 228.245 220.978 228.934C221.301 229.623 221.799 230.219 222.424 230.666C223.136 231.124 223.943 231.423 224.786 231.54C225.63 231.657 226.489 231.59 227.303 231.343C226.667 233.493 226.492 235.749 226.788 237.968C227.085 240.187 227.847 242.323 229.026 244.24C230.206 246.158 231.777 247.816 233.642 249.111C235.507 250.406 237.625 251.31 239.863 251.766L240.314 252.55C241.692 255.064 242.736 257.74 243.424 260.512C239.899 262.473 236.048 264.305 233.725 264.476C233.633 265.365 233.465 266.245 233.223 267.106C232.68 269.27 231.636 271.282 230.172 272.987C227.012 276.466 212.791 302.769 212.791 302.769C212.791 302.769 212.34 303.817 211.612 305.621C202.779 306.683 188.37 308.215 184.343 307.424L168.543 292.725C168.543 292.725 163.446 296.539 163.883 301.172L161.036 298.521C161.036 298.521 146.021 309.734 169.729 317.054L205.801 321.153C202.364 331.304 199.161 343.116 200.151 349.545H200.449C201.139 349.544 201.828 349.492 202.51 349.389L202.444 350.529L198.971 411.427C198.971 411.427 198.178 422.639 208.845 427.672C208.845 427.672 221.885 465.188 216.745 469.444C216.745 469.444 217.357 469.758 218.383 470.2L207.658 479.467C207.658 479.467 199.758 481.398 195.411 481.013C194.647 480.911 193.871 481.088 193.232 481.51C192.593 481.932 192.134 482.57 191.945 483.302C191.945 483.38 191.945 483.458 191.901 483.544V483.644C191.901 483.722 191.901 483.808 191.901 483.893C191.901 483.979 191.901 483.957 191.901 483.986C191.901 484.014 191.901 484.128 191.901 484.2V484.292C191.901 484.378 191.901 484.456 191.952 484.542V484.635C191.976 484.725 192.005 484.813 192.039 484.898V484.984C192.076 485.069 192.119 485.155 192.163 485.241V485.298C192.214 485.383 192.265 485.469 192.323 485.554L192.374 485.625C192.437 485.716 192.508 485.806 192.585 485.896L192.644 485.968C192.724 486.06 192.811 486.146 192.906 486.239H192.95L193.241 486.481L193.306 486.531L193.663 486.78L193.75 486.837L194.166 487.073H194.231L194.675 487.286H194.741L195.258 487.493L195.367 487.536L195.942 487.721H196.037L196.656 487.878H196.707L197.435 488.013H197.573L198.301 488.12H198.44L199.277 488.199C200.901 488.32 203.092 488.363 205.626 488.356C205.626 488.356 205.626 488.42 205.626 488.448C205.626 488.477 205.626 488.591 205.626 488.662V488.755C205.626 488.84 205.626 488.919 205.677 489.004V489.097C205.702 489.187 205.731 489.275 205.765 489.361V489.446C205.801 489.532 205.845 489.617 205.888 489.703V489.76C205.939 489.845 205.99 489.931 206.049 490.017L206.1 490.088C206.163 490.178 206.233 490.268 206.311 490.359L206.369 490.43C206.449 490.523 206.536 490.608 206.631 490.701H206.668L206.959 490.943L207.024 490.993L207.381 491.243L207.468 491.3L207.876 491.535H207.942L208.386 491.749H208.451L208.968 491.955L209.078 491.998L209.653 492.184H209.748L210.366 492.34H210.417L211.146 492.476H211.284L212.012 492.583H212.15L212.988 492.661C223.262 493.438 256.049 491.114 256.049 491.114V491.022V490.908C256.377 489.411 257.95 480.707 252.358 474.27C252.525 474.099 252.685 473.921 252.838 473.735C252.838 473.735 248.47 466.386 250.865 464.069C253.261 461.753 239.295 421.884 239.295 421.884C239.295 421.884 231.788 410.279 236.135 397.127C240.482 383.975 235.742 369.669 235.742 369.669C235.742 369.669 246.118 366.661 246.307 354.165C246.307 353.787 246.307 353.395 246.307 353.003C246.524 353.034 246.743 353.048 246.962 353.045C247.108 353.056 247.254 353.056 247.399 353.045C247.399 353.045 245.426 346.081 247.792 341.056C250.159 336.03 255.299 340.671 260.04 320.169C263.469 305.335 266.484 288.277 267.896 279.973C268.476 276.531 268.179 273.003 267.03 269.701ZM176.872 313.184L173.268 309.833C174.462 310.318 175.787 310.789 177.266 311.259L190.845 312.82C184.787 313.355 179.13 313.654 176.872 313.205V313.184Z" fill="url(#paint1_linear_18_1051)"/>
<path d="M211.262 311.231C211.262 311.231 183.316 315.03 177.491 313.889L161.968 299.447C161.968 299.447 147.216 310.468 170.509 317.689L213.978 322.629L211.262 311.231Z" fill="#FDC2CC"/>
<path opacity="0.05" d="M211.262 311.231C211.262 311.231 183.316 315.03 177.491 313.889L161.968 299.447C161.968 299.447 147.216 310.468 170.509 317.689L213.978 322.629L211.262 311.231Z" fill="black"/>
<path d="M156.558 320.818L96.1663 304.423L82.7104 156.652H230.587L217.116 304.402L156.558 320.818Z" fill="#264DE4"/>
<path d="M205.583 294.999L217.094 168.742H156.66V308.251L205.583 294.999Z" fill="#2965F1"/>
<path d="M113.598 223.523L115.258 241.644H156.689V223.523H113.598ZM110.263 186.841L111.945 204.961H156.681V186.841H110.227H110.263ZM156.681 270.592H156.601L135.981 265.139L134.663 250.682H116.044L118.637 279.139L156.558 289.468H156.645L156.681 270.592Z" fill="#EBEBEB"/>
<path d="M117.515 116.477H139.934V125.658H126.886V134.84H139.934V144.021H117.515V116.477ZM144.456 116.477H166.875V124.461H153.798V126.058H166.846V144.42H144.42V136.037H157.468V134.44H144.42V116.477H144.456ZM171.397 116.477H193.816V124.461H180.702V126.058H193.75V144.42H171.324V136.037H184.372V134.44H171.324V116.477H171.397Z" fill="black"/>
<path d="M199.619 223.523L202.961 186.841H156.558V204.961H182.647L180.965 223.495H156.558V241.615H179.355L177.171 265.139L156.558 270.606V289.461L194.508 279.16L194.785 276.095L199.153 228.378L199.605 223.509L199.619 223.523Z" fill="white"/>
<path d="M221.361 465.502L207.774 477.278C207.774 477.278 200.013 479.181 195.746 478.797C191.479 478.412 189.535 485.255 199.627 486.017C209.719 486.78 241.931 484.499 241.931 484.499C241.931 484.499 245.033 472.338 235.72 465.502H221.361Z" fill="#47465A"/>
<path opacity="0.05" d="M221.361 465.502L207.774 477.278C207.774 477.278 200.013 479.181 195.746 478.797C191.479 478.412 189.535 485.255 199.627 486.017C209.719 486.78 241.931 484.499 241.931 484.499C241.931 484.499 245.033 472.338 235.72 465.502H221.361Z" fill="black"/>
<path opacity="0.3" d="M242.412 480.183C242.389 481.569 242.225 482.949 241.924 484.303C241.924 484.303 209.711 486.584 199.619 485.822C194.763 485.458 192.702 483.683 192.338 481.987C191.894 483.94 193.656 486.513 199.619 486.976C209.711 487.739 241.924 485.458 241.924 485.458C242.303 483.725 242.467 481.954 242.412 480.183Z" fill="white"/>
<path d="M237.264 250.091C237.264 250.091 245.805 261.867 242.696 269.85C239.586 277.834 258.998 261.489 258.998 261.489C258.998 261.489 252.787 250.804 255.897 239.398L237.264 250.091Z" fill="#FDC2CC"/>
<path d="M234.934 470.064L221.361 481.84C221.361 481.84 213.6 483.744 209.333 483.359C205.066 482.974 203.122 489.817 213.214 490.58C223.306 491.342 255.518 489.061 255.518 489.061C255.518 489.061 258.62 476.9 249.307 470.064H234.934Z" fill="#47465A"/>
<path d="M238.837 467.405C236.812 469.851 233.958 470.791 230.973 470.934C224.187 471.248 216.716 467.405 216.716 467.405C221.762 463.228 208.954 426.368 208.954 426.368C198.476 421.428 199.248 410.407 199.248 410.407L202.641 350.6L203.5 335.574L214.371 329.116L222.934 335.531L231.06 341.633C231.589 343.574 231.931 345.56 232.08 347.564C233.026 361.528 221.747 364.814 221.747 364.814C221.747 364.814 226.407 378.871 222.133 391.795C217.859 404.719 225.235 416.117 225.235 416.117C225.235 416.117 239.208 455.637 236.885 457.918C234.562 460.199 238.837 467.405 238.837 467.405Z" fill="#565171"/>
<path opacity="0.05" d="M238.837 467.405C236.812 469.851 233.958 470.791 230.973 470.934C224.187 471.248 216.716 467.405 216.716 467.405C221.762 463.228 208.954 426.368 208.954 426.368C198.476 421.428 199.248 410.407 199.248 410.407L202.641 350.6L203.5 335.574L214.371 329.116L222.934 335.531L231.06 341.633C231.589 343.574 231.931 345.56 232.08 347.564C233.026 361.528 221.747 364.814 221.747 364.814C221.747 364.814 226.407 378.871 222.133 391.795C217.859 404.719 225.235 416.117 225.235 416.117C225.235 416.117 239.208 455.637 236.885 457.918C234.562 460.199 238.837 467.405 238.837 467.405Z" fill="black"/>
<path d="M252.402 471.96C245.805 479.937 230.281 471.96 230.281 471.96C230.594 471.679 230.827 471.323 230.958 470.927C233.805 463.349 221.354 427.123 221.354 427.123C210.876 422.183 209.704 410.407 209.704 410.407L206.959 349.517L206.602 341.633L222.934 335.531L227.951 333.656L244.662 346.195C245.379 348.793 245.732 351.474 245.71 354.165C245.499 366.432 235.327 369.398 235.327 369.398C235.327 369.398 239.987 383.455 235.713 396.379C231.439 409.302 238.837 420.665 238.837 420.665C238.837 420.665 252.809 460.184 250.487 462.466C248.164 464.747 252.402 471.96 252.402 471.96Z" fill="#565171"/>
<path opacity="0.1" d="M245.71 354.165C242.353 353.694 235.56 349.738 232.072 347.592C230.74 346.772 229.888 346.224 229.888 346.224C229.888 346.224 226.393 336.721 217.08 343.942C214.05 346.351 210.629 348.245 206.959 349.545C205.557 350.031 204.111 350.387 202.641 350.608L203.5 335.581L214.371 329.123L222.934 335.538L227.951 333.663L244.662 346.195C245.379 348.793 245.732 351.474 245.71 354.165Z" fill="black"/>
<path d="M266.717 281.249C265.333 289.404 262.348 306.198 258.998 320.733C254.338 340.87 249.292 336.308 246.97 341.248C244.647 346.188 246.584 353.024 246.584 353.024C242.703 353.402 229.895 345.047 229.895 345.047C229.895 345.047 226.4 335.545 217.087 342.766C207.774 349.987 200.398 349.602 200.398 349.602C198.454 337.064 212.82 303.625 212.82 303.625C212.82 303.625 226.793 277.784 229.895 274.398C231.334 272.725 232.361 270.749 232.895 268.624C233.133 267.779 233.299 266.916 233.39 266.044C238.436 265.666 250.865 257.305 250.865 257.305L260.571 255.786V260.726C260.686 260.777 260.794 260.841 260.892 260.919C262.486 262.109 264.532 267.184 265.894 271.183C267.009 274.421 267.291 277.878 266.717 281.249Z" fill="#8BA503"/>
<path d="M221.361 316.933L216.345 316.363L177.892 311.993C154.592 304.772 169.351 293.752 169.351 293.752L184.875 308.194C189.353 309.071 206.923 307.025 214.794 306.055C217.153 305.756 218.645 305.556 218.645 305.556L221.361 316.933Z" fill="#FDC2CC"/>
<path opacity="0.1" d="M258.998 265.638C258.998 265.638 248.907 257.661 233.74 283.494C218.573 309.327 215.107 305.15 215.107 305.15C215.107 305.15 218.209 316.555 216.658 318.829C216.658 318.829 227.135 318.067 231.016 318.829C234.897 319.592 258.962 289.952 258.962 289.952C258.962 289.952 271.42 273.237 258.998 265.638Z" fill="black"/>
<path opacity="0.1" d="M258.613 264.119C258.613 264.119 248.521 256.143 233.383 281.976C218.245 307.809 214.75 303.632 214.75 303.632C214.75 303.632 226.779 316.548 230.66 317.311C234.54 318.074 258.605 288.434 258.605 288.434C258.605 288.434 271.034 271.718 258.613 264.119Z" fill="black"/>
<path opacity="0.1" d="M216.337 316.384C216.497 313.569 215.412 308.622 214.786 306.055C217.145 305.756 218.638 305.556 218.638 305.556L221.354 316.962L216.337 316.384Z" fill="black"/>
<path d="M258.998 264.875C258.998 264.875 248.907 256.898 233.74 282.739C218.573 308.579 215.107 304.394 215.107 304.394C215.107 304.394 218.209 315.8 216.658 318.074C216.658 318.074 227.135 317.311 231.016 318.074C234.897 318.837 258.962 289.197 258.962 289.197C258.962 289.197 271.42 272.474 258.998 264.875Z" fill="#8BA503"/>
<path opacity="0.1" d="M256.312 240.175L237.65 250.804C238.439 251.925 239.168 253.086 239.834 254.282C240.908 254.496 242 254.603 243.096 254.603C248.069 254.603 250.377 249.492 253.384 246.049C253.166 243.312 255.452 243.24 256.312 240.175Z" fill="black"/>
<path d="M242.696 253.862C251.699 253.862 258.998 246.716 258.998 237.901C258.998 229.087 251.699 221.941 242.696 221.941C233.692 221.941 226.393 229.087 226.393 237.901C226.393 246.716 233.692 253.862 242.696 253.862Z" fill="#FDC2CC"/>
<path opacity="0.1" d="M222.089 224.992C223.734 223.341 225.87 222.243 228.191 221.855C230.456 221.378 232.939 221.235 234.744 219.817C236.79 218.213 237.708 215.162 240.234 214.478C241.332 214.263 242.469 214.351 243.518 214.734C247.549 215.927 251.127 218.264 253.8 221.449C254.432 222.363 255.238 223.149 256.173 223.766C256.731 223.996 257.275 224.256 257.804 224.543C258.384 224.994 258.839 225.579 259.129 226.246C260.949 229.844 261.368 233.966 260.309 237.844C259.676 240.132 258.54 242.257 257.863 244.538C257.185 246.819 257.018 249.399 258.248 251.438C257.054 252.037 255.547 251.281 254.797 250.191C254.047 249.1 253.821 247.76 253.428 246.498C252.655 244.021 251.199 241.801 249.22 240.083C247.996 239.028 245.812 238.315 244.96 239.676C244.632 240.204 244.654 240.881 244.37 241.43C243.817 242.506 242.186 242.72 241.145 242.143C240.119 241.45 239.399 240.403 239.128 239.213C237.533 233.917 234.803 230.588 229.021 232.847C226.837 233.688 224.325 234.273 222.25 232.847C219.592 230.937 220.123 227.152 222.089 224.992Z" fill="black"/>
<path d="M222.089 224.607C223.734 222.956 225.87 221.858 228.191 221.47C230.456 220.993 232.939 220.85 234.744 219.432C236.79 217.828 237.708 214.777 240.234 214.093C241.332 213.878 242.469 213.966 243.518 214.349C247.549 215.542 251.127 217.879 253.8 221.064C254.432 221.978 255.238 222.765 256.173 223.381C256.731 223.612 257.275 223.871 257.804 224.158C258.384 224.609 258.839 225.194 259.129 225.861C260.949 229.459 261.368 233.581 260.309 237.459C259.676 239.747 258.54 241.872 257.863 244.153C257.185 246.434 257.018 249.014 258.248 251.053C257.054 251.652 255.547 250.896 254.797 249.806C254.047 248.715 253.821 247.375 253.428 246.113C252.655 243.636 251.199 241.416 249.22 239.698C247.996 238.643 245.812 237.93 244.96 239.291C244.632 239.819 244.654 240.496 244.37 241.045C243.817 242.121 242.186 242.335 241.145 241.758C240.119 241.065 239.399 240.018 239.128 238.828C237.533 233.532 234.803 230.203 229.021 232.462C226.837 233.303 224.325 233.888 222.25 232.462C219.592 230.559 220.123 226.774 222.089 224.607Z" fill="#524348"/>
<path opacity="0.05" d="M260.87 260.89H252.984C252.984 260.89 237.46 268.489 237.074 268.111C236.812 267.855 234.409 268.297 232.888 268.603C233.126 267.758 233.291 266.895 233.383 266.023C238.429 265.645 250.858 257.283 250.858 257.283L260.564 255.765V260.705C260.673 260.754 260.776 260.816 260.87 260.89Z" fill="black"/>
<path opacity="0.3" d="M255.991 484.738C255.968 486.124 255.805 487.504 255.503 488.858C255.503 488.858 223.291 491.139 213.199 490.377C208.342 490.013 206.282 488.238 205.918 486.542C205.474 488.495 207.236 491.068 213.199 491.531C223.291 492.294 255.503 490.013 255.503 490.013C255.883 488.281 256.047 486.509 255.991 484.738Z" fill="white"/>
<g opacity="0.05">
<path d="M213.396 342.389C208.16 346.452 203.529 348.091 200.486 348.804C200.486 349.089 200.544 349.367 200.588 349.638C200.588 349.638 207.964 350.016 217.277 342.802C218.72 341.592 220.425 340.719 222.264 340.25C220.233 339.273 217.335 339.338 213.396 342.389Z" fill="black"/>
<path d="M266.069 271.148C264.678 267.149 262.661 262.081 261.066 260.883C260.969 260.806 260.861 260.741 260.746 260.691C260.746 260.691 257.535 260.798 257.644 260.883C259.239 262.074 260.797 266.771 262.188 270.763C263.315 274.008 263.605 277.475 263.032 280.857C261.649 289.012 258.664 305.806 255.314 320.341C250.654 340.478 245.608 335.916 243.285 340.856C241.378 344.905 242.332 350.223 242.747 352.012C244.002 352.627 245.378 352.97 246.78 353.017C246.78 353.017 244.836 346.181 247.166 341.241C249.496 336.301 254.542 340.863 259.195 320.726C262.566 306.155 265.53 289.361 266.913 281.242C267.486 277.86 267.196 274.393 266.069 271.148Z" fill="black"/>
</g>
<path d="M311.176 342.125C312.511 341.06 313.483 339.623 313.965 338.005C314.329 336.365 313.616 334.405 312.014 333.806C310.223 333.136 308.308 334.348 306.859 335.581C305.41 336.814 303.742 338.211 301.842 337.948C302.818 337.081 303.549 335.981 303.963 334.756C304.376 333.53 304.458 332.221 304.201 330.955C304.119 330.43 303.892 329.937 303.546 329.529C302.548 328.488 300.75 328.937 299.555 329.757C295.769 332.366 294.713 337.399 294.691 341.932C294.313 340.3 294.633 338.596 294.619 336.943C294.604 335.289 294.138 333.378 292.696 332.509C291.802 332.038 290.798 331.805 289.784 331.831C288.08 331.767 286.187 331.938 285.022 333.157C283.566 334.669 283.952 337.213 285.211 338.86C286.471 340.507 288.379 341.569 290.141 342.724C291.553 343.546 292.758 344.669 293.665 346.01C293.772 346.196 293.859 346.392 293.927 346.594H304.594C306.984 345.402 309.198 343.899 311.176 342.125Z" fill="#8BA503"/>
<path d="M330.77 475.974C332.467 474.427 334.062 472.602 334.557 470.385C335.052 468.168 334.083 465.502 331.914 464.682C329.489 463.77 326.889 465.395 324.923 467.085C322.958 468.774 320.7 470.649 318.13 470.292C319.454 469.117 320.444 467.626 321.004 465.964C321.564 464.303 321.675 462.528 321.326 460.812C321.214 460.103 320.907 459.438 320.438 458.887C319.091 457.461 316.645 458.082 315.035 459.194C309.939 462.758 308.482 469.551 308.446 475.696C307.929 473.479 308.366 471.169 308.351 468.895C308.337 466.621 307.703 464.105 305.745 462.879C304.525 462.237 303.153 461.922 301.769 461.967C299.461 461.881 296.89 462.109 295.318 463.763C293.359 465.816 293.861 469.259 295.573 471.519C297.284 473.778 299.868 475.197 302.249 476.758C304.161 477.873 305.791 479.396 307.019 481.213C307.164 481.467 307.284 481.734 307.376 482.011H321.843C325.083 480.402 328.086 478.371 330.77 475.974Z" fill="#8BA503"/>
<defs>
<linearGradient id="paint0_linear_18_1051" x1="585.522" y1="439.598" x2="585.522" y2="198.268" gradientUnits="userSpaceOnUse">
<stop stop-color="#808080" stop-opacity="0.25"/>
<stop offset="0.54" stop-color="#808080" stop-opacity="0.12"/>
<stop offset="1" stop-color="#808080" stop-opacity="0.1"/>
</linearGradient>
<linearGradient id="paint1_linear_18_1051" x1="212.281" y1="493.21" x2="212.281" y2="211.491" gradientUnits="userSpaceOnUse">
<stop stop-color="#808080" stop-opacity="0.25"/>
<stop offset="0.54" stop-color="#808080" stop-opacity="0.12"/>
<stop offset="1" stop-color="#808080" stop-opacity="0.1"/>
</linearGradient>
</defs>
</svg>
