<svg width="326" height="337" viewBox="0 0 326 337" fill="none" xmlns="http://www.w3.org/2000/svg">
<line x1="165" y1="17" x2="165" y2="333" stroke="#F3BB00" stroke-width="2"/>
<line x1="164" y1="34.5" x2="149" y2="34.5" stroke="#BD3100"/>
<path d="M5.64484 17V5.66H5.26484L5.54484 3H9.36484C10.3915 3 11.1248 3.22667 11.5648 3.68C12.0182 4.12 12.2448 4.84667 12.2448 5.86V8.48C12.2448 8.88 12.2115 9.23333 12.1448 9.54C12.4782 9.98 12.6448 10.6467 12.6448 11.54V14.14C12.6448 15.1533 12.4182 15.8867 11.9648 16.34C11.5248 16.78 10.7915 17 9.76484 17H5.64484ZM9.42484 8.68C9.49151 8.68 9.52484 8.64667 9.52484 8.58V5.76C9.52484 5.69333 9.49151 5.66 9.42484 5.66H8.36484V8.68H9.42484ZM9.92484 11.44C9.92484 11.3733 9.89151 11.34 9.82484 11.34H8.36484V14.34H9.82484C9.89151 14.34 9.92484 14.3067 9.92484 14.24V11.44ZM16.3308 17C15.3041 17 14.5641 16.78 14.1108 16.34C13.6708 15.8867 13.4508 15.1533 13.4508 14.14V9.86C13.4508 8.83333 13.6641 8.1 14.0908 7.66C14.5308 7.22 15.2508 7 16.2508 7H16.4308C16.7774 7 17.0908 7.06 17.3708 7.18V7H20.0908V14.34H20.2908L20.4908 17H17.3708V15.94L16.6508 17H16.3308ZM16.2708 9.66C16.2041 9.66 16.1708 9.69333 16.1708 9.76V14.24C16.1708 14.3067 16.2041 14.34 16.2708 14.34H17.3708V9.66H16.2708ZM21.0875 14.3V9.86C21.0875 8.83333 21.3075 8.1 21.7475 7.66C22.2008 7.22 22.9408 7 23.9675 7H24.8475C25.8742 7 26.6075 7.22 27.0475 7.66C27.5008 8.1 27.7275 8.83333 27.7275 9.86V11.72L25.0075 11.42V9.76C25.0075 9.69333 24.9742 9.66 24.9075 9.66H23.9075C23.8408 9.66 23.8075 9.69333 23.8075 9.76V14.4C23.8075 14.4667 23.8408 14.5 23.9075 14.5H24.9075C24.9742 14.5 25.0075 14.4667 25.0075 14.4V12.62H27.7275V14.3C27.7275 15.3133 27.5008 16.0467 27.0475 16.5C26.6075 16.94 25.8742 17.16 24.8475 17.16H23.9675C22.9408 17.16 22.2008 16.94 21.7475 16.5C21.3075 16.06 21.0875 15.3267 21.0875 14.3ZM28.5289 14.3V9.86C28.5289 8.83333 28.7489 8.1 29.1889 7.66C29.6422 7.22 30.3822 7 31.4089 7H32.2889C33.3156 7 34.0489 7.22 34.4889 7.66C34.9422 8.1 35.1689 8.83333 35.1689 9.86V11.72L32.4489 11.42V9.76C32.4489 9.69333 32.4156 9.66 32.3489 9.66H31.3489C31.2822 9.66 31.2489 9.69333 31.2489 9.76V14.4C31.2489 14.4667 31.2822 14.5 31.3489 14.5H32.3489C32.4156 14.5 32.4489 14.4667 32.4489 14.4V12.62H35.1689V14.3C35.1689 15.3133 34.9422 16.0467 34.4889 16.5C34.0489 16.94 33.3156 17.16 32.2889 17.16H31.4089C30.3822 17.16 29.6422 16.94 29.1889 16.5C28.7489 16.06 28.5289 15.3267 28.5289 14.3ZM38.948 17C37.9213 17 37.1813 16.78 36.728 16.34C36.288 15.8867 36.068 15.1533 36.068 14.14V9.86C36.068 8.83333 36.2813 8.1 36.708 7.66C37.148 7.22 37.868 7 38.868 7H39.048C39.3946 7 39.708 7.06 39.988 7.18V7H42.708V14.34H42.908L43.108 17H39.988V15.94L39.268 17H38.948ZM38.888 9.66C38.8213 9.66 38.788 9.69333 38.788 9.76V14.24C38.788 14.3067 38.8213 14.34 38.888 14.34H39.988V9.66H38.888ZM44.0247 17V5.66H43.7047L43.9047 3H46.7447V14.34H47.1447L47.3447 17H44.0247ZM50.823 17C49.7963 17 49.0563 16.78 48.603 16.34C48.163 15.8867 47.943 15.1533 47.943 14.14V9.86C47.943 8.83333 48.1563 8.1 48.583 7.66C49.023 7.22 49.743 7 50.743 7H50.923C51.2696 7 51.583 7.06 51.863 7.18V7H54.583V14.34H54.783L54.983 17H51.863V15.94L51.143 17H50.823ZM50.763 9.66C50.6963 9.66 50.663 9.69333 50.663 9.76V14.24C50.663 14.3067 50.6963 14.34 50.763 14.34H51.863V9.66H50.763ZM59.6997 17V15.94L58.9797 17H58.6597C57.633 17 56.893 16.78 56.4397 16.34C55.9997 15.8867 55.7797 15.1533 55.7797 14.14V9.66H55.3797L55.5797 7H58.4997V14.24C58.4997 14.3067 58.533 14.34 58.5997 14.34H59.6997V7H62.4197V14.34H62.6197L62.8197 17H59.6997ZM63.6117 17V9.66H63.2117L63.4117 7H66.3317V8.14L67.0517 7H68.6717V10.06H66.3317V17H63.6117ZM71.5064 6.4L72.2264 4.28H74.3664L73.6464 6.4H71.5064ZM69.4664 14.3V9.86C69.4664 8.83333 69.6864 8.1 70.1264 7.66C70.5797 7.22 71.3197 7 72.3464 7H73.2264C74.2531 7 74.9864 7.22 75.4264 7.66C75.8797 8.1 76.1064 8.83333 76.1064 9.86V13.32H72.1864V14.4C72.1864 14.4667 72.2197 14.5 72.2864 14.5H73.2864C73.3531 14.5 73.3864 14.4667 73.3864 14.4V13.74H76.1064V14.3C76.1064 15.3133 75.8797 16.0467 75.4264 16.5C74.9864 16.94 74.2531 17.16 73.2264 17.16H72.3464C71.3197 17.16 70.5797 16.94 70.1264 16.5C69.6864 16.06 69.4664 15.3267 69.4664 14.3ZM73.3864 9.76C73.3864 9.69333 73.3531 9.66 73.2864 9.66H72.2864C72.2197 9.66 72.1864 9.69333 72.1864 9.76V11.06H73.3864V9.76ZM79.7878 17C78.7611 17 78.0211 16.78 77.5678 16.34C77.1278 15.8867 76.9078 15.1533 76.9078 14.14V9.86C76.9078 8.83333 77.1211 8.1 77.5478 7.66C77.9878 7.22 78.7078 7 79.7078 7H79.8878C80.2345 7 80.5478 7.06 80.8278 7.18V7H83.5478V14.34H83.7478L83.9478 17H80.8278V15.94L80.1078 17H79.7878ZM79.7278 9.66C79.6611 9.66 79.6278 9.69333 79.6278 9.76V14.24C79.6278 14.3067 79.6611 14.34 79.7278 14.34H80.8278V9.66H79.7278ZM88.9069 14.34V17H86.9469C86.3869 17 85.9335 16.8333 85.5869 16.5C85.2402 16.1533 85.0669 15.7 85.0669 15.14V9.46H84.2469L84.4469 7H85.0669V5.66H84.6469L84.8469 3H87.7669V7H88.7069L88.5069 9.46H87.7669V14.34H88.9069ZM96.4192 11.34L96.5792 8.68H99.9392V14.22C99.9392 15.2333 99.7126 15.9667 99.2592 16.42C98.8192 16.86 98.0859 17.08 97.0592 17.08H95.9792C94.9526 17.08 94.2126 16.86 93.7592 16.42C93.3192 15.9667 93.0992 15.2333 93.0992 14.22V5.78C93.0992 4.75333 93.3192 4.02 93.7592 3.58C94.2126 3.14 94.9526 2.92 95.9792 2.92H97.0592C98.0859 2.92 98.8192 3.14 99.2592 3.58C99.7126 4.02 99.9392 4.75333 99.9392 5.78V7.76L97.2192 7.46V5.68C97.2192 5.61333 97.1859 5.58 97.1192 5.58H95.9192C95.8526 5.58 95.8192 5.61333 95.8192 5.68V14.32C95.8192 14.3867 95.8526 14.42 95.9192 14.42H97.1192C97.1859 14.42 97.2192 14.3867 97.2192 14.32V11.34H96.4192ZM102.776 6.4L103.496 4.28H105.636L104.916 6.4H102.776ZM100.736 14.3V9.86C100.736 8.83333 100.956 8.1 101.396 7.66C101.849 7.22 102.589 7 103.616 7H104.496C105.523 7 106.256 7.22 106.696 7.66C107.149 8.1 107.376 8.83333 107.376 9.86V13.32H103.456V14.4C103.456 14.4667 103.489 14.5 103.556 14.5H104.556C104.623 14.5 104.656 14.4667 104.656 14.4V13.74H107.376V14.3C107.376 15.3133 107.149 16.0467 106.696 16.5C106.256 16.94 105.523 17.16 104.496 17.16H103.616C102.589 17.16 101.849 16.94 101.396 16.5C100.956 16.06 100.736 15.3267 100.736 14.3ZM104.656 9.76C104.656 9.69333 104.623 9.66 104.556 9.66H103.556C103.489 9.66 103.456 9.69333 103.456 9.76V11.06H104.656V9.76ZM108.377 17V9.66H107.977L108.177 7H111.097V8.06L111.817 7H112.137C113.164 7 113.897 7.22 114.337 7.66C114.791 8.1 115.017 8.83333 115.017 9.86V14.34H115.417L115.217 17H112.297V9.76C112.297 9.69333 112.264 9.66 112.197 9.66H111.097V17H108.377ZM118.264 6.4L118.984 4.28H121.124L120.404 6.4H118.264ZM116.224 14.3V9.86C116.224 8.83333 116.444 8.1 116.884 7.66C117.338 7.22 118.078 7 119.104 7H119.984C121.011 7 121.744 7.22 122.184 7.66C122.638 8.1 122.864 8.83333 122.864 9.86V13.32H118.944V14.4C118.944 14.4667 118.978 14.5 119.044 14.5H120.044C120.111 14.5 120.144 14.4667 120.144 14.4V13.74H122.864V14.3C122.864 15.3133 122.638 16.0467 122.184 16.5C121.744 16.94 121.011 17.16 119.984 17.16H119.104C118.078 17.16 117.338 16.94 116.884 16.5C116.444 16.06 116.224 15.3267 116.224 14.3ZM120.144 9.76C120.144 9.69333 120.111 9.66 120.044 9.66H119.044C118.978 9.66 118.944 9.69333 118.944 9.76V11.06H120.144V9.76ZM123.866 17V9.66H123.466L123.666 7H126.586V8.14L127.306 7H128.926V10.06H126.586V17H123.866ZM132.405 17C131.378 17 130.638 16.78 130.185 16.34C129.745 15.8867 129.525 15.1533 129.525 14.14V9.86C129.525 8.83333 129.738 8.1 130.165 7.66C130.605 7.22 131.325 7 132.325 7H132.505C132.852 7 133.165 7.06 133.445 7.18V7H136.165V14.34H136.365L136.565 17H133.445V15.94L132.725 17H132.405ZM132.345 9.66C132.278 9.66 132.245 9.69333 132.245 9.76V14.24C132.245 14.3067 132.278 14.34 132.345 14.34H133.445V9.66H132.345ZM137.482 17V5.66H137.162L137.362 3H140.202V14.34H140.602L140.802 17H137.482ZM70.4653 32.6V34.4C70.4653 34.4667 70.4986 34.5 70.5653 34.5H71.1453C71.212 34.5 71.2453 34.4667 71.2453 34.4L71.2653 31.74L69.0053 30.76C68.4986 30.5333 68.1586 30.3 67.9853 30.06C67.8253 29.82 67.7453 29.4533 67.7453 28.96V25.7C67.7453 24.6733 67.9653 23.94 68.4053 23.5C68.8453 23.06 69.5586 22.84 70.5453 22.84H71.3853C72.3186 22.88 72.9853 23.1267 73.3853 23.58C73.7853 24.02 73.9853 24.7267 73.9853 25.7V28.2L71.2653 27.9V25.6C71.2653 25.5333 71.232 25.5 71.1653 25.5H70.5653C70.4986 25.5 70.4653 25.5333 70.4653 25.6V28.54L72.7253 29.52C73.232 29.7333 73.5653 29.9667 73.7253 30.22C73.8986 30.46 73.9853 30.8267 73.9853 31.32V34.3C73.9853 35.2733 73.7853 35.9867 73.3853 36.44C72.9853 36.88 72.3186 37.12 71.3853 37.16H70.5853C69.572 37.16 68.8453 36.94 68.4053 36.5C67.9653 36.0467 67.7453 35.3133 67.7453 34.3V32.6H70.4653ZM74.6813 34.3V29.86C74.6813 28.8333 74.9013 28.1 75.3413 27.66C75.7946 27.22 76.5346 27 77.5613 27H78.4413C79.4679 27 80.2013 27.22 80.6413 27.66C81.0946 28.1 81.3213 28.8333 81.3213 29.86V31.72L78.6013 31.42V29.76C78.6013 29.6933 78.5679 29.66 78.5013 29.66H77.5013C77.4346 29.66 77.4013 29.6933 77.4013 29.76V34.4C77.4013 34.4667 77.4346 34.5 77.5013 34.5H78.5013C78.5679 34.5 78.6013 34.4667 78.6013 34.4V32.62H81.3213V34.3C81.3213 35.3133 81.0946 36.0467 80.6413 36.5C80.2013 36.94 79.4679 37.16 78.4413 37.16H77.5613C76.5346 37.16 75.7946 36.94 75.3413 36.5C74.9013 36.06 74.6813 35.3267 74.6813 34.3ZM82.345 26.2L82.545 23.54H85.065V26.2H82.345ZM82.345 37V29.66H82.025L82.225 27H85.065V37H82.345ZM85.8727 34.3V29.86C85.8727 28.8333 86.0927 28.1 86.5327 27.66C86.986 27.22 87.726 27 88.7527 27H89.6327C90.6593 27 91.3927 27.22 91.8327 27.66C92.286 28.1 92.5127 28.8333 92.5127 29.86V33.32H88.5927V34.4C88.5927 34.4667 88.626 34.5 88.6927 34.5H89.6927C89.7593 34.5 89.7927 34.4667 89.7927 34.4V33.74H92.5127V34.3C92.5127 35.3133 92.286 36.0467 91.8327 36.5C91.3927 36.94 90.6593 37.16 89.6327 37.16H88.7527C87.726 37.16 86.986 36.94 86.5327 36.5C86.0927 36.06 85.8727 35.3267 85.8727 34.3ZM89.7927 29.76C89.7927 29.6933 89.7593 29.66 89.6927 29.66H88.6927C88.626 29.66 88.5927 29.6933 88.5927 29.76V31.06H89.7927V29.76ZM93.5141 37V29.66H93.1141L93.3141 27H96.2341V28.06L96.9541 27H97.2741C98.3007 27 99.0341 27.22 99.4741 27.66C99.9274 28.1 100.154 28.8333 100.154 29.86V34.34H100.554L100.354 37H97.4341V29.76C97.4341 29.6933 97.4007 29.66 97.3341 29.66H96.2341V37H93.5141ZM105.43 34.34V37H103.47C102.91 37 102.457 36.8333 102.11 36.5C101.764 36.1533 101.59 35.7 101.59 35.14V29.46H100.77L100.97 27H101.59V25.66H101.17L101.37 23H104.29V27H105.23L105.03 29.46H104.29V34.34H105.43ZM106.349 26.2L106.549 23.54H109.069V26.2H106.349ZM106.349 37V29.66H106.029L106.229 27H109.069V37H106.349ZM109.677 29.46L109.877 27H110.497V24.86C110.497 24.3 110.67 23.8533 111.017 23.52C111.363 23.1733 111.817 23 112.377 23H114.337V25.66H113.217V27H114.137L113.937 29.46H113.217V37H110.497V29.46H109.677ZM115.158 26.2L115.358 23.54H117.878V26.2H115.158ZM115.158 37V29.66H114.838L115.038 27H117.878V37H115.158ZM121.563 37C120.536 37 119.796 36.78 119.343 36.34C118.903 35.8867 118.683 35.1533 118.683 34.14V29.86C118.683 28.8333 118.896 28.1 119.323 27.66C119.763 27.22 120.483 27 121.483 27H121.663C122.009 27 122.323 27.06 122.603 27.18V27H125.323V36.98H125.723L125.923 39.64H122.603V35.94L121.883 37H121.563ZM121.503 29.66C121.436 29.66 121.403 29.6933 121.403 29.76V34.24C121.403 34.3067 121.436 34.34 121.503 34.34H122.603V29.66H121.503ZM130.247 37V35.94L129.527 37H129.207C128.18 37 127.44 36.78 126.987 36.34C126.547 35.8867 126.327 35.1533 126.327 34.14V29.66H125.927L126.127 27H129.047V34.24C129.047 34.3067 129.08 34.34 129.147 34.34H130.247V27H132.967V34.34H133.167L133.367 37H130.247ZM133.959 34.3V29.86C133.959 28.8333 134.179 28.1 134.619 27.66C135.072 27.22 135.812 27 136.839 27H137.719C138.745 27 139.479 27.22 139.919 27.66C140.372 28.1 140.599 28.8333 140.599 29.86V33.32H136.679V34.4C136.679 34.4667 136.712 34.5 136.779 34.5H137.779C137.845 34.5 137.879 34.4667 137.879 34.4V33.74H140.599V34.3C140.599 35.3133 140.372 36.0467 139.919 36.5C139.479 36.94 138.745 37.16 137.719 37.16H136.839C135.812 37.16 135.072 36.94 134.619 36.5C134.179 36.06 133.959 35.3267 133.959 34.3ZM137.879 29.76C137.879 29.6933 137.845 29.66 137.779 29.66H136.779C136.712 29.66 136.679 29.6933 136.679 29.76V31.06H137.879V29.76Z" fill="#F3BB00"/>
<path d="M46.4853 57H43.3073V53.374C43.3073 52.982 43.424 52.6693 43.6573 52.436C43.9 52.1933 44.2033 52.072 44.5673 52.072H45.0853C45.132 52.072 45.1553 52.0487 45.1553 52.002V49.972C45.1553 49.9253 45.132 49.902 45.0853 49.902H43.3073V48.6H45.1693C45.5613 48.6 45.8787 48.7213 46.1213 48.964C46.364 49.1973 46.4853 49.51 46.4853 49.902V52.072C46.4853 52.464 46.364 52.7813 46.1213 53.024C45.8787 53.2573 45.5613 53.374 45.1693 53.374H44.7073C44.6607 53.374 44.6373 53.3973 44.6373 53.444V55.698H46.4853V57ZM49.0978 48.544C49.4804 48.544 49.7931 48.6653 50.0358 48.908C50.2878 49.1507 50.4138 49.4633 50.4138 49.846V55.698C50.4138 56.0713 50.2878 56.384 50.0358 56.636C49.7931 56.8787 49.4804 57 49.0978 57H48.3558C47.9731 57 47.6558 56.8787 47.4038 56.636C47.1611 56.384 47.0398 56.0713 47.0398 55.698V49.846C47.0398 49.4633 47.1611 49.1507 47.4038 48.908C47.6464 48.656 47.9638 48.5347 48.3558 48.544H49.0978ZM48.3418 55.628C48.3418 55.6747 48.3651 55.698 48.4118 55.698H49.0698C49.1164 55.698 49.1398 55.6747 49.1398 55.628V49.916C49.1398 49.8693 49.1164 49.846 49.0698 49.846H48.4398C48.3931 49.846 48.3698 49.8693 48.3698 49.916L48.3418 55.628ZM54.1553 57H50.9773V53.374C50.9773 52.982 51.0939 52.6693 51.3273 52.436C51.5699 52.1933 51.8733 52.072 52.2373 52.072H52.7553C52.8019 52.072 52.8253 52.0487 52.8253 52.002V49.972C52.8253 49.9253 52.8019 49.902 52.7553 49.902H50.9773V48.6H52.8393C53.2313 48.6 53.5486 48.7213 53.7913 48.964C54.0339 49.1973 54.1553 49.51 54.1553 49.902V52.072C54.1553 52.464 54.0339 52.7813 53.7913 53.024C53.5486 53.2573 53.2313 53.374 52.8393 53.374H52.3773C52.3306 53.374 52.3073 53.3973 52.3073 53.444V55.698H54.1553V57ZM56.7677 48.544C57.1504 48.544 57.463 48.6653 57.7057 48.908C57.9577 49.1507 58.0837 49.4633 58.0837 49.846V55.698C58.0837 56.0713 57.9577 56.384 57.7057 56.636C57.463 56.8787 57.1504 57 56.7677 57H56.0257C55.643 57 55.3257 56.8787 55.0737 56.636C54.831 56.384 54.7097 56.0713 54.7097 55.698V49.846C54.7097 49.4633 54.831 49.1507 55.0737 48.908C55.3164 48.656 55.6337 48.5347 56.0257 48.544H56.7677ZM56.0117 55.628C56.0117 55.6747 56.035 55.698 56.0817 55.698H56.7397C56.7864 55.698 56.8097 55.6747 56.8097 55.628V49.916C56.8097 49.8693 56.7864 49.846 56.7397 49.846H56.1097C56.063 49.846 56.0397 49.8693 56.0397 49.916L56.0117 55.628ZM61.1628 47.2H62.4928V58.4H61.1628V47.2ZM69.0932 55.698L68.9812 57H65.6352V48.502H65.4252L65.5652 47.2H66.9652V55.698H69.0932ZM71.067 57C70.6377 57 70.2924 56.8787 70.031 56.636C69.779 56.384 69.653 56.0713 69.653 55.698V51.302H69.443L69.583 50H70.983V55.698H71.795V50H73.125V57.658C73.125 58.022 72.999 58.3113 72.747 58.526C72.495 58.75 72.1824 58.862 71.809 58.862H70.969C70.577 58.862 70.2597 58.7407 70.017 58.498C69.7744 58.2647 69.653 57.952 69.653 57.56V57.28H70.983V57.658H71.795V56.454L71.445 57H71.067ZM73.7546 55.754V51.246C73.7546 50.854 73.8759 50.5413 74.1186 50.308C74.3613 50.0653 74.6786 49.944 75.0706 49.944H76.0786C76.4706 49.944 76.7879 50.0653 77.0306 50.308C77.2733 50.5413 77.3946 50.854 77.3946 51.246V53.094L76.0646 52.954V51.316C76.0646 51.2693 76.0413 51.246 75.9946 51.246H75.1546C75.1079 51.246 75.0846 51.2693 75.0846 51.316V55.684C75.0846 55.7307 75.1079 55.754 75.1546 55.754H75.9946C76.0413 55.754 76.0646 55.7353 76.0646 55.698V54.074H77.3946V55.754C77.3946 56.146 77.2733 56.4633 77.0306 56.706C76.7879 56.9393 76.4706 57.056 76.0786 57.056H75.0706C74.6786 57.056 74.3613 56.9393 74.1186 56.706C73.8759 56.4633 73.7546 56.146 73.7546 55.754ZM79.5199 48.348H80.6399L80.2619 49.468H79.1419L79.5199 48.348ZM77.9519 55.754V51.246C77.9519 50.854 78.0732 50.5413 78.3159 50.308C78.5585 50.0653 78.8759 49.944 79.2679 49.944H80.1359C80.5279 49.944 80.8452 50.0653 81.0879 50.308C81.3305 50.5413 81.4519 50.854 81.4519 51.246V52.968H80.1219V51.316C80.1219 51.2693 80.0985 51.246 80.0519 51.246H79.3519C79.3052 51.246 79.2819 51.2693 79.2819 51.316V52.968H81.4519V54.27H79.2819V55.684C79.2819 55.7307 79.3052 55.754 79.3519 55.754H80.0519C80.0985 55.754 80.1219 55.7353 80.1219 55.698V54.928H81.4519V55.754C81.4519 56.146 81.3305 56.4633 81.0879 56.706C80.8452 56.9393 80.5279 57.056 80.1359 57.056H79.2679C78.8759 57.056 78.5585 56.9393 78.3159 56.706C78.0732 56.4633 77.9519 56.146 77.9519 55.754ZM82.0124 55.754V51.246C82.0124 50.854 82.1338 50.5413 82.3764 50.308C82.6191 50.0653 82.9364 49.944 83.3284 49.944H84.1964C84.5884 49.944 84.9058 50.0653 85.1484 50.308C85.3911 50.5413 85.5124 50.854 85.5124 51.246V52.968H84.1824V51.316C84.1824 51.2693 84.1591 51.246 84.1124 51.246H83.4124C83.3658 51.246 83.3424 51.2693 83.3424 51.316V52.968H85.5124V54.27H83.3424V55.684C83.3424 55.7307 83.3658 55.754 83.4124 55.754H84.1124C84.1591 55.754 84.1824 55.7353 84.1824 55.698V54.928H85.5124V55.754C85.5124 56.146 85.3911 56.4633 85.1484 56.706C84.9058 56.9393 84.5884 57.056 84.1964 57.056H83.3284C82.9364 57.056 82.6191 56.9393 82.3764 56.706C82.1338 56.4633 82.0124 56.146 82.0124 55.754ZM88.6586 57V48.502H88.4486L88.5886 47.2H90.7726L91.4446 52.478L92.1306 47.2H94.2726V57H92.9426V49.384L91.9066 55.6H90.9966L89.9886 49.552V57H88.6586ZM96.319 57C95.8897 57 95.5443 56.8787 95.283 56.636C95.031 56.384 94.905 56.0713 94.905 55.698V51.302C94.905 50.9193 95.031 50.6067 95.283 50.364C95.5443 50.1213 95.8897 50 96.319 50H96.375C96.627 50 96.851 50.0607 97.047 50.182V50H98.377V55.698H98.573L98.713 57H97.047V56.454L96.697 57H96.319ZM96.305 51.302C96.2583 51.302 96.235 51.3253 96.235 51.372V55.628C96.235 55.6747 96.2583 55.698 96.305 55.698H97.047V51.302H96.305ZM100.656 50V50.616L101.034 50H101.972V51.358H100.656V57H99.3256V51.302H98.9896L99.1296 50H100.656ZM102.397 55.754V51.246C102.397 50.854 102.519 50.5413 102.761 50.308C103.004 50.0653 103.321 49.944 103.713 49.944H104.721C105.113 49.944 105.431 50.0653 105.673 50.308C105.916 50.5413 106.037 50.854 106.037 51.246V53.094L104.707 52.954V51.316C104.707 51.2693 104.684 51.246 104.637 51.246H103.797C103.751 51.246 103.727 51.2693 103.727 51.316V55.684C103.727 55.7307 103.751 55.754 103.797 55.754H104.637C104.684 55.754 104.707 55.7353 104.707 55.698V54.074H106.037V55.754C106.037 56.146 105.916 56.4633 105.673 56.706C105.431 56.9393 105.113 57.056 104.721 57.056H103.713C103.321 57.056 103.004 56.9393 102.761 56.706C102.519 56.4633 102.397 56.146 102.397 55.754ZM106.594 55.754V51.246C106.594 50.854 106.716 50.5413 106.958 50.308C107.201 50.0653 107.518 49.944 107.91 49.944H108.778C109.17 49.944 109.488 50.0653 109.73 50.308C109.973 50.5413 110.094 50.854 110.094 51.246V52.968H108.764V51.316C108.764 51.2693 108.741 51.246 108.694 51.246H107.994C107.948 51.246 107.924 51.2693 107.924 51.316V52.968H110.094V54.27H107.924V55.684C107.924 55.7307 107.948 55.754 107.994 55.754H108.694C108.741 55.754 108.764 55.7353 108.764 55.698V54.928H110.094V55.754C110.094 56.146 109.973 56.4633 109.73 56.706C109.488 56.9393 109.17 57.056 108.778 57.056H107.91C107.518 57.056 107.201 56.9393 106.958 56.706C106.716 56.4633 106.594 56.146 106.594 55.754ZM112.125 47.2L112.139 55.698H112.489L112.629 57H110.809L110.795 48.502H110.515L110.655 47.2H112.125ZM116.893 54.2V55.684C116.893 55.7307 116.917 55.754 116.963 55.754H117.523C117.57 55.754 117.593 55.7307 117.593 55.684V53.164L116.487 52.674C116.403 52.646 116.287 52.5993 116.137 52.534C115.988 52.4593 115.853 52.352 115.731 52.212C115.619 52.072 115.563 51.8807 115.563 51.638V48.446C115.563 48.054 115.685 47.7413 115.927 47.508C116.17 47.2653 116.487 47.144 116.879 47.144H117.607C117.999 47.144 118.317 47.2653 118.559 47.508C118.802 47.7413 118.923 48.054 118.923 48.446V50.518L117.593 50.406V48.516C117.593 48.4693 117.57 48.446 117.523 48.446H116.963C116.917 48.446 116.893 48.4693 116.893 48.516V51.442L117.999 51.932C118.083 51.9693 118.2 52.0207 118.349 52.086C118.499 52.1513 118.629 52.254 118.741 52.394C118.863 52.534 118.923 52.7253 118.923 52.968V55.754C118.923 56.146 118.802 56.4633 118.559 56.706C118.317 56.9393 117.999 57.056 117.607 57.056H116.879C116.487 57.056 116.17 56.9393 115.927 56.706C115.685 56.4633 115.563 56.146 115.563 55.754V54.2H116.893ZM119.487 55.754V51.246C119.487 50.854 119.608 50.5413 119.851 50.308C120.094 50.0653 120.411 49.944 120.803 49.944H121.671C122.063 49.944 122.38 50.0653 122.623 50.308C122.866 50.5413 122.987 50.854 122.987 51.246V52.968H121.657V51.316C121.657 51.2693 121.634 51.246 121.587 51.246H120.887C120.84 51.246 120.817 51.2693 120.817 51.316V52.968H122.987V54.27H120.817V55.684C120.817 55.7307 120.84 55.754 120.887 55.754H121.587C121.634 55.754 121.657 55.7353 121.657 55.698V54.928H122.987V55.754C122.987 56.146 122.866 56.4633 122.623 56.706C122.38 56.9393 122.063 57.056 121.671 57.056H120.803C120.411 57.056 120.094 56.9393 119.851 56.706C119.608 56.4633 119.487 56.146 119.487 55.754ZM127.216 57H125.886V51.372C125.886 51.3253 125.862 51.302 125.816 51.302H125.074V57H123.744V51.302H123.408L123.548 50H125.074V50.546L125.424 50H125.802C126.11 50 126.376 50.0653 126.6 50.196C126.824 50.3267 126.987 50.504 127.09 50.728L127.566 50H127.944C128.373 50 128.714 50.1213 128.966 50.364C129.227 50.6067 129.358 50.9193 129.358 51.302V55.698H129.694L129.554 57H128.028V51.372C128.028 51.3253 128.004 51.302 127.958 51.302H127.216V57ZM130.169 57V48.502H129.833L129.973 47.2H131.499V50.546L131.849 50H132.227C132.657 50 132.997 50.1213 133.249 50.364C133.511 50.6067 133.641 50.9193 133.641 51.302V55.698C133.641 56.0713 133.511 56.384 133.249 56.636C132.997 56.8787 132.657 57 132.227 57H132.171C131.919 57 131.695 56.9393 131.499 56.818V57H130.169ZM132.241 51.302H131.499V55.698H132.241C132.288 55.698 132.311 55.6747 132.311 55.628V51.372C132.311 51.3253 132.288 51.302 132.241 51.302ZM135.612 57C135.183 57 134.837 56.8787 134.576 56.636C134.324 56.384 134.198 56.0713 134.198 55.698V51.302C134.198 50.9193 134.324 50.6067 134.576 50.364C134.837 50.1213 135.183 50 135.612 50H135.668C135.92 50 136.144 50.0607 136.34 50.182V50H137.67V55.698H137.866L138.006 57H136.34V56.454L135.99 57H135.612ZM135.598 51.302C135.551 51.302 135.528 51.3253 135.528 51.372V55.628C135.528 55.6747 135.551 55.698 135.598 55.698H136.34V51.302H135.598ZM140.862 55.698V57H140.05C139.658 57 139.341 56.8833 139.098 56.65C138.855 56.4073 138.734 56.09 138.734 55.698V51.302H138.146L138.258 50H138.734V48.502H138.384L138.496 47.2H140.064V50H140.862L140.75 51.302H140.064V55.698H140.862Z" fill="black" fill-opacity="0.56"/>
<line x1="181" y1="137.5" x2="166" y2="137.5" stroke="#BD3100"/>
<line x1="164" y1="226.5" x2="149" y2="226.5" stroke="#BD3100"/>
<path d="M185.78 120.02V108.68H185.4L185.68 106.02H188.5V117.34H192.32L192.16 120H188.5V120.02H185.78ZM193.195 120V117.34H193.815V110.66H193.115L193.555 108H196.535V117.34H197.175V120H193.195ZM201.852 120V108.66H201.472L201.752 106H205.572C206.599 106 207.332 106.227 207.772 106.68C208.225 107.12 208.452 107.847 208.452 108.86V111.48C208.452 111.88 208.419 112.233 208.352 112.54C208.685 112.98 208.852 113.647 208.852 114.54V117.14C208.852 118.153 208.625 118.887 208.172 119.34C207.732 119.78 206.999 120 205.972 120H201.852ZM205.632 111.68C205.699 111.68 205.732 111.647 205.732 111.58V108.76C205.732 108.693 205.699 108.66 205.632 108.66H204.572V111.68H205.632ZM206.132 114.44C206.132 114.373 206.099 114.34 206.032 114.34H204.572V117.34H206.032C206.099 117.34 206.132 117.307 206.132 117.24V114.44ZM209.88 109.2L210.08 106.54H212.6V109.2H209.88ZM209.88 120V112.66H209.56L209.76 110H212.6V120H209.88ZM217.425 112.76C217.425 112.693 217.392 112.66 217.325 112.66H216.325C216.259 112.66 216.225 112.693 216.225 112.76V117.4C216.225 117.467 216.259 117.5 216.325 117.5H217.325C217.392 117.5 217.425 117.467 217.425 117.4V112.76ZM213.505 117.3V112.86C213.505 111.833 213.725 111.1 214.165 110.66C214.619 110.22 215.359 110 216.385 110H217.265C218.292 110 219.025 110.22 219.465 110.66C219.919 111.1 220.145 111.833 220.145 112.86V117.3C220.145 118.313 219.919 119.047 219.465 119.5C219.025 119.94 218.292 120.16 217.265 120.16H216.385C215.359 120.16 214.619 119.94 214.165 119.5C213.725 119.06 213.505 118.327 213.505 117.3ZM221.169 120V108.66H220.849L221.049 106H223.889V117.34H224.289L224.489 120H221.169ZM228.91 112.76C228.91 112.693 228.877 112.66 228.81 112.66H227.81C227.743 112.66 227.71 112.693 227.71 112.76V117.4C227.71 117.467 227.743 117.5 227.81 117.5H228.81C228.877 117.5 228.91 117.467 228.91 117.4V112.76ZM224.99 117.3V112.86C224.99 111.833 225.21 111.1 225.65 110.66C226.103 110.22 226.843 110 227.87 110H228.75C229.777 110 230.51 110.22 230.95 110.66C231.403 111.1 231.63 111.833 231.63 112.86V117.3C231.63 118.313 231.403 119.047 230.95 119.5C230.51 119.94 229.777 120.16 228.75 120.16H227.87C226.843 120.16 226.103 119.94 225.65 119.5C225.21 119.06 224.99 118.327 224.99 117.3ZM235.151 120.26V120.68C235.151 120.747 235.185 120.78 235.251 120.78H236.251C236.318 120.78 236.351 120.747 236.351 120.68V119.24L235.831 120H235.311C234.285 120 233.545 119.78 233.091 119.34C232.651 118.887 232.431 118.153 232.431 117.14V112.86C232.431 111.833 232.645 111.1 233.071 110.66C233.511 110.22 234.231 110 235.231 110H235.411C235.758 110 236.071 110.06 236.351 110.18V110H239.071V120.18C239.071 121.193 238.845 121.92 238.391 122.36C237.951 122.813 237.218 123.04 236.191 123.04H235.311C234.325 123.04 233.598 122.813 233.131 122.36C232.665 121.907 232.431 121.213 232.431 120.28V120.26H235.151ZM235.251 112.66C235.185 112.66 235.151 112.693 235.151 112.76V117.24C235.151 117.307 235.185 117.34 235.251 117.34H236.351V112.66H235.251ZM240.095 109.2L240.295 106.54H242.815V109.2H240.095ZM240.095 120V112.66H239.775L239.975 110H242.815V120H240.095ZM243.623 117.3V112.86C243.623 111.833 243.843 111.1 244.283 110.66C244.736 110.22 245.476 110 246.503 110H247.383C248.409 110 249.143 110.22 249.583 110.66C250.036 111.1 250.263 111.833 250.263 112.86V116.32H246.343V117.4C246.343 117.467 246.376 117.5 246.443 117.5H247.443C247.509 117.5 247.543 117.467 247.543 117.4V116.74H250.263V117.3C250.263 118.313 250.036 119.047 249.583 119.5C249.143 119.94 248.409 120.16 247.383 120.16H246.503C245.476 120.16 244.736 119.94 244.283 119.5C243.843 119.06 243.623 118.327 243.623 117.3ZM247.543 112.76C247.543 112.693 247.509 112.66 247.443 112.66H246.443C246.376 112.66 246.343 112.693 246.343 112.76V114.06H247.543V112.76Z" fill="#F3BB00"/>
<path d="M188.458 140H185.28V136.374C185.28 135.982 185.397 135.669 185.63 135.436C185.873 135.193 186.176 135.072 186.54 135.072H187.058C187.105 135.072 187.128 135.049 187.128 135.002V132.972C187.128 132.925 187.105 132.902 187.058 132.902H185.28V131.6H187.142C187.534 131.6 187.851 131.721 188.094 131.964C188.337 132.197 188.458 132.51 188.458 132.902V135.072C188.458 135.464 188.337 135.781 188.094 136.024C187.851 136.257 187.534 136.374 187.142 136.374H186.68C186.633 136.374 186.61 136.397 186.61 136.444V138.698H188.458V140ZM191.07 131.544C191.453 131.544 191.766 131.665 192.008 131.908C192.26 132.151 192.386 132.463 192.386 132.846V138.698C192.386 139.071 192.26 139.384 192.008 139.636C191.766 139.879 191.453 140 191.07 140H190.328C189.946 140 189.628 139.879 189.376 139.636C189.134 139.384 189.012 139.071 189.012 138.698V132.846C189.012 132.463 189.134 132.151 189.376 131.908C189.619 131.656 189.936 131.535 190.328 131.544H191.07ZM190.314 138.628C190.314 138.675 190.338 138.698 190.384 138.698H191.042C191.089 138.698 191.112 138.675 191.112 138.628V132.916C191.112 132.869 191.089 132.846 191.042 132.846H190.412C190.366 132.846 190.342 132.869 190.342 132.916L190.314 138.628ZM196.128 140H192.95V136.374C192.95 135.982 193.067 135.669 193.3 135.436C193.543 135.193 193.846 135.072 194.21 135.072H194.728C194.775 135.072 194.798 135.049 194.798 135.002V132.972C194.798 132.925 194.775 132.902 194.728 132.902H192.95V131.6H194.812C195.204 131.6 195.521 131.721 195.764 131.964C196.007 132.197 196.128 132.51 196.128 132.902V135.072C196.128 135.464 196.007 135.781 195.764 136.024C195.521 136.257 195.204 136.374 194.812 136.374H194.35C194.303 136.374 194.28 136.397 194.28 136.444V138.698H196.128V140ZM198.922 138.698V140H196.71V138.698H197.186V132.902H196.682L196.962 131.6H198.516V138.698H198.922ZM202.145 135.114V136.444H199.485V135.114H202.145ZM205.89 140H202.712V136.374C202.712 135.982 202.828 135.669 203.062 135.436C203.304 135.193 203.608 135.072 203.972 135.072H204.49C204.536 135.072 204.56 135.049 204.56 135.002V132.972C204.56 132.925 204.536 132.902 204.49 132.902H202.712V131.6H204.574C204.966 131.6 205.283 131.721 205.526 131.964C205.768 132.197 205.89 132.51 205.89 132.902V135.072C205.89 135.464 205.768 135.781 205.526 136.024C205.283 136.257 204.966 136.374 204.574 136.374H204.112C204.065 136.374 204.042 136.397 204.042 136.444V138.698H205.89V140ZM208.502 131.544C208.885 131.544 209.197 131.665 209.44 131.908C209.692 132.151 209.818 132.463 209.818 132.846V138.698C209.818 139.071 209.692 139.384 209.44 139.636C209.197 139.879 208.885 140 208.502 140H207.76C207.377 140 207.06 139.879 206.808 139.636C206.565 139.384 206.444 139.071 206.444 138.698V132.846C206.444 132.463 206.565 132.151 206.808 131.908C207.051 131.656 207.368 131.535 207.76 131.544H208.502ZM207.746 138.628C207.746 138.675 207.769 138.698 207.816 138.698H208.474C208.521 138.698 208.544 138.675 208.544 138.628V132.916C208.544 132.869 208.521 132.846 208.474 132.846H207.844C207.797 132.846 207.774 132.869 207.774 132.916L207.746 138.628ZM213.56 140H210.382V136.374C210.382 135.982 210.498 135.669 210.732 135.436C210.974 135.193 211.278 135.072 211.642 135.072H212.16C212.206 135.072 212.23 135.049 212.23 135.002V132.972C212.23 132.925 212.206 132.902 212.16 132.902H210.382V131.6H212.244C212.636 131.6 212.953 131.721 213.196 131.964C213.438 132.197 213.56 132.51 213.56 132.902V135.072C213.56 135.464 213.438 135.781 213.196 136.024C212.953 136.257 212.636 136.374 212.244 136.374H211.782C211.735 136.374 211.712 136.397 211.712 136.444V138.698H213.56V140ZM217.292 140H214.114V136.374C214.114 135.982 214.231 135.669 214.464 135.436C214.707 135.193 215.01 135.072 215.374 135.072H215.892C215.939 135.072 215.962 135.049 215.962 135.002V132.972C215.962 132.925 215.939 132.902 215.892 132.902H214.114V131.6H215.976C216.368 131.6 216.685 131.721 216.928 131.964C217.171 132.197 217.292 132.51 217.292 132.902V135.072C217.292 135.464 217.171 135.781 216.928 136.024C216.685 136.257 216.368 136.374 215.976 136.374H215.514C215.467 136.374 215.444 136.397 215.444 136.444V138.698H217.292V140ZM220.362 130.2H221.692V141.4H220.362V130.2ZM228.334 138.754C228.334 139.146 228.213 139.463 227.97 139.706C227.728 139.939 227.41 140.056 227.018 140.056H226.15C225.758 140.056 225.441 139.939 225.198 139.706C224.956 139.463 224.834 139.146 224.834 138.754V131.502H224.624L224.764 130.2H226.164V138.684C226.164 138.731 226.188 138.754 226.234 138.754H226.934C226.981 138.754 227.004 138.731 227.004 138.684V130.228H228.334V138.754ZM229.089 140V134.302H228.753L228.893 133H230.419V133.546L230.769 133H231.147C231.577 133 231.917 133.121 232.169 133.364C232.431 133.607 232.561 133.919 232.561 134.302V138.698H232.911L232.771 140H231.231V134.372C231.231 134.325 231.208 134.302 231.161 134.302H230.419V140H229.089ZM234.528 131.138L234.668 132.44H233.338V131.138H234.528ZM234.668 133V140H233.338V134.302H233.128L233.268 133H234.668ZM235.083 133H236.315L237.099 137.522L237.883 133H239.115L237.771 140H236.427L235.083 133ZM239.462 138.754V134.246C239.462 133.854 239.583 133.541 239.826 133.308C240.068 133.065 240.386 132.944 240.778 132.944H241.646C242.038 132.944 242.355 133.065 242.598 133.308C242.84 133.541 242.962 133.854 242.962 134.246V135.968H241.632V134.316C241.632 134.269 241.608 134.246 241.562 134.246H240.862C240.815 134.246 240.792 134.269 240.792 134.316V135.968H242.962V137.27H240.792V138.684C240.792 138.731 240.815 138.754 240.862 138.754H241.562C241.608 138.754 241.632 138.735 241.632 138.698V137.928H242.962V138.754C242.962 139.146 242.84 139.463 242.598 139.706C242.355 139.939 242.038 140.056 241.646 140.056H240.778C240.386 140.056 240.068 139.939 239.826 139.706C239.583 139.463 239.462 139.146 239.462 138.754ZM245.117 133V133.616L245.495 133H246.433V134.358H245.117V140H243.787V134.302H243.451L243.591 133H245.117ZM246.858 137.802L248.188 137.942V138.628C248.188 138.675 248.211 138.698 248.258 138.698H248.818C248.865 138.698 248.888 138.675 248.888 138.628V137.326L247.642 136.794C247.493 136.729 247.325 136.626 247.138 136.486C246.951 136.346 246.858 136.117 246.858 135.8V134.246C246.858 133.854 246.979 133.541 247.222 133.308C247.465 133.065 247.782 132.944 248.174 132.944H248.902C249.294 132.944 249.611 133.065 249.854 133.308C250.097 133.541 250.218 133.854 250.218 134.246V135.142L248.888 135.002V134.316C248.888 134.269 248.865 134.246 248.818 134.246H248.258C248.211 134.246 248.188 134.269 248.188 134.316V135.618L249.434 136.15C249.583 136.215 249.751 136.318 249.938 136.458C250.125 136.598 250.218 136.827 250.218 137.144V138.698C250.218 139.09 250.097 139.407 249.854 139.65C249.611 139.883 249.294 140 248.902 140H248.174C247.782 140 247.465 139.883 247.222 139.65C246.979 139.407 246.858 139.09 246.858 138.698V137.802ZM252.042 131.138L252.182 132.44H250.852V131.138H252.042ZM252.182 133V140H250.852V134.302H250.642L250.782 133H252.182ZM255.313 138.698V140H254.501C254.109 140 253.792 139.883 253.549 139.65C253.306 139.407 253.185 139.09 253.185 138.698V134.302H252.597L252.709 133H253.185V131.502H252.835L252.947 130.2H254.515V133H255.313L255.201 134.302H254.515V138.698H255.313ZM257.299 131.348H258.419L258.041 132.468H256.921L257.299 131.348ZM255.731 138.754V134.246C255.731 133.854 255.853 133.541 256.095 133.308C256.338 133.065 256.655 132.944 257.047 132.944H257.915C258.307 132.944 258.625 133.065 258.867 133.308C259.11 133.541 259.231 133.854 259.231 134.246V135.968H257.901V134.316C257.901 134.269 257.878 134.246 257.831 134.246H257.131C257.085 134.246 257.061 134.269 257.061 134.316V135.968H259.231V137.27H257.061V138.684C257.061 138.731 257.085 138.754 257.131 138.754H257.831C257.878 138.754 257.901 138.735 257.901 138.698V137.928H259.231V138.754C259.231 139.146 259.11 139.463 258.867 139.706C258.625 139.939 258.307 140.056 257.915 140.056H257.047C256.655 140.056 256.338 139.939 256.095 139.706C255.853 139.463 255.731 139.146 255.731 138.754ZM265.835 138.698L265.723 140H262.377V131.502H262.167L262.307 130.2H263.707V138.698H265.835ZM267.809 140C267.38 140 267.035 139.879 266.773 139.636C266.521 139.384 266.395 139.071 266.395 138.698V134.302H266.185L266.325 133H267.725V138.698H268.537V133H269.867V140.658C269.867 141.022 269.741 141.311 269.489 141.526C269.237 141.75 268.925 141.862 268.551 141.862H267.711C267.319 141.862 267.002 141.741 266.759 141.498C266.517 141.265 266.395 140.952 266.395 140.56V140.28H267.725V140.658H268.537V139.454L268.187 140H267.809ZM272.807 134.316C272.807 134.269 272.783 134.246 272.737 134.246H271.897C271.85 134.246 271.827 134.269 271.827 134.316V138.684C271.827 138.731 271.85 138.754 271.897 138.754H272.737C272.783 138.754 272.807 138.735 272.807 138.698V134.316ZM270.497 138.754V134.246C270.497 133.854 270.618 133.541 270.861 133.308C271.103 133.065 271.421 132.944 271.813 132.944H272.821C273.213 132.944 273.53 133.065 273.773 133.308C274.015 133.541 274.137 133.854 274.137 134.246V138.754C274.137 139.146 274.015 139.463 273.773 139.706C273.53 139.939 273.213 140.056 272.821 140.056H271.813C271.421 140.056 271.103 139.939 270.861 139.706C270.618 139.463 270.497 139.146 270.497 138.754ZM274.89 140V134.302H274.554L274.694 133H276.22V133.546L276.57 133H276.948C277.377 133 277.718 133.121 277.97 133.364C278.231 133.607 278.362 133.919 278.362 134.302V138.698H278.712L278.572 140H277.032V134.372C277.032 134.325 277.009 134.302 276.962 134.302H276.22V140H274.89ZM283.893 138.698V140H281.681V138.698H282.157V132.902H281.653L281.933 131.6H283.487V138.698H283.893ZM290.499 138.698L290.387 140H287.041V131.502H286.831L286.971 130.2H288.371V138.698H290.499ZM292.473 140C292.044 140 291.699 139.879 291.437 139.636C291.185 139.384 291.059 139.071 291.059 138.698V134.302C291.059 133.919 291.185 133.607 291.437 133.364C291.699 133.121 292.044 133 292.473 133H292.529C292.781 133 293.005 133.061 293.201 133.182V133H294.531V138.698H294.727L294.867 140H293.201V139.454L292.851 140H292.473ZM292.459 134.302C292.413 134.302 292.389 134.325 292.389 134.372V138.628C292.389 138.675 292.413 138.698 292.459 138.698H293.201V134.302H292.459ZM299.214 140C298.784 140 298.439 139.879 298.178 139.636C297.926 139.384 297.8 139.071 297.8 138.698V134.302C297.8 133.919 297.926 133.607 298.178 133.364C298.439 133.121 298.784 133 299.214 133H299.27C299.522 133 299.746 133.061 299.942 133.182V131.502H299.606L299.746 130.2H301.272V138.698H301.468L301.608 140H299.942V139.454L299.592 140H299.214ZM299.2 134.302C299.153 134.302 299.13 134.325 299.13 134.372V138.628C299.13 138.675 299.153 138.698 299.2 138.698H299.942V134.302H299.2ZM304.197 134.316C304.197 134.269 304.174 134.246 304.127 134.246H303.287C303.241 134.246 303.217 134.269 303.217 134.316V138.684C303.217 138.731 303.241 138.754 303.287 138.754H304.127C304.174 138.754 304.197 138.735 304.197 138.698V134.316ZM301.887 138.754V134.246C301.887 133.854 302.009 133.541 302.251 133.308C302.494 133.065 302.811 132.944 303.203 132.944H304.211C304.603 132.944 304.921 133.065 305.163 133.308C305.406 133.541 305.527 133.854 305.527 134.246V138.754C305.527 139.146 305.406 139.463 305.163 139.706C304.921 139.939 304.603 140.056 304.211 140.056H303.203C302.811 140.056 302.494 139.939 302.251 139.706C302.009 139.463 301.887 139.146 301.887 138.754ZM308.354 138.698V133H309.684V138.698H309.894L310.034 140H308.354V139.454L308.004 140H307.626C307.197 140 306.852 139.879 306.59 139.636C306.338 139.384 306.212 139.071 306.212 138.698V134.302H305.876L306.016 133H307.542V138.628C307.542 138.675 307.566 138.698 307.612 138.698H308.354ZM311.723 140C311.294 140 310.949 139.879 310.687 139.636C310.435 139.384 310.309 139.071 310.309 138.698V134.302C310.309 133.919 310.435 133.607 310.687 133.364C310.949 133.121 311.294 133 311.723 133H311.779C312.031 133 312.255 133.061 312.451 133.182V133H313.781V138.698H313.977L314.117 140H312.451V139.454L312.101 140H311.723ZM311.709 134.302C311.663 134.302 311.639 134.325 311.639 134.372V138.628C311.639 138.675 311.663 138.698 311.709 138.698H312.451V134.302H311.709ZM188.92 158.698C188.92 159.09 188.799 159.407 188.556 159.65C188.313 159.883 187.996 160 187.604 160H186.596C186.204 160 185.887 159.883 185.644 159.65C185.401 159.407 185.28 159.09 185.28 158.698V151.502C185.28 151.11 185.401 150.797 185.644 150.564C185.887 150.321 186.204 150.2 186.596 150.2H187.604C187.996 150.2 188.313 150.321 188.556 150.564C188.799 150.797 188.92 151.11 188.92 151.502V153.742H187.59V151.572C187.59 151.525 187.567 151.502 187.52 151.502H186.68C186.633 151.502 186.61 151.525 186.61 151.572V158.628C186.61 158.675 186.633 158.698 186.68 158.698H187.52C187.567 158.698 187.59 158.675 187.59 158.628V155.73H187.044L187.156 154.428H188.92V158.698ZM190.891 160C190.462 160 190.117 159.879 189.855 159.636C189.603 159.384 189.477 159.071 189.477 158.698V154.302C189.477 153.919 189.603 153.607 189.855 153.364C190.117 153.121 190.462 153 190.891 153H190.947C191.199 153 191.423 153.061 191.619 153.182V153H192.949V158.698H193.145L193.285 160H191.619V159.454L191.269 160H190.891ZM190.877 154.302C190.831 154.302 190.807 154.325 190.807 154.372V158.628C190.807 158.675 190.831 158.698 190.877 158.698H191.619V154.302H190.877ZM193.634 157.802L194.964 157.942V158.628C194.964 158.675 194.987 158.698 195.034 158.698H195.594C195.64 158.698 195.664 158.675 195.664 158.628V157.326L194.418 156.794C194.268 156.729 194.1 156.626 193.914 156.486C193.727 156.346 193.634 156.117 193.634 155.8V154.246C193.634 153.854 193.755 153.541 193.998 153.308C194.24 153.065 194.558 152.944 194.95 152.944H195.678C196.07 152.944 196.387 153.065 196.63 153.308C196.872 153.541 196.994 153.854 196.994 154.246V155.142L195.664 155.002V154.316C195.664 154.269 195.64 154.246 195.594 154.246H195.034C194.987 154.246 194.964 154.269 194.964 154.316V155.618L196.21 156.15C196.359 156.215 196.527 156.318 196.714 156.458C196.9 156.598 196.994 156.827 196.994 157.144V158.698C196.994 159.09 196.872 159.407 196.63 159.65C196.387 159.883 196.07 160 195.678 160H194.95C194.558 160 194.24 159.883 193.998 159.65C193.755 159.407 193.634 159.09 193.634 158.698V157.802ZM200.133 158.698V160H199.321C198.929 160 198.612 159.883 198.369 159.65C198.127 159.407 198.005 159.09 198.005 158.698V154.302H197.417L197.529 153H198.005V151.502H197.655L197.767 150.2H199.335V153H200.133L200.021 154.302H199.335V158.698H200.133ZM202.793 154.316C202.793 154.269 202.77 154.246 202.723 154.246H201.883C201.836 154.246 201.813 154.269 201.813 154.316V158.684C201.813 158.731 201.836 158.754 201.883 158.754H202.723C202.77 158.754 202.793 158.735 202.793 158.698V154.316ZM200.483 158.754V154.246C200.483 153.854 200.604 153.541 200.847 153.308C201.09 153.065 201.407 152.944 201.799 152.944H202.807C203.199 152.944 203.516 153.065 203.759 153.308C204.002 153.541 204.123 153.854 204.123 154.246V158.754C204.123 159.146 204.002 159.463 203.759 159.706C203.516 159.939 203.199 160.056 202.807 160.056H201.799C201.407 160.056 201.09 159.939 200.847 159.706C200.604 159.463 200.483 159.146 200.483 158.754ZM204.876 160V154.302H204.54L204.68 153H206.206V153.546L206.556 153H206.934C207.364 153 207.704 153.121 207.956 153.364C208.218 153.607 208.348 153.919 208.348 154.302V158.698H208.698L208.558 160H207.018V154.372C207.018 154.325 206.995 154.302 206.948 154.302H206.206V160H204.876ZM211.639 160.098V151.502H211.429L211.569 150.2H213.781C214.173 150.2 214.491 150.321 214.733 150.564C214.976 150.797 215.097 151.11 215.097 151.502V154.442C215.097 154.573 215.079 154.699 215.041 154.82C215.265 155.063 215.377 155.371 215.377 155.744V158.796C215.377 159.188 215.228 159.505 214.929 159.748C214.64 159.981 214.299 160.098 213.907 160.098H211.639ZM213.697 151.502H212.969V154.442H213.697C213.744 154.442 213.767 154.419 213.767 154.372V151.572C213.767 151.525 213.744 151.502 213.697 151.502ZM213.977 155.744H212.969V158.796H213.977C214.024 158.796 214.047 158.773 214.047 158.726V155.814C214.047 155.767 214.024 155.744 213.977 155.744ZM215.932 158.754V154.246C215.932 153.854 216.054 153.541 216.296 153.308C216.539 153.065 216.856 152.944 217.248 152.944H218.116C218.508 152.944 218.826 153.065 219.068 153.308C219.311 153.541 219.432 153.854 219.432 154.246V155.968H218.102V154.316C218.102 154.269 218.079 154.246 218.032 154.246H217.332C217.286 154.246 217.262 154.269 217.262 154.316V155.968H219.432V157.27H217.262V158.684C217.262 158.731 217.286 158.754 217.332 158.754H218.032C218.079 158.754 218.102 158.735 218.102 158.698V157.928H219.432V158.754C219.432 159.146 219.311 159.463 219.068 159.706C218.826 159.939 218.508 160.056 218.116 160.056H217.248C216.856 160.056 216.539 159.939 216.296 159.706C216.054 159.463 215.932 159.146 215.932 158.754ZM221.587 153V153.616L221.965 153H222.903V154.358H221.587V160H220.257V154.302H219.921L220.061 153H221.587ZM224.587 160.28V160.588C224.587 160.635 224.611 160.658 224.657 160.658H225.329C225.376 160.658 225.399 160.635 225.399 160.588V159.454L225.049 160H224.671C224.242 160 223.897 159.879 223.635 159.636C223.383 159.384 223.257 159.071 223.257 158.698V154.302C223.257 153.919 223.383 153.607 223.635 153.364C223.897 153.121 224.242 153 224.671 153H224.727C224.979 153 225.203 153.061 225.399 153.182V153H226.729V160.56C226.729 160.952 226.608 161.265 226.365 161.498C226.123 161.741 225.805 161.862 225.413 161.862H224.573C224.181 161.862 223.864 161.741 223.621 161.498C223.379 161.265 223.257 160.952 223.257 160.56V160.28H224.587ZM224.657 154.302C224.611 154.302 224.587 154.325 224.587 154.372V158.628C224.587 158.675 224.611 158.698 224.657 158.698H225.399V154.302H224.657ZM227.28 158.754V154.246C227.28 153.854 227.401 153.541 227.644 153.308C227.887 153.065 228.204 152.944 228.596 152.944H229.464C229.856 152.944 230.173 153.065 230.416 153.308C230.659 153.541 230.78 153.854 230.78 154.246V155.968H229.45V154.316C229.45 154.269 229.427 154.246 229.38 154.246H228.68C228.633 154.246 228.61 154.269 228.61 154.316V155.968H230.78V157.27H228.61V158.684C228.61 158.731 228.633 158.754 228.68 158.754H229.38C229.427 158.754 229.45 158.735 229.45 158.698V157.928H230.78V158.754C230.78 159.146 230.659 159.463 230.416 159.706C230.173 159.939 229.856 160.056 229.464 160.056H228.596C228.204 160.056 227.887 159.939 227.644 159.706C227.401 159.463 227.28 159.146 227.28 158.754ZM232.935 153V153.616L233.313 153H234.251V154.358H232.935V160H231.605V154.302H231.269L231.409 153H232.935Z" fill="black" fill-opacity="0.56"/>
<line x1="181" y1="315.5" x2="166" y2="315.5" stroke="#BD3100"/>
<path d="M192.04 303.2V306.3C192.04 307.313 191.813 308.047 191.36 308.5C190.92 308.94 190.187 309.16 189.16 309.16H188.28C187.253 309.16 186.513 308.94 186.06 308.5C185.62 308.047 185.4 307.313 185.4 306.3V297.7C185.4 296.673 185.62 295.94 186.06 295.5C186.513 295.06 187.253 294.84 188.28 294.84H189.16C190.187 294.84 190.92 295.06 191.36 295.5C191.813 295.94 192.04 296.673 192.04 297.7V301L189.32 300.7V297.6C189.32 297.533 189.287 297.5 189.22 297.5H188.22C188.153 297.5 188.12 297.533 188.12 297.6V306.4C188.12 306.467 188.153 306.5 188.22 306.5H189.22C189.287 306.5 189.32 306.467 189.32 306.4V303.2H192.04ZM193.041 309V297.66H192.641L192.841 295H195.761V300.06L196.481 299H196.801C197.828 299 198.561 299.22 199.001 299.66C199.455 300.1 199.681 300.833 199.681 301.86V306.34H200.081L199.881 309H196.961V301.76C196.961 301.693 196.928 301.66 196.861 301.66H195.761V309H193.041ZM200.673 306.3V301.86C200.673 300.833 200.893 300.1 201.333 299.66C201.787 299.22 202.527 299 203.553 299H204.433C205.46 299 206.193 299.22 206.633 299.66C207.087 300.1 207.313 300.833 207.313 301.86V305.32H203.393V306.4C203.393 306.467 203.427 306.5 203.493 306.5H204.493C204.56 306.5 204.593 306.467 204.593 306.4V305.74H207.313V306.3C207.313 307.313 207.087 308.047 206.633 308.5C206.193 308.94 205.46 309.16 204.433 309.16H203.553C202.527 309.16 201.787 308.94 201.333 308.5C200.893 308.06 200.673 307.327 200.673 306.3ZM204.593 301.76C204.593 301.693 204.56 301.66 204.493 301.66H203.493C203.427 301.66 203.393 301.693 203.393 301.76V303.06H204.593V301.76ZM208.115 309V306.74C208.115 306.58 208.135 306.42 208.175 306.26C208.215 306.087 208.275 305.94 208.355 305.82L211.015 301.68H208.115L208.315 299.02H213.955V301.28C213.955 301.44 213.935 301.607 213.895 301.78C213.855 301.94 213.795 302.08 213.715 302.2L211.055 306.34H213.955L213.755 309H208.115ZM220.269 309L218.349 299H220.669L221.629 304.54L222.589 299H224.909L222.989 309H220.269ZM229.34 301.76C229.34 301.693 229.306 301.66 229.24 301.66H228.24C228.173 301.66 228.14 301.693 228.14 301.76V306.4C228.14 306.467 228.173 306.5 228.24 306.5H229.24C229.306 306.5 229.34 306.467 229.34 306.4V301.76ZM225.42 306.3V301.86C225.42 300.833 225.64 300.1 226.08 299.66C226.533 299.22 227.273 299 228.3 299H229.18C230.206 299 230.94 299.22 231.38 299.66C231.833 300.1 232.06 300.833 232.06 301.86V306.3C232.06 307.313 231.833 308.047 231.38 308.5C230.94 308.94 230.206 309.16 229.18 309.16H228.3C227.273 309.16 226.533 308.94 226.08 308.5C225.64 308.06 225.42 307.327 225.42 306.3ZM236.981 309V307.94L236.261 309H235.941C234.914 309 234.174 308.78 233.721 308.34C233.281 307.887 233.061 307.153 233.061 306.14V301.66H232.661L232.861 299H235.781V306.24C235.781 306.307 235.814 306.34 235.881 306.34H236.981V299H239.701V306.34H239.901L240.101 309H236.981ZM240.693 305.2L243.413 305.4V306.24C243.413 306.307 243.446 306.34 243.513 306.34H244.713C244.78 306.34 244.813 306.307 244.813 306.24V305.64L241.813 304.54C241.6 304.473 241.36 304.333 241.093 304.12C240.826 303.907 240.693 303.573 240.693 303.12V300.78C240.693 300.207 240.866 299.753 241.213 299.42C241.56 299.087 242.013 298.92 242.573 298.92H244.653C245.68 298.92 246.413 299.14 246.853 299.58C247.306 300.02 247.533 300.753 247.533 301.78V302.72L244.813 302.52V301.68C244.813 301.613 244.78 301.58 244.713 301.58H243.513C243.446 301.58 243.413 301.613 243.413 301.68V302.26L246.413 303.36C246.626 303.427 246.866 303.567 247.133 303.78C247.4 303.993 247.533 304.327 247.533 304.78V307.14C247.533 307.7 247.36 308.153 247.013 308.5C246.666 308.833 246.213 309 245.653 309H243.573C242.546 309 241.806 308.78 241.353 308.34C240.913 307.887 240.693 307.153 240.693 306.14V305.2ZM252.123 311.64V301.66H251.723L251.923 299H254.843V300.06L255.563 299H255.883C256.91 299 257.643 299.22 258.083 299.66C258.537 300.1 258.763 300.833 258.763 301.86V306.14C258.763 307.153 258.543 307.887 258.103 308.34C257.677 308.78 256.963 309 255.963 309H255.783C255.437 309 255.123 308.94 254.843 308.82V311.64H252.123ZM255.943 306.34C256.01 306.34 256.043 306.307 256.043 306.24V301.76C256.043 301.693 256.01 301.66 255.943 301.66H254.843V306.34H255.943ZM259.56 306.3V301.86C259.56 300.833 259.78 300.1 260.22 299.66C260.673 299.22 261.413 299 262.44 299H263.32C264.347 299 265.08 299.22 265.52 299.66C265.973 300.1 266.2 300.833 266.2 301.86V305.32H262.28V306.4C262.28 306.467 262.313 306.5 262.38 306.5H263.38C263.447 306.5 263.48 306.467 263.48 306.4V305.74H266.2V306.3C266.2 307.313 265.973 308.047 265.52 308.5C265.08 308.94 264.347 309.16 263.32 309.16H262.44C261.413 309.16 260.673 308.94 260.22 308.5C259.78 308.06 259.56 307.327 259.56 306.3ZM263.48 301.76C263.48 301.693 263.447 301.66 263.38 301.66H262.38C262.313 301.66 262.28 301.693 262.28 301.76V303.06H263.48V301.76ZM271.122 309V307.94L270.402 309H270.082C269.055 309 268.315 308.78 267.862 308.34C267.422 307.887 267.202 307.153 267.202 306.14V301.66H266.802L267.002 299H269.922V306.24C269.922 306.307 269.955 306.34 270.022 306.34H271.122V299H273.842V306.34H274.042L274.242 309H271.122ZM279.294 306.34V309H277.334C276.774 309 276.32 308.833 275.974 308.5C275.627 308.153 275.454 307.7 275.454 307.14V301.46H274.634L274.834 299H275.454V297.66H275.034L275.234 295H278.154V299H279.094L278.894 301.46H278.154V306.34H279.294ZM284.866 298.4L285.706 296.52H287.926L288.766 298.4H287.166L286.826 297.62L286.466 298.4H284.866ZM283.486 306.3V301.86C283.486 300.833 283.706 300.1 284.146 299.66C284.599 299.22 285.339 299 286.366 299H287.246C288.273 299 289.006 299.22 289.446 299.66C289.899 300.1 290.126 300.833 290.126 301.86V305.32H286.206V306.4C286.206 306.467 286.239 306.5 286.306 306.5H287.306C287.373 306.5 287.406 306.467 287.406 306.4V305.74H290.126V306.3C290.126 307.313 289.899 308.047 289.446 308.5C289.006 308.94 288.273 309.16 287.246 309.16H286.366C285.339 309.16 284.599 308.94 284.146 308.5C283.706 308.06 283.486 307.327 283.486 306.3ZM287.406 301.76C287.406 301.693 287.373 301.66 287.306 301.66H286.306C286.239 301.66 286.206 301.693 286.206 301.76V303.06H287.406V301.76ZM295.387 306.34V309H293.427C292.867 309 292.414 308.833 292.067 308.5C291.721 308.153 291.547 307.7 291.547 307.14V301.46H290.727L290.927 299H291.547V297.66H291.127L291.327 295H294.247V299H295.187L294.987 301.46H294.247V306.34H295.387ZM296.186 309V301.66H295.786L295.986 299H298.906V300.14L299.626 299H301.246V302.06H298.906V309H296.186ZM301.943 306.3V301.86C301.943 300.833 302.163 300.1 302.603 299.66C303.056 299.22 303.796 299 304.823 299H305.703C306.73 299 307.463 299.22 307.903 299.66C308.356 300.1 308.583 300.833 308.583 301.86V305.32H304.663V306.4C304.663 306.467 304.696 306.5 304.763 306.5H305.763C305.83 306.5 305.863 306.467 305.863 306.4V305.74H308.583V306.3C308.583 307.313 308.356 308.047 307.903 308.5C307.463 308.94 306.73 309.16 305.703 309.16H304.823C303.796 309.16 303.056 308.94 302.603 308.5C302.163 308.06 301.943 307.327 301.943 306.3ZM305.863 301.76C305.863 301.693 305.83 301.66 305.763 301.66H304.763C304.696 301.66 304.663 301.693 304.663 301.76V303.06H305.863V301.76ZM312.978 305.58V297H315.238V305.58H312.978ZM312.978 309V306.28H315.238V309H312.978ZM316.045 305.58V297H318.305V305.58H316.045ZM316.045 309V306.28H318.305V309H316.045Z" fill="#F3BB00"/>
<path d="M188.808 327.698L188.696 329H185.35V320.502H185.14L185.28 319.2H186.68V327.698H188.808ZM191.37 320.348L191.748 321.468H190.628L190.25 320.348H191.37ZM190.782 329C190.353 329 190.007 328.879 189.746 328.636C189.494 328.384 189.368 328.071 189.368 327.698V323.302C189.368 322.919 189.494 322.607 189.746 322.364C190.007 322.121 190.353 322 190.782 322H190.838C191.09 322 191.314 322.061 191.51 322.182V322H192.84V327.698H193.036L193.176 329H191.51V328.454L191.16 329H190.782ZM190.768 323.302C190.721 323.302 190.698 323.325 190.698 323.372V327.628C190.698 327.675 190.721 327.698 190.768 327.698H191.51V323.302H190.768ZM198.418 323.316C198.418 323.269 198.395 323.246 198.348 323.246H197.508C197.461 323.246 197.438 323.269 197.438 323.316V327.684C197.438 327.731 197.461 327.754 197.508 327.754H198.348C198.395 327.754 198.418 327.735 198.418 327.698V323.316ZM196.108 327.754V323.246C196.108 322.854 196.229 322.541 196.472 322.308C196.715 322.065 197.032 321.944 197.424 321.944H198.432C198.824 321.944 199.141 322.065 199.384 322.308C199.627 322.541 199.748 322.854 199.748 323.246V327.754C199.748 328.146 199.627 328.463 199.384 328.706C199.141 328.939 198.824 329.056 198.432 329.056H197.424C197.032 329.056 196.715 328.939 196.472 328.706C196.229 328.463 196.108 328.146 196.108 327.754ZM202.519 320.348L202.897 321.468H201.777L201.399 320.348H202.519ZM202.715 327.698V322H204.045V327.698H204.255L204.395 329H202.715V328.454L202.365 329H201.987C201.558 329 201.212 328.879 200.951 328.636C200.699 328.384 200.573 328.071 200.573 327.698V323.302H200.237L200.377 322H201.903V327.628C201.903 327.675 201.926 327.698 201.973 327.698H202.715ZM207.665 329V320.502H207.329L207.469 319.2H208.995V322.546L209.345 322H209.723C210.153 322 210.493 322.121 210.745 322.364C211.007 322.607 211.137 322.919 211.137 323.302V327.698C211.137 328.071 211.007 328.384 210.745 328.636C210.493 328.879 210.153 329 209.723 329H209.667C209.415 329 209.191 328.939 208.995 328.818V329H207.665ZM209.737 323.302H208.995V327.698H209.737C209.784 327.698 209.807 327.675 209.807 327.628V323.372C209.807 323.325 209.784 323.302 209.737 323.302ZM214.004 323.316C214.004 323.269 213.981 323.246 213.934 323.246H213.094C213.047 323.246 213.024 323.269 213.024 323.316V327.684C213.024 327.731 213.047 327.754 213.094 327.754H213.934C213.981 327.754 214.004 327.735 214.004 327.698V323.316ZM211.694 327.754V323.246C211.694 322.854 211.815 322.541 212.058 322.308C212.301 322.065 212.618 321.944 213.01 321.944H214.018C214.41 321.944 214.727 322.065 214.97 322.308C215.213 322.541 215.334 322.854 215.334 323.246V327.754C215.334 328.146 215.213 328.463 214.97 328.706C214.727 328.939 214.41 329.056 214.018 329.056H213.01C212.618 329.056 212.301 328.939 212.058 328.706C211.815 328.463 211.694 328.146 211.694 327.754ZM216.087 329V323.302H215.751L215.891 322H217.417V322.546L217.767 322H218.145C218.575 322 218.915 322.121 219.167 322.364C219.429 322.607 219.559 322.919 219.559 323.302V327.698H219.909L219.769 329H218.229V323.372C218.229 323.325 218.206 323.302 218.159 323.302H217.417V329H216.087ZM222.71 322H223.942L224.726 326.522L225.51 322H226.742L225.398 329H224.054L222.71 322ZM229.467 323.316C229.467 323.269 229.444 323.246 229.397 323.246H228.557C228.51 323.246 228.487 323.269 228.487 323.316V327.684C228.487 327.731 228.51 327.754 228.557 327.754H229.397C229.444 327.754 229.467 327.735 229.467 327.698V323.316ZM227.157 327.754V323.246C227.157 322.854 227.278 322.541 227.521 322.308C227.764 322.065 228.081 321.944 228.473 321.944H229.481C229.873 321.944 230.19 322.065 230.433 322.308C230.676 322.541 230.797 322.854 230.797 323.246V327.754C230.797 328.146 230.676 328.463 230.433 328.706C230.19 328.939 229.873 329.056 229.481 329.056H228.473C228.081 329.056 227.764 328.939 227.521 328.706C227.278 328.463 227.157 328.146 227.157 327.754ZM233.624 327.698V322H234.954V327.698H235.164L235.304 329H233.624V328.454L233.274 329H232.896C232.467 329 232.121 328.879 231.86 328.636C231.608 328.384 231.482 328.071 231.482 327.698V323.302H231.146L231.286 322H232.812V327.628C232.812 327.675 232.835 327.698 232.882 327.698H233.624ZM235.579 326.802L236.909 326.942V327.628C236.909 327.675 236.932 327.698 236.979 327.698H237.539C237.585 327.698 237.609 327.675 237.609 327.628V326.326L236.363 325.794C236.213 325.729 236.045 325.626 235.859 325.486C235.672 325.346 235.579 325.117 235.579 324.8V323.246C235.579 322.854 235.7 322.541 235.943 322.308C236.185 322.065 236.503 321.944 236.895 321.944H237.623C238.015 321.944 238.332 322.065 238.575 322.308C238.817 322.541 238.939 322.854 238.939 323.246V324.142L237.609 324.002V323.316C237.609 323.269 237.585 323.246 237.539 323.246H236.979C236.932 323.246 236.909 323.269 236.909 323.316V324.618L238.155 325.15C238.304 325.215 238.472 325.318 238.659 325.458C238.845 325.598 238.939 325.827 238.939 326.144V327.698C238.939 328.09 238.817 328.407 238.575 328.65C238.332 328.883 238.015 329 237.623 329H236.895C236.503 329 236.185 328.883 235.943 328.65C235.7 328.407 235.579 328.09 235.579 327.698V326.802ZM242.018 326.802L243.348 326.942V327.628C243.348 327.675 243.372 327.698 243.418 327.698H243.978C244.025 327.698 244.048 327.675 244.048 327.628V326.326L242.802 325.794C242.653 325.729 242.485 325.626 242.298 325.486C242.112 325.346 242.018 325.117 242.018 324.8V323.246C242.018 322.854 242.14 322.541 242.382 322.308C242.625 322.065 242.942 321.944 243.334 321.944H244.062C244.454 321.944 244.772 322.065 245.014 322.308C245.257 322.541 245.378 322.854 245.378 323.246V324.142L244.048 324.002V323.316C244.048 323.269 244.025 323.246 243.978 323.246H243.418C243.372 323.246 243.348 323.269 243.348 323.316V324.618L244.594 325.15C244.744 325.215 244.912 325.318 245.098 325.458C245.285 325.598 245.378 325.827 245.378 326.144V327.698C245.378 328.09 245.257 328.407 245.014 328.65C244.772 328.883 244.454 329 244.062 329H243.334C242.942 329 242.625 328.883 242.382 328.65C242.14 328.407 242.018 328.09 242.018 327.698V326.802ZM245.942 327.754V323.246C245.942 322.854 246.063 322.541 246.306 322.308C246.549 322.065 246.866 321.944 247.258 321.944H248.126C248.518 321.944 248.835 322.065 249.078 322.308C249.321 322.541 249.442 322.854 249.442 323.246V324.968H248.112V323.316C248.112 323.269 248.089 323.246 248.042 323.246H247.342C247.295 323.246 247.272 323.269 247.272 323.316V324.968H249.442V326.27H247.272V327.684C247.272 327.731 247.295 327.754 247.342 327.754H248.042C248.089 327.754 248.112 327.735 248.112 327.698V326.928H249.442V327.754C249.442 328.146 249.321 328.463 249.078 328.706C248.835 328.939 248.518 329.056 248.126 329.056H247.258C246.866 329.056 246.549 328.939 246.306 328.706C246.063 328.463 245.942 328.146 245.942 327.754ZM253.671 329H252.341V323.372C252.341 323.325 252.317 323.302 252.271 323.302H251.529V329H250.199V323.302H249.863L250.003 322H251.529V322.546L251.879 322H252.257C252.565 322 252.831 322.065 253.055 322.196C253.279 322.327 253.442 322.504 253.545 322.728L254.021 322H254.399C254.828 322 255.169 322.121 255.421 322.364C255.682 322.607 255.813 322.919 255.813 323.302V327.698H256.149L256.009 329H254.483V323.372C254.483 323.325 254.459 323.302 254.413 323.302H253.671V329ZM256.624 329V323.302H256.288L256.428 322H257.954V322.546L258.304 322H258.682C259.112 322 259.452 322.121 259.704 322.364C259.966 322.607 260.096 322.919 260.096 323.302V327.698H260.446L260.306 329H258.766V323.372C258.766 323.325 258.743 323.302 258.696 323.302H257.954V329H256.624ZM262.205 319.2L262.219 327.698H262.569L262.709 329H260.889L260.875 320.502H260.595L260.735 319.2H262.205ZM263.059 327.754V323.246C263.059 322.854 263.181 322.541 263.423 322.308C263.666 322.065 263.983 321.944 264.375 321.944H265.243C265.635 321.944 265.953 322.065 266.195 322.308C266.438 322.541 266.559 322.854 266.559 323.246V324.968H265.229V323.316C265.229 323.269 265.206 323.246 265.159 323.246H264.459C264.413 323.246 264.389 323.269 264.389 323.316V324.968H266.559V326.27H264.389V327.684C264.389 327.731 264.413 327.754 264.459 327.754H265.159C265.206 327.754 265.229 327.735 265.229 327.698V326.928H266.559V327.754C266.559 328.146 266.438 328.463 266.195 328.706C265.953 328.939 265.635 329.056 265.243 329.056H264.375C263.983 329.056 263.666 328.939 263.423 328.706C263.181 328.463 263.059 328.146 263.059 327.754Z" fill="black" fill-opacity="0.56"/>
<path d="M70.4708 203.14C70.4708 204.153 70.2441 204.887 69.7908 205.34C69.3508 205.78 68.6174 206 67.5908 206H63.8308V194.66H63.4508L63.7308 192H67.5908C68.6174 192 69.3508 192.22 69.7908 192.66C70.2441 193.1 70.4708 193.833 70.4708 194.86V203.14ZM67.6508 203.34C67.7174 203.34 67.7508 203.307 67.7508 203.24V194.76C67.7508 194.693 67.7174 194.66 67.6508 194.66H66.5508V203.34H67.6508ZM73.3033 195.4L74.0233 193.28H76.1633L75.4433 195.4H73.3033ZM71.2633 203.3V198.86C71.2633 197.833 71.4833 197.1 71.9233 196.66C72.3766 196.22 73.1166 196 74.1433 196H75.0233C76.0499 196 76.7833 196.22 77.2233 196.66C77.6766 197.1 77.9033 197.833 77.9033 198.86V202.32H73.9833V203.4C73.9833 203.467 74.0166 203.5 74.0833 203.5H75.0833C75.1499 203.5 75.1833 203.467 75.1833 203.4V202.74H77.9033V203.3C77.9033 204.313 77.6766 205.047 77.2233 205.5C76.7833 205.94 76.0499 206.16 75.0233 206.16H74.1433C73.1166 206.16 72.3766 205.94 71.9233 205.5C71.4833 205.06 71.2633 204.327 71.2633 203.3ZM75.1833 198.76C75.1833 198.693 75.1499 198.66 75.0833 198.66H74.0833C74.0166 198.66 73.9833 198.693 73.9833 198.76V200.06H75.1833V198.76ZM80.6247 206L78.7047 196H81.0247L81.9847 201.54L82.9447 196H85.2647L83.3447 206H80.6247ZM85.6773 203.3V198.86C85.6773 197.833 85.8973 197.1 86.3373 196.66C86.7907 196.22 87.5307 196 88.5573 196H89.4373C90.464 196 91.1973 196.22 91.6373 196.66C92.0907 197.1 92.3173 197.833 92.3173 198.86V202.32H88.3973V203.4C88.3973 203.467 88.4307 203.5 88.4973 203.5H89.4973C89.564 203.5 89.5973 203.467 89.5973 203.4V202.74H92.3173V203.3C92.3173 204.313 92.0907 205.047 91.6373 205.5C91.1973 205.94 90.464 206.16 89.4373 206.16H88.5573C87.5307 206.16 86.7907 205.94 86.3373 205.5C85.8973 205.06 85.6773 204.327 85.6773 203.3ZM89.5973 198.76C89.5973 198.693 89.564 198.66 89.4973 198.66H88.4973C88.4307 198.66 88.3973 198.693 88.3973 198.76V200.06H89.5973V198.76ZM93.4388 206V194.66H93.1188L93.3188 192H96.1588V203.34H96.5588L96.7588 206H93.4388ZM101.179 198.76C101.179 198.693 101.146 198.66 101.079 198.66H100.079C100.013 198.66 99.9794 198.693 99.9794 198.76V203.4C99.9794 203.467 100.013 203.5 100.079 203.5H101.079C101.146 203.5 101.179 203.467 101.179 203.4V198.76ZM97.2594 203.3V198.86C97.2594 197.833 97.4794 197.1 97.9194 196.66C98.3727 196.22 99.1127 196 100.139 196H101.019C102.046 196 102.779 196.22 103.219 196.66C103.673 197.1 103.899 197.833 103.899 198.86V203.3C103.899 204.313 103.673 205.047 103.219 205.5C102.779 205.94 102.046 206.16 101.019 206.16H100.139C99.1127 206.16 98.3727 205.94 97.9194 205.5C97.4794 205.06 97.2594 204.327 97.2594 203.3ZM104.998 208.64V198.66H104.598L104.798 196H107.718V197.06L108.438 196H108.758C109.785 196 110.518 196.22 110.958 196.66C111.412 197.1 111.638 197.833 111.638 198.86V203.14C111.638 204.153 111.418 204.887 110.978 205.34C110.552 205.78 109.838 206 108.838 206H108.658C108.312 206 107.998 205.94 107.718 205.82V208.64H104.998ZM108.818 203.34C108.885 203.34 108.918 203.307 108.918 203.24V198.76C108.918 198.693 108.885 198.66 108.818 198.66H107.718V203.34H108.818ZM112.635 208.64V198.66H112.235L112.435 196H115.355V197.06L116.075 196H116.395C117.422 196 118.155 196.22 118.595 196.66C119.048 197.1 119.275 197.833 119.275 198.86V203.14C119.275 204.153 119.055 204.887 118.615 205.34C118.188 205.78 117.475 206 116.475 206H116.295C115.948 206 115.635 205.94 115.355 205.82V208.64H112.635ZM116.455 203.34C116.522 203.34 116.555 203.307 116.555 203.24V198.76C116.555 198.693 116.522 198.66 116.455 198.66H115.355V203.34H116.455ZM120.072 203.3V198.86C120.072 197.833 120.292 197.1 120.732 196.66C121.185 196.22 121.925 196 122.952 196H123.832C124.859 196 125.592 196.22 126.032 196.66C126.485 197.1 126.712 197.833 126.712 198.86V202.32H122.792V203.4C122.792 203.467 122.825 203.5 122.892 203.5H123.892C123.959 203.5 123.992 203.467 123.992 203.4V202.74H126.712V203.3C126.712 204.313 126.485 205.047 126.032 205.5C125.592 205.94 124.859 206.16 123.832 206.16H122.952C121.925 206.16 121.185 205.94 120.732 205.5C120.292 205.06 120.072 204.327 120.072 203.3ZM123.992 198.76C123.992 198.693 123.959 198.66 123.892 198.66H122.892C122.825 198.66 122.792 198.693 122.792 198.76V200.06H123.992V198.76ZM131.633 206V204.94L130.913 206H130.593C129.567 206 128.827 205.78 128.373 205.34C127.933 204.887 127.713 204.153 127.713 203.14V198.66H127.313L127.513 196H130.433V203.24C130.433 203.307 130.467 203.34 130.533 203.34H131.633V196H134.353V203.34H134.553L134.753 206H131.633ZM135.545 206V198.66H135.145L135.345 196H138.265V197.14L138.985 196H140.605V199.06H138.265V206H135.545ZM39.8659 226V214.66H39.4859L39.7659 212H42.5859V226H39.8659ZM43.6898 226V218.66H43.2898L43.4898 216H46.4098V217.06L47.1298 216H47.4498C48.4765 216 49.2098 216.22 49.6498 216.66C50.1032 217.1 50.3298 217.833 50.3298 218.86V223.34H50.7298L50.5298 226H47.6098V218.76C47.6098 218.693 47.5765 218.66 47.5098 218.66H46.4098V226H43.6898ZM55.6061 223.34V226H53.6461C53.0861 226 52.6328 225.833 52.2861 225.5C51.9394 225.153 51.7661 224.7 51.7661 224.14V218.46H50.9461L51.1461 216H51.7661V214.66H51.3461L51.5461 212H54.4661V216H55.4061L55.2061 218.46H54.4661V223.34H55.6061ZM58.2447 215.4L58.9647 213.28H61.1047L60.3847 215.4H58.2447ZM56.2047 223.3V218.86C56.2047 217.833 56.4247 217.1 56.8647 216.66C57.318 216.22 58.058 216 59.0847 216H59.9647C60.9914 216 61.7247 216.22 62.1647 216.66C62.618 217.1 62.8447 217.833 62.8447 218.86V222.32H58.9247V223.4C58.9247 223.467 58.958 223.5 59.0247 223.5H60.0247C60.0914 223.5 60.1247 223.467 60.1247 223.4V222.74H62.8447V223.3C62.8447 224.313 62.618 225.047 62.1647 225.5C61.7247 225.94 60.9914 226.16 59.9647 226.16H59.0847C58.058 226.16 57.318 225.94 56.8647 225.5C56.4247 225.06 56.2047 224.327 56.2047 223.3ZM60.1247 218.76C60.1247 218.693 60.0914 218.66 60.0247 218.66H59.0247C58.958 218.66 58.9247 218.693 58.9247 218.76V220.06H60.1247V218.76ZM66.3661 226.26V226.68C66.3661 226.747 66.3994 226.78 66.4661 226.78H67.4661C67.5328 226.78 67.5661 226.747 67.5661 226.68V225.24L67.0461 226H66.5261C65.4994 226 64.7594 225.78 64.3061 225.34C63.8661 224.887 63.6461 224.153 63.6461 223.14V218.86C63.6461 217.833 63.8594 217.1 64.2861 216.66C64.7261 216.22 65.4461 216 66.4461 216H66.6261C66.9728 216 67.2861 216.06 67.5661 216.18V216H70.2861V226.18C70.2861 227.193 70.0594 227.92 69.6061 228.36C69.1661 228.813 68.4328 229.04 67.4061 229.04H66.5261C65.5394 229.04 64.8128 228.813 64.3461 228.36C63.8794 227.907 63.6461 227.213 63.6461 226.28V226.26H66.3661ZM66.4661 218.66C66.3994 218.66 66.3661 218.693 66.3661 218.76V223.24C66.3661 223.307 66.3994 223.34 66.4661 223.34H67.5661V218.66H66.4661ZM71.3852 226V218.66H70.9852L71.1852 216H74.1052V217.14L74.8252 216H76.4452V219.06H74.1052V226H71.3852ZM79.9245 226C78.8979 226 78.1579 225.78 77.7045 225.34C77.2645 224.887 77.0445 224.153 77.0445 223.14V218.86C77.0445 217.833 77.2579 217.1 77.6845 216.66C78.1245 216.22 78.8445 216 79.8445 216H80.0245C80.3712 216 80.6845 216.06 80.9645 216.18V216H83.6845V223.34H83.8845L84.0845 226H80.9645V224.94L80.2445 226H79.9245ZM79.8645 218.66C79.7979 218.66 79.7645 218.693 79.7645 218.76V223.24C79.7645 223.307 79.7979 223.34 79.8645 223.34H80.9645V218.66H79.8645ZM89.0436 223.34V226H87.0836C86.5236 226 86.0703 225.833 85.7236 225.5C85.3769 225.153 85.2036 224.7 85.2036 224.14V218.46H84.3836L84.5836 216H85.2036V214.66H84.7836L84.9836 212H87.9036V216H88.8436L88.6436 218.46H87.9036V223.34H89.0436ZM89.6422 223.3V218.86C89.6422 217.833 89.8622 217.1 90.3022 216.66C90.7555 216.22 91.4955 216 92.5222 216H93.4022C94.4289 216 95.1622 216.22 95.6022 216.66C96.0555 217.1 96.2822 217.833 96.2822 218.86V222.32H92.3622V223.4C92.3622 223.467 92.3955 223.5 92.4622 223.5H93.4622C93.5289 223.5 93.5622 223.467 93.5622 223.4V222.74H96.2822V223.3C96.2822 224.313 96.0555 225.047 95.6022 225.5C95.1622 225.94 94.4289 226.16 93.4022 226.16H92.5222C91.4955 226.16 90.7555 225.94 90.3022 225.5C89.8622 225.06 89.6422 224.327 89.6422 223.3ZM93.5622 218.76C93.5622 218.693 93.5289 218.66 93.4622 218.66H92.4622C92.3955 218.66 92.3622 218.693 92.3622 218.76V220.06H93.5622V218.76ZM101.204 226V224.94L100.484 226H100.164C99.1369 226 98.3969 225.78 97.9436 225.34C97.5036 224.887 97.2836 224.153 97.2836 223.14V218.66H96.8836L97.0836 216H100.004V223.24C100.004 223.307 100.037 223.34 100.104 223.34H101.204V216H103.924V223.34H104.124L104.324 226H101.204ZM105.116 226V218.66H104.716L104.916 216H107.836V217.14L108.556 216H110.176V219.06H107.836V226H105.116ZM125.324 216V223.34H125.524L125.724 226H122.604V224.94L121.884 226H121.564C120.177 226 119.304 225.567 118.944 224.7L118.064 226H117.644C116.617 226 115.877 225.78 115.424 225.34C114.984 224.887 114.764 224.153 114.764 223.14V218.66H114.364L114.564 216H117.484V223.24C117.484 223.307 117.517 223.34 117.584 223.34H118.684C118.684 223.287 118.684 223.22 118.684 223.14V216H121.404V223.24C121.404 223.307 121.437 223.34 121.504 223.34H122.604V216H125.324ZM126.322 223.3V218.86C126.322 217.833 126.542 217.1 126.982 216.66C127.435 216.22 128.175 216 129.202 216H130.082C131.109 216 131.842 216.22 132.282 216.66C132.735 217.1 132.962 217.833 132.962 218.86V222.32H129.042V223.4C129.042 223.467 129.075 223.5 129.142 223.5H130.142C130.209 223.5 130.242 223.467 130.242 223.4V222.74H132.962V223.3C132.962 224.313 132.735 225.047 132.282 225.5C131.842 225.94 131.109 226.16 130.082 226.16H129.202C128.175 226.16 127.435 225.94 126.982 225.5C126.542 225.06 126.322 224.327 126.322 223.3ZM130.242 218.76C130.242 218.693 130.209 218.66 130.142 218.66H129.142C129.075 218.66 129.042 218.693 129.042 218.76V220.06H130.242V218.76ZM133.963 226V214.66H133.563L133.763 212H136.683V217.06L137.403 216H137.723C138.75 216 139.483 216.22 139.923 216.66C140.377 217.1 140.603 217.833 140.603 218.86V223.14C140.603 224.153 140.383 224.887 139.943 225.34C139.517 225.78 138.803 226 137.803 226H137.623C137.277 226 136.963 225.94 136.683 225.82V226H133.963ZM137.783 223.34C137.85 223.34 137.883 223.307 137.883 223.24V218.76C137.883 218.693 137.85 218.66 137.783 218.66H136.683V223.34H137.783Z" fill="#F3BB00"/>
<path d="M7.15136 246H3.97336V242.374C3.97336 241.982 4.09003 241.669 4.32336 241.436C4.56603 241.193 4.86936 241.072 5.23336 241.072H5.75136C5.79803 241.072 5.82136 241.049 5.82136 241.002V238.972C5.82136 238.925 5.79803 238.902 5.75136 238.902H3.97336V237.6H5.83536C6.22736 237.6 6.54469 237.721 6.78736 237.964C7.03003 238.197 7.15136 238.51 7.15136 238.902V241.072C7.15136 241.464 7.03003 241.781 6.78736 242.024C6.54469 242.257 6.22736 242.374 5.83536 242.374H5.37336C5.32669 242.374 5.30336 242.397 5.30336 242.444V244.698H7.15136V246ZM9.76378 237.544C10.1464 237.544 10.4591 237.665 10.7018 237.908C10.9538 238.151 11.0798 238.463 11.0798 238.846V244.698C11.0798 245.071 10.9538 245.384 10.7018 245.636C10.4591 245.879 10.1464 246 9.76378 246H9.02178C8.63911 246 8.32178 245.879 8.06978 245.636C7.82711 245.384 7.70578 245.071 7.70578 244.698V238.846C7.70578 238.463 7.82711 238.151 8.06978 237.908C8.31245 237.656 8.62978 237.535 9.02178 237.544H9.76378ZM9.00778 244.628C9.00778 244.675 9.03111 244.698 9.07778 244.698H9.73578C9.78245 244.698 9.80578 244.675 9.80578 244.628V238.916C9.80578 238.869 9.78245 238.846 9.73578 238.846H9.10578C9.05911 238.846 9.03578 238.869 9.03578 238.916L9.00778 244.628ZM14.8213 246H11.6433V242.374C11.6433 241.982 11.7599 241.669 11.9933 241.436C12.2359 241.193 12.5393 241.072 12.9033 241.072H13.4213C13.4679 241.072 13.4913 241.049 13.4913 241.002V238.972C13.4913 238.925 13.4679 238.902 13.4213 238.902H11.6433V237.6H13.5053C13.8973 237.6 14.2146 237.721 14.4573 237.964C14.6999 238.197 14.8213 238.51 14.8213 238.902V241.072C14.8213 241.464 14.6999 241.781 14.4573 242.024C14.2146 242.257 13.8973 242.374 13.5053 242.374H13.0433C12.9966 242.374 12.9733 242.397 12.9733 242.444V244.698H14.8213V246ZM18.5537 246H15.3757V242.374C15.3757 241.982 15.4924 241.669 15.7257 241.436C15.9684 241.193 16.2717 241.072 16.6357 241.072H17.1537C17.2004 241.072 17.2237 241.049 17.2237 241.002V238.972C17.2237 238.925 17.2004 238.902 17.1537 238.902H15.3757V237.6H17.2377C17.6297 237.6 17.947 237.721 18.1897 237.964C18.4324 238.197 18.5537 238.51 18.5537 238.902V241.072C18.5537 241.464 18.4324 241.781 18.1897 242.024C17.947 242.257 17.6297 242.374 17.2377 242.374H16.7757C16.729 242.374 16.7057 242.397 16.7057 242.444V244.698H18.5537V246ZM21.7681 241.114V242.444H19.1081V241.114H21.7681ZM25.5127 246H22.3347V242.374C22.3347 241.982 22.4514 241.669 22.6847 241.436C22.9274 241.193 23.2307 241.072 23.5947 241.072H24.1127C24.1594 241.072 24.1827 241.049 24.1827 241.002V238.972C24.1827 238.925 24.1594 238.902 24.1127 238.902H22.3347V237.6H24.1967C24.5887 237.6 24.906 237.721 25.1487 237.964C25.3914 238.197 25.5127 238.51 25.5127 238.902V241.072C25.5127 241.464 25.3914 241.781 25.1487 242.024C24.906 242.257 24.5887 242.374 24.1967 242.374H23.7347C23.688 242.374 23.6647 242.397 23.6647 242.444V244.698H25.5127V246ZM28.1251 237.544C28.5078 237.544 28.8204 237.665 29.0631 237.908C29.3151 238.151 29.4411 238.463 29.4411 238.846V244.698C29.4411 245.071 29.3151 245.384 29.0631 245.636C28.8204 245.879 28.5078 246 28.1251 246H27.3831C27.0004 246 26.6831 245.879 26.4311 245.636C26.1884 245.384 26.0671 245.071 26.0671 244.698V238.846C26.0671 238.463 26.1884 238.151 26.4311 237.908C26.6738 237.656 26.9911 237.535 27.3831 237.544H28.1251ZM27.3691 244.628C27.3691 244.675 27.3924 244.698 27.4391 244.698H28.0971C28.1438 244.698 28.1671 244.675 28.1671 244.628V238.916C28.1671 238.869 28.1438 238.846 28.0971 238.846H27.4671C27.4204 238.846 27.3971 238.869 27.3971 238.916L27.3691 244.628ZM33.1826 246H30.0046V242.374C30.0046 241.982 30.1213 241.669 30.3546 241.436C30.5973 241.193 30.9006 241.072 31.2646 241.072H31.7826C31.8293 241.072 31.8526 241.049 31.8526 241.002V238.972C31.8526 238.925 31.8293 238.902 31.7826 238.902H30.0046V237.6H31.8666C32.2586 237.6 32.5759 237.721 32.8186 237.964C33.0613 238.197 33.1826 238.51 33.1826 238.902V241.072C33.1826 241.464 33.0613 241.781 32.8186 242.024C32.5759 242.257 32.2586 242.374 31.8666 242.374H31.4046C31.3579 242.374 31.3346 242.397 31.3346 242.444V244.698H33.1826V246ZM36.929 241.072V242.374H36.915V244.684C36.915 245.076 36.7937 245.393 36.551 245.636C36.3084 245.869 35.991 245.986 35.599 245.986H33.737V244.684H35.515C35.5617 244.684 35.585 244.661 35.585 244.614V242.374H34.143V241.072H35.599V238.972C35.599 238.925 35.5757 238.902 35.529 238.902H33.751V237.6H35.613C36.005 237.6 36.3224 237.721 36.565 237.964C36.8077 238.197 36.929 238.51 36.929 238.902V241.072ZM39.9988 236.2H41.3288V247.4H39.9988V236.2ZM46.4031 237.348L46.7811 238.468H45.6611L45.2831 237.348H46.4031ZM45.8151 246C45.3858 246 45.0404 245.879 44.7791 245.636C44.5271 245.384 44.4011 245.071 44.4011 244.698V240.302C44.4011 239.919 44.5271 239.607 44.7791 239.364C45.0404 239.121 45.3858 239 45.8151 239H45.8711C46.1231 239 46.3471 239.061 46.5431 239.182V239H47.8731V244.698H48.0691L48.2091 246H46.5431V245.454L46.1931 246H45.8151ZM45.8011 240.302C45.7544 240.302 45.7311 240.325 45.7311 240.372V244.628C45.7311 244.675 45.7544 244.698 45.8011 244.698H46.5431V240.302H45.8011ZM52.5553 246C52.126 246 51.7807 245.879 51.5193 245.636C51.2673 245.384 51.1413 245.071 51.1413 244.698V240.302C51.1413 239.919 51.2673 239.607 51.5193 239.364C51.7807 239.121 52.126 239 52.5553 239H52.6113C52.8633 239 53.0873 239.061 53.2833 239.182V237.502H52.9473L53.0873 236.2H54.6133V244.698H54.8093L54.9493 246H53.2833V245.454L52.9333 246H52.5553ZM52.5413 240.302C52.4947 240.302 52.4713 240.325 52.4713 240.372V244.628C52.4713 244.675 52.4947 244.698 52.5413 244.698H53.2833V240.302H52.5413ZM56.5576 237.138L56.6976 238.44H55.3676V237.138H56.5576ZM56.6976 239V246H55.3676V240.302H55.1576L55.2976 239H56.6976ZM57.1843 243.802L58.5143 243.942V244.628C58.5143 244.675 58.5376 244.698 58.5843 244.698H59.1443C59.191 244.698 59.2143 244.675 59.2143 244.628V243.326L57.9683 242.794C57.819 242.729 57.651 242.626 57.4643 242.486C57.2776 242.346 57.1843 242.117 57.1843 241.8V240.246C57.1843 239.854 57.3056 239.541 57.5483 239.308C57.791 239.065 58.1083 238.944 58.5003 238.944H59.2283C59.6203 238.944 59.9376 239.065 60.1803 239.308C60.423 239.541 60.5443 239.854 60.5443 240.246V241.142L59.2143 241.002V240.316C59.2143 240.269 59.191 240.246 59.1443 240.246H58.5843C58.5376 240.246 58.5143 240.269 58.5143 240.316V241.618L59.7603 242.15C59.9096 242.215 60.0776 242.318 60.2643 242.458C60.451 242.598 60.5443 242.827 60.5443 243.144V244.698C60.5443 245.09 60.423 245.407 60.1803 245.65C59.9376 245.883 59.6203 246 59.2283 246H58.5003C58.1083 246 57.791 245.883 57.5483 245.65C57.3056 245.407 57.1843 245.09 57.1843 244.698V243.802ZM63.6841 244.698V246H62.8721C62.4801 246 62.1628 245.883 61.9201 245.65C61.6775 245.407 61.5561 245.09 61.5561 244.698V240.302H60.9681L61.0801 239H61.5561V237.502H61.2061L61.3181 236.2H62.8861V239H63.6841L63.5721 240.302H62.8861V244.698H63.6841ZM65.4479 246C65.0186 246 64.6732 245.879 64.4119 245.636C64.1599 245.384 64.0339 245.071 64.0339 244.698V240.302C64.0339 239.919 64.1599 239.607 64.4119 239.364C64.6732 239.121 65.0186 239 65.4479 239H65.5039C65.7559 239 65.9799 239.061 66.1759 239.182V239H67.5059V244.698H67.7019L67.8419 246H66.1759V245.454L65.8259 246H65.4479ZM65.4339 240.302C65.3872 240.302 65.3639 240.325 65.3639 240.372V244.628C65.3639 244.675 65.3872 244.698 65.4339 244.698H66.1759V240.302H65.4339ZM68.3862 246V240.302H68.0502L68.1902 239H69.7162V239.546L70.0662 239H70.4442C70.8735 239 71.2142 239.121 71.4662 239.364C71.7275 239.607 71.8582 239.919 71.8582 240.302V244.698H72.2082L72.0682 246H70.5282V240.372C70.5282 240.325 70.5048 240.302 70.4582 240.302H69.7162V246H68.3862ZM72.4968 244.754V240.246C72.4968 239.854 72.6181 239.541 72.8608 239.308C73.1035 239.065 73.4208 238.944 73.8128 238.944H74.8208C75.2128 238.944 75.5301 239.065 75.7728 239.308C76.0155 239.541 76.1368 239.854 76.1368 240.246V242.094L74.8068 241.954V240.316C74.8068 240.269 74.7835 240.246 74.7368 240.246H73.8968C73.8501 240.246 73.8268 240.269 73.8268 240.316V244.684C73.8268 244.731 73.8501 244.754 73.8968 244.754H74.7368C74.7835 244.754 74.8068 244.735 74.8068 244.698V243.074H76.1368V244.754C76.1368 245.146 76.0155 245.463 75.7728 245.706C75.5301 245.939 75.2128 246.056 74.8208 246.056H73.8128C73.4208 246.056 73.1035 245.939 72.8608 245.706C72.6181 245.463 72.4968 245.146 72.4968 244.754ZM76.6941 244.754V240.246C76.6941 239.854 76.8154 239.541 77.0581 239.308C77.3007 239.065 77.6181 238.944 78.0101 238.944H78.8781C79.2701 238.944 79.5874 239.065 79.8301 239.308C80.0727 239.541 80.1941 239.854 80.1941 240.246V241.968H78.8641V240.316C78.8641 240.269 78.8407 240.246 78.7941 240.246H78.0941C78.0474 240.246 78.0241 240.269 78.0241 240.316V241.968H80.1941V243.27H78.0241V244.684C78.0241 244.731 78.0474 244.754 78.0941 244.754H78.7941C78.8407 244.754 78.8641 244.735 78.8641 244.698V243.928H80.1941V244.754C80.1941 245.146 80.0727 245.463 79.8301 245.706C79.5874 245.939 79.2701 246.056 78.8781 246.056H78.0101C77.6181 246.056 77.3007 245.939 77.0581 245.706C76.8154 245.463 76.6941 245.146 76.6941 244.754ZM83.2702 236.2H84.6002V247.4H83.2702V236.2ZM91.3126 244.754C91.3126 245.146 91.1912 245.463 90.9486 245.706C90.7059 245.939 90.3886 246.056 89.9966 246.056H88.9886C88.5966 246.056 88.2792 245.939 88.0366 245.706C87.7939 245.463 87.6726 245.146 87.6726 244.754V237.446C87.6726 237.054 87.7939 236.741 88.0366 236.508C88.2792 236.265 88.5966 236.144 88.9886 236.144H89.9966C90.3886 236.144 90.7059 236.265 90.9486 236.508C91.1912 236.741 91.3126 237.054 91.3126 237.446V244.754ZM89.0726 237.446C89.0259 237.446 89.0026 237.469 89.0026 237.516V244.684C89.0026 244.731 89.0259 244.754 89.0726 244.754H89.9126C89.9592 244.754 89.9826 244.731 89.9826 244.684V237.516C89.9826 237.469 89.9592 237.446 89.9126 237.446H89.0726ZM93.3958 247.862H92.0658V240.302H91.7298L91.8698 239H93.3958V239.546L93.7458 239H94.1238C94.5532 239 94.8938 239.121 95.1458 239.364C95.4072 239.607 95.5378 239.919 95.5378 240.302V244.698C95.5378 245.071 95.4072 245.384 95.1458 245.636C94.8938 245.879 94.5532 246 94.1238 246H94.0678C93.8158 246 93.5918 245.939 93.3958 245.818V247.862ZM94.1378 240.302H93.3958V244.698H94.1378C94.1845 244.698 94.2078 244.675 94.2078 244.628V240.372C94.2078 240.325 94.1845 240.302 94.1378 240.302ZM96.1628 244.754V240.246C96.1628 239.854 96.2841 239.541 96.5268 239.308C96.7695 239.065 97.0868 238.944 97.4788 238.944H98.3468C98.7388 238.944 99.0561 239.065 99.2988 239.308C99.5415 239.541 99.6628 239.854 99.6628 240.246V241.968H98.3328V240.316C98.3328 240.269 98.3095 240.246 98.2628 240.246H97.5628C97.5161 240.246 97.4928 240.269 97.4928 240.316V241.968H99.6628V243.27H97.4928V244.684C97.4928 244.731 97.5161 244.754 97.5628 244.754H98.2628C98.3095 244.754 98.3328 244.735 98.3328 244.698V243.928H99.6628V244.754C99.6628 245.146 99.5415 245.463 99.2988 245.706C99.0561 245.939 98.7388 246.056 98.3468 246.056H97.4788C97.0868 246.056 96.7695 245.939 96.5268 245.706C96.2841 245.463 96.1628 245.146 96.1628 244.754ZM100.419 246V240.302H100.083L100.223 239H101.749V239.546L102.099 239H102.477C102.907 239 103.247 239.121 103.499 239.364C103.761 239.607 103.891 239.919 103.891 240.302V244.698H104.241L104.101 246H102.561V240.372C102.561 240.325 102.538 240.302 102.491 240.302H101.749V246H100.419ZM108.307 241.744V244.754C108.307 245.146 108.185 245.463 107.943 245.706C107.7 245.939 107.383 246.056 106.991 246.056H105.983C105.591 246.056 105.273 245.939 105.031 245.706C104.788 245.463 104.667 245.146 104.667 244.754V237.446C104.667 237.054 104.788 236.741 105.031 236.508C105.273 236.265 105.591 236.144 105.983 236.144H106.991C107.383 236.144 107.7 236.265 107.943 236.508C108.185 236.741 108.307 237.054 108.307 237.446V240.582L106.977 240.442V237.516C106.977 237.469 106.953 237.446 106.907 237.446H106.067C106.02 237.446 105.997 237.469 105.997 237.516V244.684C105.997 244.731 106.02 244.754 106.067 244.754H106.907C106.953 244.754 106.977 244.731 106.977 244.684V241.744H108.307ZM110.334 236.2L110.348 244.698H110.698L110.838 246H109.018L109.004 237.502H108.724L108.864 236.2H110.334ZM112.534 246C112.105 246 111.759 245.879 111.498 245.636C111.246 245.384 111.12 245.071 111.12 244.698V240.302C111.12 239.919 111.246 239.607 111.498 239.364C111.759 239.121 112.105 239 112.534 239H112.59C112.842 239 113.066 239.061 113.262 239.182V239H114.592V244.698H114.788L114.928 246H113.262V245.454L112.912 246H112.534ZM112.52 240.302C112.473 240.302 112.45 240.325 112.45 240.372V244.628C112.45 244.675 112.473 244.698 112.52 244.698H113.262V240.302H112.52ZM115.276 243.802L116.606 243.942V244.628C116.606 244.675 116.629 244.698 116.676 244.698H117.236C117.283 244.698 117.306 244.675 117.306 244.628V243.326L116.06 242.794C115.911 242.729 115.743 242.626 115.556 242.486C115.369 242.346 115.276 242.117 115.276 241.8V240.246C115.276 239.854 115.397 239.541 115.64 239.308C115.883 239.065 116.2 238.944 116.592 238.944H117.32C117.712 238.944 118.029 239.065 118.272 239.308C118.515 239.541 118.636 239.854 118.636 240.246V241.142L117.306 241.002V240.316C117.306 240.269 117.283 240.246 117.236 240.246H116.676C116.629 240.246 116.606 240.269 116.606 240.316V241.618L117.852 242.15C118.001 242.215 118.169 242.318 118.356 242.458C118.543 242.598 118.636 242.827 118.636 243.144V244.698C118.636 245.09 118.515 245.407 118.272 245.65C118.029 245.883 117.712 246 117.32 246H116.592C116.2 246 115.883 245.883 115.64 245.65C115.397 245.407 115.276 245.09 115.276 244.698V243.802ZM119.2 243.802L120.53 243.942V244.628C120.53 244.675 120.553 244.698 120.6 244.698H121.16C121.207 244.698 121.23 244.675 121.23 244.628V243.326L119.984 242.794C119.835 242.729 119.667 242.626 119.48 242.486C119.293 242.346 119.2 242.117 119.2 241.8V240.246C119.2 239.854 119.321 239.541 119.564 239.308C119.807 239.065 120.124 238.944 120.516 238.944H121.244C121.636 238.944 121.953 239.065 122.196 239.308C122.439 239.541 122.56 239.854 122.56 240.246V241.142L121.23 241.002V240.316C121.23 240.269 121.207 240.246 121.16 240.246H120.6C120.553 240.246 120.53 240.269 120.53 240.316V241.618L121.776 242.15C121.925 242.215 122.093 242.318 122.28 242.458C122.467 242.598 122.56 242.827 122.56 243.144V244.698C122.56 245.09 122.439 245.407 122.196 245.65C121.953 245.883 121.636 246 121.244 246H120.516C120.124 246 119.807 245.883 119.564 245.65C119.321 245.407 119.2 245.09 119.2 244.698V243.802ZM124.65 239V239.616L125.028 239H125.966V240.358H124.65V246H123.32V240.302H122.984L123.124 239H124.65ZM128.701 240.316C128.701 240.269 128.678 240.246 128.631 240.246H127.791C127.745 240.246 127.721 240.269 127.721 240.316V244.684C127.721 244.731 127.745 244.754 127.791 244.754H128.631C128.678 244.754 128.701 244.735 128.701 244.698V240.316ZM126.391 244.754V240.246C126.391 239.854 126.513 239.541 126.755 239.308C126.998 239.065 127.315 238.944 127.707 238.944H128.715C129.107 238.944 129.425 239.065 129.667 239.308C129.91 239.541 130.031 239.854 130.031 240.246V244.754C130.031 245.146 129.91 245.463 129.667 245.706C129.425 245.939 129.107 246.056 128.715 246.056H127.707C127.315 246.056 126.998 245.939 126.755 245.706C126.513 245.463 126.391 245.146 126.391 244.754ZM132.83 240.316C132.83 240.269 132.807 240.246 132.76 240.246H131.92C131.874 240.246 131.85 240.269 131.85 240.316V244.684C131.85 244.731 131.874 244.754 131.92 244.754H132.76C132.807 244.754 132.83 244.735 132.83 244.698V240.316ZM130.52 244.754V240.246C130.52 239.854 130.642 239.541 130.884 239.308C131.127 239.065 131.444 238.944 131.836 238.944H132.844C133.236 238.944 133.554 239.065 133.796 239.308C134.039 239.541 134.16 239.854 134.16 240.246V244.754C134.16 245.146 134.039 245.463 133.796 245.706C133.554 245.939 133.236 246.056 132.844 246.056H131.836C131.444 246.056 131.127 245.939 130.884 245.706C130.642 245.463 130.52 245.146 130.52 244.754ZM138.386 246H137.056V240.372C137.056 240.325 137.032 240.302 136.986 240.302H136.244V246H134.914V240.302H134.578L134.718 239H136.244V239.546L136.594 239H136.972C137.28 239 137.546 239.065 137.77 239.196C137.994 239.327 138.157 239.504 138.26 239.728L138.736 239H139.114C139.543 239 139.884 239.121 140.136 239.364C140.397 239.607 140.528 239.919 140.528 240.302V244.698H140.864L140.724 246H139.198V240.372C139.198 240.325 139.174 240.302 139.128 240.302H138.386V246Z" fill="black" fill-opacity="0.56"/>
</svg>
