<svg width="1234" height="759" viewBox="0 0 1234 759" fill="none" xmlns="http://www.w3.org/2000/svg">
<line x1="614" y1="33" x2="614" y2="759" stroke="#F3BB00" stroke-width="10"/>
<line x1="608" y1="78" x2="558" y2="78" stroke="#BD3100" stroke-width="4"/>
<line x1="609" y1="496" x2="559" y2="496" stroke="#BD3100" stroke-width="4"/>
<line x1="668" y1="708" x2="618" y2="708" stroke="#BD3100" stroke-width="4"/>
<line x1="668" y1="289" x2="618" y2="289" stroke="#BD3100" stroke-width="4"/>
<path d="M159.006 48V16.248H157.942L158.726 8.8H169.422C172.296 8.8 174.35 9.43466 175.582 10.704C176.851 11.936 177.486 13.9707 177.486 16.808V24.144C177.486 25.264 177.392 26.2533 177.206 27.112C178.139 28.344 178.606 30.2107 178.606 32.712V39.992C178.606 42.8293 177.971 44.8827 176.702 46.152C175.47 47.384 173.416 48 170.542 48H159.006ZM169.59 24.704C169.776 24.704 169.87 24.6107 169.87 24.424V16.528C169.87 16.3413 169.776 16.248 169.59 16.248H166.622V24.704H169.59ZM170.99 32.432C170.99 32.2453 170.896 32.152 170.71 32.152H166.622V40.552H170.71C170.896 40.552 170.99 40.4587 170.99 40.272V32.432ZM188.926 48C186.052 48 183.98 47.384 182.71 46.152C181.478 44.8827 180.862 42.8293 180.862 39.992V28.008C180.862 25.1333 181.46 23.08 182.654 21.848C183.886 20.616 185.902 20 188.702 20H189.206C190.177 20 191.054 20.168 191.838 20.504V20H199.454V40.552H200.014L200.574 48H191.838V45.032L189.822 48H188.926ZM188.758 27.448C188.572 27.448 188.478 27.5413 188.478 27.728V40.272C188.478 40.4587 188.572 40.552 188.758 40.552H191.838V27.448H188.758ZM202.245 40.44V28.008C202.245 25.1333 202.861 23.08 204.093 21.848C205.362 20.616 207.434 20 210.309 20H212.773C215.648 20 217.701 20.616 218.933 21.848C220.202 23.08 220.837 25.1333 220.837 28.008V33.216L213.221 32.376V27.728C213.221 27.5413 213.128 27.448 212.941 27.448H210.141C209.954 27.448 209.861 27.5413 209.861 27.728V40.72C209.861 40.9067 209.954 41 210.141 41H212.941C213.128 41 213.221 40.9067 213.221 40.72V35.736H220.837V40.44C220.837 43.2773 220.202 45.3307 218.933 46.6C217.701 47.832 215.648 48.448 212.773 48.448H210.309C207.434 48.448 205.362 47.832 204.093 46.6C202.861 45.368 202.245 43.3147 202.245 40.44ZM223.081 40.44V28.008C223.081 25.1333 223.697 23.08 224.929 21.848C226.198 20.616 228.27 20 231.145 20H233.609C236.484 20 238.537 20.616 239.769 21.848C241.038 23.08 241.673 25.1333 241.673 28.008V33.216L234.057 32.376V27.728C234.057 27.5413 233.964 27.448 233.777 27.448H230.977C230.79 27.448 230.697 27.5413 230.697 27.728V40.72C230.697 40.9067 230.79 41 230.977 41H233.777C233.964 41 234.057 40.9067 234.057 40.72V35.736H241.673V40.44C241.673 43.2773 241.038 45.3307 239.769 46.6C238.537 47.832 236.484 48.448 233.609 48.448H231.145C228.27 48.448 226.198 47.832 224.929 46.6C223.697 45.368 223.081 43.3147 223.081 40.44ZM252.254 48C249.38 48 247.308 47.384 246.038 46.152C244.806 44.8827 244.19 42.8293 244.19 39.992V28.008C244.19 25.1333 244.788 23.08 245.982 21.848C247.214 20.616 249.23 20 252.03 20H252.534C253.505 20 254.382 20.168 255.166 20.504V20H262.782V40.552H263.342L263.902 48H255.166V45.032L253.15 48H252.254ZM252.086 27.448C251.9 27.448 251.806 27.5413 251.806 27.728V40.272C251.806 40.4587 251.9 40.552 252.086 40.552H255.166V27.448H252.086ZM266.469 48V16.248H265.573L266.133 8.8H274.085V40.552H275.205L275.765 48H266.469ZM285.504 48C282.63 48 280.558 47.384 279.288 46.152C278.056 44.8827 277.44 42.8293 277.44 39.992V28.008C277.44 25.1333 278.038 23.08 279.232 21.848C280.464 20.616 282.48 20 285.28 20H285.784C286.755 20 287.632 20.168 288.416 20.504V20H296.032V40.552H296.592L297.152 48H288.416V45.032L286.4 48H285.504ZM285.336 27.448C285.15 27.448 285.056 27.5413 285.056 27.728V40.272C285.056 40.4587 285.15 40.552 285.336 40.552H288.416V27.448H285.336ZM310.359 48V45.032L308.343 48H307.447C304.572 48 302.5 47.384 301.231 46.152C299.999 44.8827 299.383 42.8293 299.383 39.992V27.448H298.263L298.823 20H306.999V40.272C306.999 40.4587 307.092 40.552 307.279 40.552H310.359V20H317.975V40.552H318.535L319.095 48H310.359ZM321.313 48V27.448H320.193L320.753 20H328.929V23.192L330.945 20H335.481V28.568H328.929V48H321.313ZM343.418 18.32L345.434 12.384H351.426L349.41 18.32H343.418ZM337.706 40.44V28.008C337.706 25.1333 338.322 23.08 339.554 21.848C340.823 20.616 342.895 20 345.77 20H348.234C351.109 20 353.162 20.616 354.394 21.848C355.663 23.08 356.298 25.1333 356.298 28.008V37.696H345.322V40.72C345.322 40.9067 345.415 41 345.602 41H348.402C348.589 41 348.682 40.9067 348.682 40.72V38.872H356.298V40.44C356.298 43.2773 355.663 45.3307 354.394 46.6C353.162 47.832 351.109 48.448 348.234 48.448H345.77C342.895 48.448 340.823 47.832 339.554 46.6C338.322 45.368 337.706 43.3147 337.706 40.44ZM348.682 27.728C348.682 27.5413 348.589 27.448 348.402 27.448H345.602C345.415 27.448 345.322 27.5413 345.322 27.728V31.368H348.682V27.728ZM366.606 48C363.731 48 361.659 47.384 360.39 46.152C359.158 44.8827 358.542 42.8293 358.542 39.992V28.008C358.542 25.1333 359.139 23.08 360.334 21.848C361.566 20.616 363.582 20 366.382 20H366.886C367.857 20 368.734 20.168 369.518 20.504V20H377.134V40.552H377.694L378.254 48H369.518V45.032L367.502 48H366.606ZM366.438 27.448C366.251 27.448 366.158 27.5413 366.158 27.728V40.272C366.158 40.4587 366.251 40.552 366.438 40.552H369.518V27.448H366.438ZM392.139 40.552V48H386.651C385.083 48 383.814 47.5333 382.843 46.6C381.873 45.6293 381.387 44.36 381.387 42.792V26.888H379.091L379.651 20H381.387V16.248H380.211L380.771 8.8H388.947V20H391.579L391.019 26.888H388.947V40.552H392.139ZM413.174 32.152L413.622 24.704H423.03V40.216C423.03 43.0533 422.395 45.1067 421.126 46.376C419.894 47.608 417.84 48.224 414.966 48.224H411.942C409.067 48.224 406.995 47.608 405.726 46.376C404.494 45.1067 403.878 43.0533 403.878 40.216V16.584C403.878 13.7093 404.494 11.656 405.726 10.424C406.995 9.192 409.067 8.576 411.942 8.576H414.966C417.84 8.576 419.894 9.192 421.126 10.424C422.395 11.656 423.03 13.7093 423.03 16.584V22.128L415.414 21.288V16.304C415.414 16.1173 415.32 16.024 415.134 16.024H411.774C411.587 16.024 411.494 16.1173 411.494 16.304V40.496C411.494 40.6827 411.587 40.776 411.774 40.776H415.134C415.32 40.776 415.414 40.6827 415.414 40.496V32.152H413.174ZM430.973 18.32L432.989 12.384H438.981L436.965 18.32H430.973ZM425.261 40.44V28.008C425.261 25.1333 425.877 23.08 427.109 21.848C428.378 20.616 430.45 20 433.325 20H435.789C438.663 20 440.717 20.616 441.949 21.848C443.218 23.08 443.853 25.1333 443.853 28.008V37.696H432.877V40.72C432.877 40.9067 432.97 41 433.157 41H435.957C436.143 41 436.237 40.9067 436.237 40.72V38.872H443.853V40.44C443.853 43.2773 443.218 45.3307 441.949 46.6C440.717 47.832 438.663 48.448 435.789 48.448H433.325C430.45 48.448 428.378 47.832 427.109 46.6C425.877 45.368 425.261 43.3147 425.261 40.44ZM436.237 27.728C436.237 27.5413 436.143 27.448 435.957 27.448H433.157C432.97 27.448 432.877 27.5413 432.877 27.728V31.368H436.237V27.728ZM446.657 48V27.448H445.537L446.097 20H454.273V22.968L456.289 20H457.185C460.059 20 462.113 20.616 463.345 21.848C464.614 23.08 465.249 25.1333 465.249 28.008V40.552H466.369L465.809 48H457.633V27.728C457.633 27.5413 457.539 27.448 457.353 27.448H454.273V48H446.657ZM474.34 18.32L476.356 12.384H482.348L480.332 18.32H474.34ZM468.628 40.44V28.008C468.628 25.1333 469.244 23.08 470.476 21.848C471.745 20.616 473.817 20 476.692 20H479.156C482.03 20 484.084 20.616 485.316 21.848C486.585 23.08 487.22 25.1333 487.22 28.008V37.696H476.244V40.72C476.244 40.9067 476.337 41 476.524 41H479.324C479.51 41 479.604 40.9067 479.604 40.72V38.872H487.22V40.44C487.22 43.2773 486.585 45.3307 485.316 46.6C484.084 47.832 482.03 48.448 479.156 48.448H476.692C473.817 48.448 471.745 47.832 470.476 46.6C469.244 45.368 468.628 43.3147 468.628 40.44ZM479.604 27.728C479.604 27.5413 479.51 27.448 479.324 27.448H476.524C476.337 27.448 476.244 27.5413 476.244 27.728V31.368H479.604V27.728ZM490.024 48V27.448H488.904L489.464 20H497.64V23.192L499.656 20H504.192V28.568H497.64V48H490.024ZM513.934 48C511.059 48 508.987 47.384 507.718 46.152C506.486 44.8827 505.87 42.8293 505.87 39.992V28.008C505.87 25.1333 506.467 23.08 507.662 21.848C508.894 20.616 510.91 20 513.71 20H514.214C515.185 20 516.062 20.168 516.846 20.504V20H524.462V40.552H525.022L525.582 48H516.846V45.032L514.83 48H513.934ZM513.766 27.448C513.579 27.448 513.486 27.5413 513.486 27.728V40.272C513.486 40.4587 513.579 40.552 513.766 40.552H516.846V27.448H513.766ZM528.149 48V16.248H527.253L527.813 8.8H535.765V40.552H536.885L537.445 48H528.149ZM340.503 92.68V97.72C340.503 97.9067 340.596 98 340.783 98H342.407C342.594 98 342.687 97.9067 342.687 97.72L342.743 90.272L336.415 87.528C334.996 86.8933 334.044 86.24 333.559 85.568C333.111 84.896 332.887 83.8693 332.887 82.488V73.36C332.887 70.4853 333.503 68.432 334.735 67.2C335.967 65.968 337.964 65.352 340.727 65.352H343.079C345.692 65.464 347.559 66.1547 348.679 67.424C349.799 68.656 350.359 70.6347 350.359 73.36V80.36L342.743 79.52V73.08C342.743 72.8933 342.65 72.8 342.463 72.8H340.783C340.596 72.8 340.503 72.8933 340.503 73.08V81.312L346.831 84.056C348.25 84.6533 349.183 85.3067 349.631 86.016C350.116 86.688 350.359 87.7147 350.359 89.096V97.44C350.359 100.165 349.799 102.163 348.679 103.432C347.559 104.664 345.692 105.336 343.079 105.448H340.839C338.002 105.448 335.967 104.832 334.735 103.6C333.503 102.331 332.887 100.277 332.887 97.44V92.68H340.503ZM352.308 97.44V85.008C352.308 82.1333 352.924 80.08 354.156 78.848C355.425 77.616 357.497 77 360.372 77H362.836C365.71 77 367.764 77.616 368.996 78.848C370.265 80.08 370.9 82.1333 370.9 85.008V90.216L363.284 89.376V84.728C363.284 84.5413 363.19 84.448 363.004 84.448H360.204C360.017 84.448 359.924 84.5413 359.924 84.728V97.72C359.924 97.9067 360.017 98 360.204 98H363.004C363.19 98 363.284 97.9067 363.284 97.72V92.736H370.9V97.44C370.9 100.277 370.265 102.331 368.996 103.6C367.764 104.832 365.71 105.448 362.836 105.448H360.372C357.497 105.448 355.425 104.832 354.156 103.6C352.924 102.368 352.308 100.315 352.308 97.44ZM373.766 74.76L374.326 67.312H381.382V74.76H373.766ZM373.766 105V84.448H372.87L373.43 77H381.382V105H373.766ZM383.643 97.44V85.008C383.643 82.1333 384.259 80.08 385.491 78.848C386.761 77.616 388.833 77 391.707 77H394.171C397.046 77 399.099 77.616 400.331 78.848C401.601 80.08 402.235 82.1333 402.235 85.008V94.696H391.259V97.72C391.259 97.9067 391.353 98 391.539 98H394.339C394.526 98 394.619 97.9067 394.619 97.72V95.872H402.235V97.44C402.235 100.277 401.601 102.331 400.331 103.6C399.099 104.832 397.046 105.448 394.171 105.448H391.707C388.833 105.448 386.761 104.832 385.491 103.6C384.259 102.368 383.643 100.315 383.643 97.44ZM394.619 84.728C394.619 84.5413 394.526 84.448 394.339 84.448H391.539C391.353 84.448 391.259 84.5413 391.259 84.728V88.368H394.619V84.728ZM405.039 105V84.448H403.919L404.479 77H412.655V79.968L414.671 77H415.567C418.442 77 420.495 77.616 421.727 78.848C422.997 80.08 423.631 82.1333 423.631 85.008V97.552H424.751L424.191 105H416.015V84.728C416.015 84.5413 415.922 84.448 415.735 84.448H412.655V105H405.039ZM438.405 97.552V105H432.917C431.349 105 430.08 104.533 429.109 103.6C428.138 102.629 427.653 101.36 427.653 99.792V83.888H425.357L425.917 77H427.653V73.248H426.477L427.037 65.8H435.213V77H437.845L437.285 83.888H435.213V97.552H438.405ZM440.977 74.76L441.537 67.312H448.593V74.76H440.977ZM440.977 105V84.448H440.081L440.641 77H448.593V105H440.977ZM450.294 83.888L450.854 77H452.59V71.008C452.59 69.44 453.076 68.1893 454.046 67.256C455.017 66.2853 456.286 65.8 457.854 65.8H463.342V73.248H460.206V77H462.782L462.222 83.888H460.206V105H452.59V83.888H450.294ZM465.641 74.76L466.201 67.312H473.257V74.76H465.641ZM465.641 105V84.448H464.745L465.305 77H473.257V105H465.641ZM483.576 105C480.701 105 478.629 104.384 477.36 103.152C476.128 101.883 475.512 99.8293 475.512 96.992V85.008C475.512 82.1333 476.109 80.08 477.304 78.848C478.536 77.616 480.552 77 483.352 77H483.856C484.827 77 485.704 77.168 486.488 77.504V77H494.104V104.944H495.224L495.784 112.392H486.488V102.032L484.472 105H483.576ZM483.408 84.448C483.221 84.448 483.128 84.5413 483.128 84.728V97.272C483.128 97.4587 483.221 97.552 483.408 97.552H486.488V84.448H483.408ZM507.89 105V102.032L505.874 105H504.978C502.104 105 500.032 104.384 498.762 103.152C497.53 101.883 496.914 99.8293 496.914 96.992V84.448H495.794L496.354 77H504.53V97.272C504.53 97.4587 504.624 97.552 504.81 97.552H507.89V77H515.506V97.552H516.066L516.626 105H507.89ZM518.284 97.44V85.008C518.284 82.1333 518.9 80.08 520.132 78.848C521.401 77.616 523.473 77 526.348 77H528.812C531.687 77 533.74 77.616 534.972 78.848C536.241 80.08 536.876 82.1333 536.876 85.008V94.696H525.9V97.72C525.9 97.9067 525.993 98 526.18 98H528.98C529.167 98 529.26 97.9067 529.26 97.72V95.872H536.876V97.44C536.876 100.277 536.241 102.331 534.972 103.6C533.74 104.832 531.687 105.448 528.812 105.448H526.348C523.473 105.448 521.401 104.832 520.132 103.6C518.9 102.368 518.284 100.315 518.284 97.44ZM529.26 84.728C529.26 84.5413 529.167 84.448 528.98 84.448H526.18C525.993 84.448 525.9 84.5413 525.9 84.728V88.368H529.26V84.728Z" fill="#F3BB00"/>
<path d="M321.967 145H314.703V136.712C314.703 135.816 314.969 135.101 315.503 134.568C316.057 134.013 316.751 133.736 317.583 133.736H318.766C318.873 133.736 318.927 133.683 318.927 133.576V128.936C318.927 128.829 318.873 128.776 318.766 128.776H314.703V125.8H318.959C319.855 125.8 320.58 126.077 321.135 126.632C321.689 127.165 321.967 127.88 321.967 128.776V133.736C321.967 134.632 321.689 135.357 321.135 135.912C320.58 136.445 319.855 136.712 318.959 136.712H317.903C317.796 136.712 317.743 136.765 317.743 136.872V142.024H321.967V145ZM327.938 125.672C328.812 125.672 329.527 125.949 330.082 126.504C330.658 127.059 330.946 127.773 330.946 128.648V142.024C330.946 142.877 330.658 143.592 330.082 144.168C329.527 144.723 328.812 145 327.938 145H326.242C325.367 145 324.642 144.723 324.066 144.168C323.511 143.592 323.234 142.877 323.234 142.024V128.648C323.234 127.773 323.511 127.059 324.066 126.504C324.62 125.928 325.346 125.651 326.242 125.672H327.938ZM326.21 141.864C326.21 141.971 326.263 142.024 326.37 142.024H327.874C327.98 142.024 328.034 141.971 328.034 141.864V128.808C328.034 128.701 327.98 128.648 327.874 128.648H326.434C326.327 128.648 326.274 128.701 326.274 128.808L326.21 141.864ZM339.498 145H332.234V136.712C332.234 135.816 332.5 135.101 333.034 134.568C333.588 134.013 334.282 133.736 335.114 133.736H336.298C336.404 133.736 336.458 133.683 336.458 133.576V128.936C336.458 128.829 336.404 128.776 336.298 128.776H332.234V125.8H336.49C337.386 125.8 338.111 126.077 338.666 126.632C339.22 127.165 339.498 127.88 339.498 128.776V133.736C339.498 134.632 339.22 135.357 338.666 135.912C338.111 136.445 337.386 136.712 336.49 136.712H335.434C335.327 136.712 335.274 136.765 335.274 136.872V142.024H339.498V145ZM345.469 125.672C346.344 125.672 347.058 125.949 347.613 126.504C348.189 127.059 348.477 127.773 348.477 128.648V142.024C348.477 142.877 348.189 143.592 347.613 144.168C347.058 144.723 346.344 145 345.469 145H343.773C342.898 145 342.173 144.723 341.597 144.168C341.042 143.592 340.765 142.877 340.765 142.024V128.648C340.765 127.773 341.042 127.059 341.597 126.504C342.152 125.928 342.877 125.651 343.773 125.672H345.469ZM343.741 141.864C343.741 141.971 343.794 142.024 343.901 142.024H345.405C345.512 142.024 345.565 141.971 345.565 141.864V128.808C345.565 128.701 345.512 128.648 345.405 128.648H343.965C343.858 128.648 343.805 128.701 343.805 128.808L343.741 141.864ZM355.515 122.6H358.555V148.2H355.515V122.6ZM373.642 142.024L373.385 145H365.738V125.576H365.258L365.578 122.6H368.778V142.024H373.642ZM378.153 145C377.172 145 376.383 144.723 375.785 144.168C375.209 143.592 374.921 142.877 374.921 142.024V131.976H374.441L374.761 129H377.961V142.024H379.817V129H382.857V146.504C382.857 147.336 382.569 147.997 381.993 148.488C381.417 149 380.703 149.256 379.849 149.256H377.929C377.033 149.256 376.308 148.979 375.753 148.424C375.199 147.891 374.921 147.176 374.921 146.28V145.64H377.961V146.504H379.817V143.752L379.017 145H378.153ZM384.296 142.152V131.848C384.296 130.952 384.574 130.237 385.128 129.704C385.683 129.149 386.408 128.872 387.304 128.872H389.608C390.504 128.872 391.23 129.149 391.784 129.704C392.339 130.237 392.616 130.952 392.616 131.848V136.072L389.576 135.752V132.008C389.576 131.901 389.523 131.848 389.416 131.848H387.496C387.39 131.848 387.336 131.901 387.336 132.008V141.992C387.336 142.099 387.39 142.152 387.496 142.152H389.416C389.523 142.152 389.576 142.109 389.576 142.024V138.312H392.616V142.152C392.616 143.048 392.339 143.773 391.784 144.328C391.23 144.861 390.504 145.128 389.608 145.128H387.304C386.408 145.128 385.683 144.861 385.128 144.328C384.574 143.773 384.296 143.048 384.296 142.152ZM397.474 125.224H400.034L399.17 127.784H396.61L397.474 125.224ZM393.89 142.152V131.848C393.89 130.952 394.167 130.237 394.722 129.704C395.277 129.149 396.002 128.872 396.898 128.872H398.882C399.778 128.872 400.503 129.149 401.058 129.704C401.613 130.237 401.89 130.952 401.89 131.848V135.784H398.85V132.008C398.85 131.901 398.797 131.848 398.69 131.848H397.09C396.983 131.848 396.93 131.901 396.93 132.008V135.784H401.89V138.76H396.93V141.992C396.93 142.099 396.983 142.152 397.09 142.152H398.69C398.797 142.152 398.85 142.109 398.85 142.024V140.264H401.89V142.152C401.89 143.048 401.613 143.773 401.058 144.328C400.503 144.861 399.778 145.128 398.882 145.128H396.898C396.002 145.128 395.277 144.861 394.722 144.328C394.167 143.773 393.89 143.048 393.89 142.152ZM403.171 142.152V131.848C403.171 130.952 403.449 130.237 404.003 129.704C404.558 129.149 405.283 128.872 406.179 128.872H408.163C409.059 128.872 409.785 129.149 410.339 129.704C410.894 130.237 411.171 130.952 411.171 131.848V135.784H408.131V132.008C408.131 131.901 408.078 131.848 407.971 131.848H406.371C406.265 131.848 406.211 131.901 406.211 132.008V135.784H411.171V138.76H406.211V141.992C406.211 142.099 406.265 142.152 406.371 142.152H407.971C408.078 142.152 408.131 142.109 408.131 142.024V140.264H411.171V142.152C411.171 143.048 410.894 143.773 410.339 144.328C409.785 144.861 409.059 145.128 408.163 145.128H406.179C405.283 145.128 404.558 144.861 404.003 144.328C403.449 143.773 403.171 143.048 403.171 142.152ZM418.363 145V125.576H417.883L418.203 122.6H423.195L424.731 134.664L426.299 122.6H431.195V145H428.155V127.592L425.786 141.8H423.707L421.403 127.976V145H418.363ZM435.872 145C434.891 145 434.101 144.723 433.504 144.168C432.928 143.592 432.64 142.877 432.64 142.024V131.976C432.64 131.101 432.928 130.387 433.504 129.832C434.101 129.277 434.891 129 435.872 129H436C436.576 129 437.088 129.139 437.536 129.416V129H440.576V142.024H441.024L441.344 145H437.536V143.752L436.736 145H435.872ZM435.84 131.976C435.733 131.976 435.68 132.029 435.68 132.136V141.864C435.68 141.971 435.733 142.024 435.84 142.024H437.536V131.976H435.84ZM445.784 129V130.408L446.648 129H448.792V132.104H445.784V145H442.744V131.976H441.976L442.296 129H445.784ZM449.765 142.152V131.848C449.765 130.952 450.042 130.237 450.597 129.704C451.152 129.149 451.877 128.872 452.773 128.872H455.077C455.973 128.872 456.698 129.149 457.253 129.704C457.808 130.237 458.085 130.952 458.085 131.848V136.072L455.045 135.752V132.008C455.045 131.901 454.992 131.848 454.885 131.848H452.965C452.858 131.848 452.805 131.901 452.805 132.008V141.992C452.805 142.099 452.858 142.152 452.965 142.152H454.885C454.992 142.152 455.045 142.109 455.045 142.024V138.312H458.085V142.152C458.085 143.048 457.808 143.773 457.253 144.328C456.698 144.861 455.973 145.128 455.077 145.128H452.773C451.877 145.128 451.152 144.861 450.597 144.328C450.042 143.773 449.765 143.048 449.765 142.152ZM459.359 142.152V131.848C459.359 130.952 459.636 130.237 460.191 129.704C460.745 129.149 461.471 128.872 462.367 128.872H464.351C465.247 128.872 465.972 129.149 466.527 129.704C467.081 130.237 467.359 130.952 467.359 131.848V135.784H464.319V132.008C464.319 131.901 464.265 131.848 464.159 131.848H462.559C462.452 131.848 462.399 131.901 462.399 132.008V135.784H467.359V138.76H462.399V141.992C462.399 142.099 462.452 142.152 462.559 142.152H464.159C464.265 142.152 464.319 142.109 464.319 142.024V140.264H467.359V142.152C467.359 143.048 467.081 143.773 466.527 144.328C465.972 144.861 465.247 145.128 464.351 145.128H462.367C461.471 145.128 460.745 144.861 460.191 144.328C459.636 143.773 459.359 143.048 459.359 142.152ZM472 122.6L472.032 142.024H472.832L473.152 145H468.992L468.96 125.576H468.32L468.64 122.6H472ZM482.899 138.6V141.992C482.899 142.099 482.952 142.152 483.059 142.152H484.339C484.445 142.152 484.499 142.099 484.499 141.992V136.232L481.971 135.112C481.779 135.048 481.512 134.941 481.171 134.792C480.829 134.621 480.52 134.376 480.243 134.056C479.987 133.736 479.859 133.299 479.859 132.744V125.448C479.859 124.552 480.136 123.837 480.691 123.304C481.245 122.749 481.971 122.472 482.867 122.472H484.531C485.427 122.472 486.152 122.749 486.707 123.304C487.261 123.837 487.539 124.552 487.539 125.448V130.184L484.499 129.928V125.608C484.499 125.501 484.445 125.448 484.339 125.448H483.059C482.952 125.448 482.899 125.501 482.899 125.608V132.296L485.427 133.416C485.619 133.501 485.885 133.619 486.227 133.768C486.568 133.917 486.867 134.152 487.123 134.472C487.4 134.792 487.539 135.229 487.539 135.784V142.152C487.539 143.048 487.261 143.773 486.707 144.328C486.152 144.861 485.427 145.128 484.531 145.128H482.867C481.971 145.128 481.245 144.861 480.691 144.328C480.136 143.773 479.859 143.048 479.859 142.152V138.6H482.899ZM488.828 142.152V131.848C488.828 130.952 489.105 130.237 489.66 129.704C490.214 129.149 490.94 128.872 491.836 128.872H493.82C494.716 128.872 495.441 129.149 495.996 129.704C496.55 130.237 496.828 130.952 496.828 131.848V135.784H493.788V132.008C493.788 131.901 493.734 131.848 493.628 131.848H492.028C491.921 131.848 491.868 131.901 491.868 132.008V135.784H496.828V138.76H491.868V141.992C491.868 142.099 491.921 142.152 492.028 142.152H493.628C493.734 142.152 493.788 142.109 493.788 142.024V140.264H496.828V142.152C496.828 143.048 496.55 143.773 495.996 144.328C495.441 144.861 494.716 145.128 493.82 145.128H491.836C490.94 145.128 490.214 144.861 489.66 144.328C489.105 143.773 488.828 143.048 488.828 142.152ZM506.493 145H503.453V132.136C503.453 132.029 503.399 131.976 503.293 131.976H501.597V145H498.557V131.976H497.789L498.109 129H501.597V130.248L502.397 129H503.261C503.965 129 504.573 129.149 505.085 129.448C505.597 129.747 505.97 130.152 506.205 130.664L507.293 129H508.157C509.138 129 509.917 129.277 510.493 129.832C511.09 130.387 511.389 131.101 511.389 131.976V142.024H512.157L511.837 145H508.349V132.136C508.349 132.029 508.295 131.976 508.189 131.976H506.493V145ZM513.244 145V125.576H512.476L512.796 122.6H516.284V130.248L517.084 129H517.948C518.93 129 519.708 129.277 520.284 129.832C520.882 130.387 521.18 131.101 521.18 131.976V142.024C521.18 142.877 520.882 143.592 520.284 144.168C519.708 144.723 518.93 145 517.948 145H517.82C517.244 145 516.732 144.861 516.284 144.584V145H513.244ZM517.98 131.976H516.284V142.024H517.98C518.087 142.024 518.14 141.971 518.14 141.864V132.136C518.14 132.029 518.087 131.976 517.98 131.976ZM525.685 145C524.703 145 523.914 144.723 523.317 144.168C522.741 143.592 522.453 142.877 522.453 142.024V131.976C522.453 131.101 522.741 130.387 523.317 129.832C523.914 129.277 524.703 129 525.685 129H525.812C526.389 129 526.901 129.139 527.349 129.416V129H530.389V142.024H530.837L531.157 145H527.349V143.752L526.549 145H525.685ZM525.653 131.976C525.546 131.976 525.493 132.029 525.493 132.136V141.864C525.493 141.971 525.546 142.024 525.653 142.024H527.349V131.976H525.653ZM537.684 142.024V145H535.828C534.932 145 534.207 144.733 533.652 144.2C533.098 143.645 532.82 142.92 532.82 142.024V131.976H531.476L531.732 129H532.82V125.576H532.02L532.276 122.6H535.86V129H537.684L537.428 131.976H535.86V142.024H537.684Z" fill="black" fill-opacity="0.56"/>
<path d="M698.184 281.056V249.304H697.12L697.904 241.856H705.8V273.552H716.496L716.048 281H705.8V281.056H698.184ZM718.946 281V273.552H720.682V254.848H718.722L719.954 247.4H728.298V273.552H730.09V281H718.946ZM743.185 281V249.248H742.121L742.905 241.8H753.601C756.476 241.8 758.529 242.435 759.761 243.704C761.031 244.936 761.665 246.971 761.665 249.808V257.144C761.665 258.264 761.572 259.253 761.385 260.112C762.319 261.344 762.785 263.211 762.785 265.712V272.992C762.785 275.829 762.151 277.883 760.881 279.152C759.649 280.384 757.596 281 754.721 281H743.185ZM753.769 257.704C753.956 257.704 754.049 257.611 754.049 257.424V249.528C754.049 249.341 753.956 249.248 753.769 249.248H750.801V257.704H753.769ZM755.169 265.432C755.169 265.245 755.076 265.152 754.889 265.152H750.801V273.552H754.889C755.076 273.552 755.169 273.459 755.169 273.272V265.432ZM765.664 250.76L766.224 243.312H773.28V250.76H765.664ZM765.664 281V260.448H764.768L765.328 253H773.28V281H765.664ZM786.791 260.728C786.791 260.541 786.698 260.448 786.511 260.448H783.711C783.525 260.448 783.431 260.541 783.431 260.728V273.72C783.431 273.907 783.525 274 783.711 274H786.511C786.698 274 786.791 273.907 786.791 273.72V260.728ZM775.815 273.44V261.008C775.815 258.133 776.431 256.08 777.663 254.848C778.933 253.616 781.005 253 783.879 253H786.343C789.218 253 791.271 253.616 792.503 254.848C793.773 256.08 794.407 258.133 794.407 261.008V273.44C794.407 276.277 793.773 278.331 792.503 279.6C791.271 280.832 789.218 281.448 786.343 281.448H783.879C781.005 281.448 778.933 280.832 777.663 279.6C776.431 278.368 775.815 276.315 775.815 273.44ZM797.274 281V249.248H796.378L796.938 241.8H804.89V273.552H806.01L806.57 281H797.274ZM818.948 260.728C818.948 260.541 818.854 260.448 818.668 260.448H815.868C815.681 260.448 815.588 260.541 815.588 260.728V273.72C815.588 273.907 815.681 274 815.868 274H818.668C818.854 274 818.948 273.907 818.948 273.72V260.728ZM807.972 273.44V261.008C807.972 258.133 808.588 256.08 809.82 254.848C811.089 253.616 813.161 253 816.036 253H818.5C821.374 253 823.428 253.616 824.66 254.848C825.929 256.08 826.564 258.133 826.564 261.008V273.44C826.564 276.277 825.929 278.331 824.66 279.6C823.428 280.832 821.374 281.448 818.5 281.448H816.036C813.161 281.448 811.089 280.832 809.82 279.6C808.588 278.368 807.972 276.315 807.972 273.44ZM836.424 281.728V282.904C836.424 283.091 836.517 283.184 836.704 283.184H839.504C839.69 283.184 839.784 283.091 839.784 282.904V278.872L838.328 281H836.872C833.997 281 831.925 280.384 830.656 279.152C829.424 277.883 828.808 275.829 828.808 272.992V261.008C828.808 258.133 829.405 256.08 830.6 254.848C831.832 253.616 833.848 253 836.648 253H837.152C838.122 253 839 253.168 839.784 253.504V253H847.4V281.504C847.4 284.341 846.765 286.376 845.496 287.608C844.264 288.877 842.21 289.512 839.336 289.512H836.872C834.109 289.512 832.074 288.877 830.768 287.608C829.461 286.339 828.808 284.397 828.808 281.784V281.728H836.424ZM836.704 260.448C836.517 260.448 836.424 260.541 836.424 260.728V273.272C836.424 273.459 836.517 273.552 836.704 273.552H839.784V260.448H836.704ZM850.266 250.76L850.826 243.312H857.882V250.76H850.266ZM850.266 281V260.448H849.37L849.93 253H857.882V281H850.266ZM860.143 273.44V261.008C860.143 258.133 860.759 256.08 861.991 254.848C863.261 253.616 865.333 253 868.207 253H870.671C873.546 253 875.599 253.616 876.831 254.848C878.101 256.08 878.735 258.133 878.735 261.008V270.696H867.759V273.72C867.759 273.907 867.853 274 868.039 274H870.839C871.026 274 871.119 273.907 871.119 273.72V271.872H878.735V273.44C878.735 276.277 878.101 278.331 876.831 279.6C875.599 280.832 873.546 281.448 870.671 281.448H868.207C865.333 281.448 863.261 280.832 861.991 279.6C860.759 278.368 860.143 276.315 860.143 273.44ZM871.119 260.728C871.119 260.541 871.026 260.448 870.839 260.448H868.039C867.853 260.448 867.759 260.541 867.759 260.728V264.368H871.119V260.728Z" fill="#F3BB00"/>
<path d="M703.904 321H696.64V312.712C696.64 311.816 696.907 311.101 697.44 310.568C697.995 310.013 698.688 309.736 699.52 309.736H700.704C700.811 309.736 700.864 309.683 700.864 309.576V304.936C700.864 304.829 700.811 304.776 700.704 304.776H696.64V301.8H700.896C701.792 301.8 702.517 302.077 703.072 302.632C703.627 303.165 703.904 303.88 703.904 304.776V309.736C703.904 310.632 703.627 311.357 703.072 311.912C702.517 312.445 701.792 312.712 700.896 312.712H699.84C699.733 312.712 699.68 312.765 699.68 312.872V318.024H703.904V321ZM709.875 301.672C710.75 301.672 711.465 301.949 712.019 302.504C712.595 303.059 712.883 303.773 712.883 304.648V318.024C712.883 318.877 712.595 319.592 712.019 320.168C711.465 320.723 710.75 321 709.875 321H708.179C707.305 321 706.579 320.723 706.003 320.168C705.449 319.592 705.171 318.877 705.171 318.024V304.648C705.171 303.773 705.449 303.059 706.003 302.504C706.558 301.928 707.283 301.651 708.179 301.672H709.875ZM708.147 317.864C708.147 317.971 708.201 318.024 708.307 318.024H709.811C709.918 318.024 709.971 317.971 709.971 317.864V304.808C709.971 304.701 709.918 304.648 709.811 304.648H708.371C708.265 304.648 708.211 304.701 708.211 304.808L708.147 317.864ZM721.435 321H714.171V312.712C714.171 311.816 714.438 311.101 714.971 310.568C715.526 310.013 716.219 309.736 717.051 309.736H718.235C718.342 309.736 718.395 309.683 718.395 309.576V304.936C718.395 304.829 718.342 304.776 718.235 304.776H714.171V301.8H718.427C719.323 301.8 720.049 302.077 720.603 302.632C721.158 303.165 721.435 303.88 721.435 304.776V309.736C721.435 310.632 721.158 311.357 720.603 311.912C720.049 312.445 719.323 312.712 718.427 312.712H717.371C717.265 312.712 717.211 312.765 717.211 312.872V318.024H721.435V321ZM727.823 318.024V321H722.767V318.024H723.855V304.776H722.703L723.343 301.8H726.895V318.024H727.823ZM735.189 309.832V312.872H729.109V309.832H735.189ZM743.748 321H736.484V312.712C736.484 311.816 736.75 311.101 737.284 310.568C737.838 310.013 738.532 309.736 739.364 309.736H740.548C740.654 309.736 740.708 309.683 740.708 309.576V304.936C740.708 304.829 740.654 304.776 740.548 304.776H736.484V301.8H740.74C741.636 301.8 742.361 302.077 742.916 302.632C743.47 303.165 743.748 303.88 743.748 304.776V309.736C743.748 310.632 743.47 311.357 742.916 311.912C742.361 312.445 741.636 312.712 740.74 312.712H739.684C739.577 312.712 739.524 312.765 739.524 312.872V318.024H743.748V321ZM749.719 301.672C750.594 301.672 751.308 301.949 751.863 302.504C752.439 303.059 752.727 303.773 752.727 304.648V318.024C752.727 318.877 752.439 319.592 751.863 320.168C751.308 320.723 750.594 321 749.719 321H748.023C747.148 321 746.423 320.723 745.847 320.168C745.292 319.592 745.015 318.877 745.015 318.024V304.648C745.015 303.773 745.292 303.059 745.847 302.504C746.402 301.928 747.127 301.651 748.023 301.672H749.719ZM747.991 317.864C747.991 317.971 748.044 318.024 748.151 318.024H749.655C749.762 318.024 749.815 317.971 749.815 317.864V304.808C749.815 304.701 749.762 304.648 749.655 304.648H748.215C748.108 304.648 748.055 304.701 748.055 304.808L747.991 317.864ZM761.279 321H754.015V312.712C754.015 311.816 754.282 311.101 754.815 310.568C755.37 310.013 756.063 309.736 756.895 309.736H758.079C758.186 309.736 758.239 309.683 758.239 309.576V304.936C758.239 304.829 758.186 304.776 758.079 304.776H754.015V301.8H758.271C759.167 301.8 759.892 302.077 760.447 302.632C761.002 303.165 761.279 303.88 761.279 304.776V309.736C761.279 310.632 761.002 311.357 760.447 311.912C759.892 312.445 759.167 312.712 758.271 312.712H757.215C757.108 312.712 757.055 312.765 757.055 312.872V318.024H761.279V321ZM769.81 321H762.546V312.712C762.546 311.816 762.813 311.101 763.346 310.568C763.901 310.013 764.594 309.736 765.426 309.736H766.61C766.717 309.736 766.77 309.683 766.77 309.576V304.936C766.77 304.829 766.717 304.776 766.61 304.776H762.546V301.8H766.802C767.698 301.8 768.424 302.077 768.978 302.632C769.533 303.165 769.81 303.88 769.81 304.776V309.736C769.81 310.632 769.533 311.357 768.978 311.912C768.424 312.445 767.698 312.712 766.802 312.712H765.746C765.64 312.712 765.586 312.765 765.586 312.872V318.024H769.81V321ZM776.828 298.6H779.868V324.2H776.828V298.6ZM795.05 318.152C795.05 319.048 794.773 319.773 794.218 320.328C793.663 320.861 792.938 321.128 792.042 321.128H790.058C789.162 321.128 788.437 320.861 787.882 320.328C787.327 319.773 787.05 319.048 787.05 318.152V301.576H786.57L786.89 298.6H790.09V317.992C790.09 318.099 790.143 318.152 790.25 318.152H791.85C791.957 318.152 792.01 318.099 792.01 317.992V298.664H795.05V318.152ZM796.776 321V307.976H796.008L796.328 305H799.816V306.248L800.616 305H801.48C802.461 305 803.24 305.277 803.816 305.832C804.413 306.387 804.712 307.101 804.712 307.976V318.024H805.512L805.192 321H801.672V308.136C801.672 308.029 801.618 307.976 801.512 307.976H799.816V321H796.776ZM809.208 300.744L809.528 303.72H806.488V300.744H809.208ZM809.528 305V321H806.488V307.976H806.008L806.328 305H809.528ZM810.476 305H813.292L815.084 315.336L816.876 305H819.692L816.62 321H813.548L810.476 305ZM820.484 318.152V307.848C820.484 306.952 820.761 306.237 821.316 305.704C821.87 305.149 822.596 304.872 823.492 304.872H825.476C826.372 304.872 827.097 305.149 827.652 305.704C828.206 306.237 828.484 306.952 828.484 307.848V311.784H825.444V308.008C825.444 307.901 825.39 307.848 825.284 307.848H823.684C823.577 307.848 823.524 307.901 823.524 308.008V311.784H828.484V314.76H823.524V317.992C823.524 318.099 823.577 318.152 823.684 318.152H825.284C825.39 318.152 825.444 318.109 825.444 318.024V316.264H828.484V318.152C828.484 319.048 828.206 319.773 827.652 320.328C827.097 320.861 826.372 321.128 825.476 321.128H823.492C822.596 321.128 821.87 320.861 821.316 320.328C820.761 319.773 820.484 319.048 820.484 318.152ZM833.409 305V306.408L834.273 305H836.417V308.104H833.409V321H830.369V307.976H829.601L829.921 305H833.409ZM837.39 315.976L840.43 316.296V317.864C840.43 317.971 840.483 318.024 840.59 318.024H841.87C841.977 318.024 842.03 317.971 842.03 317.864V314.888L839.182 313.672C838.841 313.523 838.457 313.288 838.03 312.968C837.603 312.648 837.39 312.125 837.39 311.4V307.848C837.39 306.952 837.667 306.237 838.222 305.704C838.777 305.149 839.502 304.872 840.398 304.872H842.062C842.958 304.872 843.683 305.149 844.238 305.704C844.793 306.237 845.07 306.952 845.07 307.848V309.896L842.03 309.576V308.008C842.03 307.901 841.977 307.848 841.87 307.848H840.59C840.483 307.848 840.43 307.901 840.43 308.008V310.984L843.278 312.2C843.619 312.349 844.003 312.584 844.43 312.904C844.857 313.224 845.07 313.747 845.07 314.472V318.024C845.07 318.92 844.793 319.645 844.238 320.2C843.683 320.733 842.958 321 842.062 321H840.398C839.502 321 838.777 320.733 838.222 320.2C837.667 319.645 837.39 318.92 837.39 318.024V315.976ZM849.239 300.744L849.559 303.72H846.519V300.744H849.239ZM849.559 305V321H846.519V307.976H846.039L846.359 305H849.559ZM856.716 318.024V321H854.86C853.964 321 853.238 320.733 852.684 320.2C852.129 319.645 851.852 318.92 851.852 318.024V307.976H850.508L850.764 305H851.852V301.576H851.052L851.308 298.6H854.891V305H856.716L856.46 307.976H854.891V318.024H856.716ZM861.255 301.224H863.815L862.951 303.784H860.391L861.255 301.224ZM857.671 318.152V307.848C857.671 306.952 857.949 306.237 858.503 305.704C859.058 305.149 859.783 304.872 860.679 304.872H862.663C863.559 304.872 864.285 305.149 864.839 305.704C865.394 306.237 865.671 306.952 865.671 307.848V311.784H862.631V308.008C862.631 307.901 862.578 307.848 862.471 307.848H860.871C860.765 307.848 860.711 307.901 860.711 308.008V311.784H865.671V314.76H860.711V317.992C860.711 318.099 860.765 318.152 860.871 318.152H862.471C862.578 318.152 862.631 318.109 862.631 318.024V316.264H865.671V318.152C865.671 319.048 865.394 319.773 864.839 320.328C864.285 320.861 863.559 321.128 862.663 321.128H860.679C859.783 321.128 859.058 320.861 858.503 320.328C857.949 319.773 857.671 319.048 857.671 318.152ZM880.767 318.024L880.51 321H872.863V301.576H872.383L872.703 298.6H875.903V318.024H880.767ZM885.278 321C884.297 321 883.508 320.723 882.91 320.168C882.334 319.592 882.046 318.877 882.046 318.024V307.976H881.566L881.886 305H885.086V318.024H886.942V305H889.982V322.504C889.982 323.336 889.694 323.997 889.118 324.488C888.542 325 887.828 325.256 886.974 325.256H885.054C884.158 325.256 883.433 324.979 882.878 324.424C882.324 323.891 882.046 323.176 882.046 322.28V321.64H885.086V322.504H886.942V319.752L886.142 321H885.278ZM896.701 308.008C896.701 307.901 896.648 307.848 896.541 307.848H894.621C894.515 307.848 894.461 307.901 894.461 308.008V317.992C894.461 318.099 894.515 318.152 894.621 318.152H896.541C896.648 318.152 896.701 318.109 896.701 318.024V308.008ZM891.421 318.152V307.848C891.421 306.952 891.699 306.237 892.253 305.704C892.808 305.149 893.533 304.872 894.429 304.872H896.733C897.629 304.872 898.355 305.149 898.909 305.704C899.464 306.237 899.741 306.952 899.741 307.848V318.152C899.741 319.048 899.464 319.773 898.909 320.328C898.355 320.861 897.629 321.128 896.733 321.128H894.429C893.533 321.128 892.808 320.861 892.253 320.328C891.699 319.773 891.421 319.048 891.421 318.152ZM901.463 321V307.976H900.695L901.015 305H904.503V306.248L905.303 305H906.167C907.148 305 907.927 305.277 908.503 305.832C909.1 306.387 909.399 307.101 909.399 307.976V318.024H910.199L909.879 321H906.359V308.136C906.359 308.029 906.306 307.976 906.199 307.976H904.503V321H901.463ZM922.041 318.024V321H916.985V318.024H918.073V304.776H916.921L917.561 301.8H921.113V318.024H922.041ZM937.142 318.024L936.885 321H929.238V301.576H928.758L929.078 298.6H932.278V318.024H937.142ZM941.653 321C940.672 321 939.883 320.723 939.285 320.168C938.709 319.592 938.421 318.877 938.421 318.024V307.976C938.421 307.101 938.709 306.387 939.285 305.832C939.883 305.277 940.672 305 941.653 305H941.781C942.357 305 942.869 305.139 943.317 305.416V305H946.357V318.024H946.805L947.125 321H943.317V319.752L942.517 321H941.653ZM941.621 307.976C941.515 307.976 941.461 308.029 941.461 308.136V317.864C941.461 317.971 941.515 318.024 941.621 318.024H943.317V307.976H941.621ZM957.06 321C956.078 321 955.289 320.723 954.692 320.168C954.116 319.592 953.828 318.877 953.828 318.024V307.976C953.828 307.101 954.116 306.387 954.692 305.832C955.289 305.277 956.078 305 957.06 305H957.188C957.764 305 958.276 305.139 958.724 305.416V301.576H957.956L958.276 298.6H961.764V318.024H962.212L962.532 321H958.724V319.752L957.924 321H957.06ZM957.028 307.976C956.921 307.976 956.868 308.029 956.868 308.136V317.864C956.868 317.971 956.921 318.024 957.028 318.024H958.724V307.976H957.028ZM968.451 308.008C968.451 307.901 968.398 307.848 968.291 307.848H966.371C966.265 307.848 966.211 307.901 966.211 308.008V317.992C966.211 318.099 966.265 318.152 966.371 318.152H968.291C968.398 318.152 968.451 318.109 968.451 318.024V308.008ZM963.171 318.152V307.848C963.171 306.952 963.449 306.237 964.003 305.704C964.558 305.149 965.283 304.872 966.179 304.872H968.483C969.379 304.872 970.105 305.149 970.659 305.704C971.214 306.237 971.491 306.952 971.491 307.848V318.152C971.491 319.048 971.214 319.773 970.659 320.328C970.105 320.861 969.379 321.128 968.483 321.128H966.179C965.283 321.128 964.558 320.861 964.003 320.328C963.449 319.773 963.171 319.048 963.171 318.152ZM977.953 318.024V305H980.993V318.024H981.473L981.793 321H977.953V319.752L977.153 321H976.289C975.307 321 974.518 320.723 973.921 320.168C973.345 319.592 973.057 318.877 973.057 318.024V307.976H972.289L972.609 305H976.097V317.864C976.097 317.971 976.15 318.024 976.257 318.024H977.953ZM985.653 321C984.672 321 983.883 320.723 983.285 320.168C982.709 319.592 982.421 318.877 982.421 318.024V307.976C982.421 307.101 982.709 306.387 983.285 305.832C983.883 305.277 984.672 305 985.653 305H985.781C986.357 305 986.869 305.139 987.317 305.416V305H990.357V318.024H990.805L991.125 321H987.317V319.752L986.517 321H985.653ZM985.621 307.976C985.515 307.976 985.461 308.029 985.461 308.136V317.864C985.461 317.971 985.515 318.024 985.621 318.024H987.317V307.976H985.621ZM1006.15 318.024C1006.15 318.92 1005.87 319.645 1005.32 320.2C1004.76 320.733 1004.04 321 1003.14 321H1000.84C999.94 321 999.214 320.733 998.66 320.2C998.105 319.645 997.828 318.92 997.828 318.024V301.576C997.828 300.68 998.105 299.965 998.66 299.432C999.214 298.877 999.94 298.6 1000.84 298.6H1003.14C1004.04 298.6 1004.76 298.877 1005.32 299.432C1005.87 299.965 1006.15 300.68 1006.15 301.576V306.696H1003.11V301.736C1003.11 301.629 1003.05 301.576 1002.95 301.576H1001.03C1000.92 301.576 1000.87 301.629 1000.87 301.736V317.864C1000.87 317.971 1000.92 318.024 1001.03 318.024H1002.95C1003.05 318.024 1003.11 317.971 1003.11 317.864V311.24H1001.86L1002.12 308.264H1006.15V318.024ZM1010.65 321C1009.67 321 1008.88 320.723 1008.29 320.168C1007.71 319.592 1007.42 318.877 1007.42 318.024V307.976C1007.42 307.101 1007.71 306.387 1008.29 305.832C1008.88 305.277 1009.67 305 1010.65 305H1010.78C1011.36 305 1011.87 305.139 1012.32 305.416V305H1015.36V318.024H1015.81L1016.13 321H1012.32V319.752L1011.52 321H1010.65ZM1010.62 307.976C1010.51 307.976 1010.46 308.029 1010.46 308.136V317.864C1010.46 317.971 1010.51 318.024 1010.62 318.024H1012.32V307.976H1010.62ZM1016.92 315.976L1019.96 316.296V317.864C1019.96 317.971 1020.01 318.024 1020.12 318.024H1021.4C1021.51 318.024 1021.56 317.971 1021.56 317.864V314.888L1018.71 313.672C1018.37 313.523 1017.99 313.288 1017.56 312.968C1017.13 312.648 1016.92 312.125 1016.92 311.4V307.848C1016.92 306.952 1017.2 306.237 1017.75 305.704C1018.31 305.149 1019.03 304.872 1019.93 304.872H1021.59C1022.49 304.872 1023.21 305.149 1023.77 305.704C1024.32 306.237 1024.6 306.952 1024.6 307.848V309.896L1021.56 309.576V308.008C1021.56 307.901 1021.51 307.848 1021.4 307.848H1020.12C1020.01 307.848 1019.96 307.901 1019.96 308.008V310.984L1022.81 312.2C1023.15 312.349 1023.53 312.584 1023.96 312.904C1024.39 313.224 1024.6 313.747 1024.6 314.472V318.024C1024.6 318.92 1024.32 319.645 1023.77 320.2C1023.21 320.733 1022.49 321 1021.59 321H1019.93C1019.03 321 1018.31 320.733 1017.75 320.2C1017.2 319.645 1016.92 318.92 1016.92 318.024V315.976ZM1031.78 318.024V321H1029.92C1029.03 321 1028.3 320.733 1027.75 320.2C1027.19 319.645 1026.91 318.92 1026.91 318.024V307.976H1025.57L1025.83 305H1026.91V301.576H1026.11L1026.37 298.6H1029.95V305H1031.78L1031.52 307.976H1029.95V318.024H1031.78ZM1037.86 308.008C1037.86 307.901 1037.8 307.848 1037.7 307.848H1035.78C1035.67 307.848 1035.62 307.901 1035.62 308.008V317.992C1035.62 318.099 1035.67 318.152 1035.78 318.152H1037.7C1037.8 318.152 1037.86 318.109 1037.86 318.024V308.008ZM1032.58 318.152V307.848C1032.58 306.952 1032.85 306.237 1033.41 305.704C1033.96 305.149 1034.69 304.872 1035.59 304.872H1037.89C1038.79 304.872 1039.51 305.149 1040.07 305.704C1040.62 306.237 1040.9 306.952 1040.9 307.848V318.152C1040.9 319.048 1040.62 319.773 1040.07 320.328C1039.51 320.861 1038.79 321.128 1037.89 321.128H1035.59C1034.69 321.128 1033.96 320.861 1033.41 320.328C1032.85 319.773 1032.58 319.048 1032.58 318.152ZM1042.62 321V307.976H1041.85L1042.17 305H1045.66V306.248L1046.46 305H1047.32C1048.3 305 1049.08 305.277 1049.66 305.832C1050.26 306.387 1050.56 307.101 1050.56 307.976V318.024H1051.36L1051.04 321H1047.52V308.136C1047.52 308.029 1047.46 307.976 1047.36 307.976H1045.66V321H1042.62ZM1058.08 321.224V301.576H1057.6L1057.92 298.6H1062.97C1063.87 298.6 1064.59 298.877 1065.15 299.432C1065.7 299.965 1065.98 300.68 1065.98 301.576V308.296C1065.98 308.595 1065.94 308.883 1065.85 309.16C1066.37 309.715 1066.62 310.419 1066.62 311.272V318.248C1066.62 319.144 1066.28 319.869 1065.6 320.424C1064.94 320.957 1064.16 321.224 1063.26 321.224H1058.08ZM1062.78 301.576H1061.12V308.296H1062.78C1062.89 308.296 1062.94 308.243 1062.94 308.136V301.736C1062.94 301.629 1062.89 301.576 1062.78 301.576ZM1063.42 311.272H1061.12V318.248H1063.42C1063.53 318.248 1063.58 318.195 1063.58 318.088V311.432C1063.58 311.325 1063.53 311.272 1063.42 311.272ZM1067.89 318.152V307.848C1067.89 306.952 1068.17 306.237 1068.72 305.704C1069.28 305.149 1070 304.872 1070.9 304.872H1072.88C1073.78 304.872 1074.5 305.149 1075.06 305.704C1075.61 306.237 1075.89 306.952 1075.89 307.848V311.784H1072.85V308.008C1072.85 307.901 1072.8 307.848 1072.69 307.848H1071.09C1070.98 307.848 1070.93 307.901 1070.93 308.008V311.784H1075.89V314.76H1070.93V317.992C1070.93 318.099 1070.98 318.152 1071.09 318.152H1072.69C1072.8 318.152 1072.85 318.109 1072.85 318.024V316.264H1075.89V318.152C1075.89 319.048 1075.61 319.773 1075.06 320.328C1074.5 320.861 1073.78 321.128 1072.88 321.128H1070.9C1070 321.128 1069.28 320.861 1068.72 320.328C1068.17 319.773 1067.89 319.048 1067.89 318.152ZM1080.82 305V306.408L1081.68 305H1083.82V308.104H1080.82V321H1077.78V307.976H1077.01L1077.33 305H1080.82ZM1087.67 321.64V322.344C1087.67 322.451 1087.73 322.504 1087.83 322.504H1089.37C1089.48 322.504 1089.53 322.451 1089.53 322.344V319.752L1088.73 321H1087.86C1086.88 321 1086.09 320.723 1085.5 320.168C1084.92 319.592 1084.63 318.877 1084.63 318.024V307.976C1084.63 307.101 1084.92 306.387 1085.5 305.832C1086.09 305.277 1086.88 305 1087.86 305H1087.99C1088.57 305 1089.08 305.139 1089.53 305.416V305H1092.57V322.28C1092.57 323.176 1092.29 323.891 1091.74 324.424C1091.18 324.979 1090.46 325.256 1089.56 325.256H1087.64C1086.74 325.256 1086.02 324.979 1085.46 324.424C1084.91 323.891 1084.63 323.176 1084.63 322.28V321.64H1087.67ZM1087.83 307.976C1087.73 307.976 1087.67 308.029 1087.67 308.136V317.864C1087.67 317.971 1087.73 318.024 1087.83 318.024H1089.53V307.976H1087.83ZM1093.83 318.152V307.848C1093.83 306.952 1094.1 306.237 1094.66 305.704C1095.21 305.149 1095.94 304.872 1096.84 304.872H1098.82C1099.72 304.872 1100.44 305.149 1101 305.704C1101.55 306.237 1101.83 306.952 1101.83 307.848V311.784H1098.79V308.008C1098.79 307.901 1098.73 307.848 1098.63 307.848H1097.03C1096.92 307.848 1096.87 307.901 1096.87 308.008V311.784H1101.83V314.76H1096.87V317.992C1096.87 318.099 1096.92 318.152 1097.03 318.152H1098.63C1098.73 318.152 1098.79 318.109 1098.79 318.024V316.264H1101.83V318.152C1101.83 319.048 1101.55 319.773 1101 320.328C1100.44 320.861 1099.72 321.128 1098.82 321.128H1096.84C1095.94 321.128 1095.21 320.861 1094.66 320.328C1094.1 319.773 1093.83 319.048 1093.83 318.152ZM1106.75 305V306.408L1107.62 305H1109.76V308.104H1106.75V321H1103.71V307.976H1102.95L1103.27 305H1106.75Z" fill="black" fill-opacity="0.56"/>
<path d="M45.0963 479.992C45.0963 482.829 44.4616 484.883 43.1923 486.152C41.9603 487.384 39.907 488 37.0323 488H26.5043V456.248H25.4403L26.2243 448.8H37.0323C39.907 448.8 41.9603 449.416 43.1923 450.648C44.4616 451.88 45.0963 453.933 45.0963 456.808V479.992ZM37.2003 480.552C37.387 480.552 37.4803 480.459 37.4803 480.272V456.528C37.4803 456.341 37.387 456.248 37.2003 456.248H34.1203V480.552H37.2003ZM53.0273 458.32L55.0433 452.384H61.0353L59.0193 458.32H53.0273ZM47.3153 480.44V468.008C47.3153 465.133 47.9313 463.08 49.1633 461.848C50.4326 460.616 52.5046 460 55.3793 460H57.8433C60.718 460 62.7713 460.616 64.0033 461.848C65.2726 463.08 65.9073 465.133 65.9073 468.008V477.696H54.9313V480.72C54.9313 480.907 55.0246 481 55.2113 481H58.0113C58.198 481 58.2913 480.907 58.2913 480.72V478.872H65.9073V480.44C65.9073 483.277 65.2726 485.331 64.0033 486.6C62.7713 487.832 60.718 488.448 57.8433 488.448H55.3793C52.5046 488.448 50.4326 487.832 49.1633 486.6C47.9313 485.368 47.3153 483.315 47.3153 480.44ZM58.2913 467.728C58.2913 467.541 58.198 467.448 58.0113 467.448H55.2113C55.0246 467.448 54.9313 467.541 54.9313 467.728V471.368H58.2913V467.728ZM73.5273 488L68.1513 460H74.6473L77.3353 475.512L80.0233 460H86.5193L81.1433 488H73.5273ZM87.6747 480.44V468.008C87.6747 465.133 88.2907 463.08 89.5227 461.848C90.792 460.616 92.864 460 95.7387 460H98.2027C101.077 460 103.131 460.616 104.363 461.848C105.632 463.08 106.267 465.133 106.267 468.008V477.696H95.2907V480.72C95.2907 480.907 95.384 481 95.5707 481H98.3707C98.5574 481 98.6507 480.907 98.6507 480.72V478.872H106.267V480.44C106.267 483.277 105.632 485.331 104.363 486.6C103.131 487.832 101.077 488.448 98.2027 488.448H95.7387C92.864 488.448 90.792 487.832 89.5227 486.6C88.2907 485.368 87.6747 483.315 87.6747 480.44ZM98.6507 467.728C98.6507 467.541 98.5574 467.448 98.3707 467.448H95.5707C95.384 467.448 95.2907 467.541 95.2907 467.728V471.368H98.6507V467.728ZM109.407 488V456.248H108.511L109.071 448.8H117.023V480.552H118.143L118.703 488H109.407ZM131.08 467.728C131.08 467.541 130.987 467.448 130.8 467.448H128C127.814 467.448 127.72 467.541 127.72 467.728V480.72C127.72 480.907 127.814 481 128 481H130.8C130.987 481 131.08 480.907 131.08 480.72V467.728ZM120.104 480.44V468.008C120.104 465.133 120.72 463.08 121.952 461.848C123.222 460.616 125.294 460 128.168 460H130.632C133.507 460 135.56 460.616 136.792 461.848C138.062 463.08 138.696 465.133 138.696 468.008V480.44C138.696 483.277 138.062 485.331 136.792 486.6C135.56 487.832 133.507 488.448 130.632 488.448H128.168C125.294 488.448 123.222 487.832 121.952 486.6C120.72 485.368 120.104 483.315 120.104 480.44ZM141.774 495.392V467.448H140.654L141.214 460H149.39V462.968L151.406 460H152.302C155.176 460 157.23 460.616 158.462 461.848C159.731 463.08 160.366 465.133 160.366 468.008V479.992C160.366 482.829 159.75 484.883 158.518 486.152C157.323 487.384 155.326 488 152.526 488H152.022C151.051 488 150.174 487.832 149.39 487.496V495.392H141.774ZM152.47 480.552C152.656 480.552 152.75 480.459 152.75 480.272V467.728C152.75 467.541 152.656 467.448 152.47 467.448H149.39V480.552H152.47ZM163.157 495.392V467.448H162.037L162.597 460H170.773V462.968L172.789 460H173.685C176.559 460 178.613 460.616 179.845 461.848C181.114 463.08 181.749 465.133 181.749 468.008V479.992C181.749 482.829 181.133 484.883 179.901 486.152C178.706 487.384 176.709 488 173.909 488H173.405C172.434 488 171.557 487.832 170.773 487.496V495.392H163.157ZM173.853 480.552C174.039 480.552 174.133 480.459 174.133 480.272V467.728C174.133 467.541 174.039 467.448 173.853 467.448H170.773V480.552H173.853ZM183.979 480.44V468.008C183.979 465.133 184.595 463.08 185.827 461.848C187.097 460.616 189.169 460 192.043 460H194.507C197.382 460 199.435 460.616 200.667 461.848C201.937 463.08 202.571 465.133 202.571 468.008V477.696H191.595V480.72C191.595 480.907 191.689 481 191.875 481H194.675C194.862 481 194.955 480.907 194.955 480.72V478.872H202.571V480.44C202.571 483.277 201.937 485.331 200.667 486.6C199.435 487.832 197.382 488.448 194.507 488.448H192.043C189.169 488.448 187.097 487.832 185.827 486.6C184.595 485.368 183.979 483.315 183.979 480.44ZM194.955 467.728C194.955 467.541 194.862 467.448 194.675 467.448H191.875C191.689 467.448 191.595 467.541 191.595 467.728V471.368H194.955V467.728ZM216.351 488V485.032L214.335 488H213.439C210.565 488 208.493 487.384 207.223 486.152C205.991 484.883 205.375 482.829 205.375 479.992V467.448H204.255L204.815 460H212.991V480.272C212.991 480.459 213.085 480.552 213.271 480.552H216.351V460H223.967V480.552H224.527L225.087 488H216.351ZM227.305 488V467.448H226.185L226.745 460H234.921V463.192L236.937 460H241.473V468.568H234.921V488H227.305ZM254.825 488V456.248H253.761L254.545 448.8H262.441V488H254.825ZM265.532 488V467.448H264.412L264.972 460H273.148V462.968L275.164 460H276.06C278.934 460 280.988 460.616 282.22 461.848C283.489 463.08 284.124 465.133 284.124 468.008V480.552H285.244L284.684 488H276.508V467.728C276.508 467.541 276.414 467.448 276.228 467.448H273.148V488H265.532ZM298.897 480.552V488H293.409C291.841 488 290.572 487.533 289.601 486.6C288.63 485.629 288.145 484.36 288.145 482.792V466.888H285.849L286.409 460H288.145V456.248H286.969L287.529 448.8H295.705V460H298.337L297.777 466.888H295.705V480.552H298.897ZM306.285 458.32L308.301 452.384H314.293L312.277 458.32H306.285ZM300.573 480.44V468.008C300.573 465.133 301.189 463.08 302.421 461.848C303.69 460.616 305.762 460 308.637 460H311.101C313.976 460 316.029 460.616 317.261 461.848C318.53 463.08 319.165 465.133 319.165 468.008V477.696H308.189V480.72C308.189 480.907 308.282 481 308.469 481H311.269C311.456 481 311.549 480.907 311.549 480.72V478.872H319.165V480.44C319.165 483.277 318.53 485.331 317.261 486.6C316.029 487.832 313.976 488.448 311.101 488.448H308.637C305.762 488.448 303.69 487.832 302.421 486.6C301.189 485.368 300.573 483.315 300.573 480.44ZM311.549 467.728C311.549 467.541 311.456 467.448 311.269 467.448H308.469C308.282 467.448 308.189 467.541 308.189 467.728V471.368H311.549V467.728ZM329.025 488.728V489.904C329.025 490.091 329.118 490.184 329.305 490.184H332.105C332.292 490.184 332.385 490.091 332.385 489.904V485.872L330.929 488H329.473C326.598 488 324.526 487.384 323.257 486.152C322.025 484.883 321.409 482.829 321.409 479.992V468.008C321.409 465.133 322.006 463.08 323.201 461.848C324.433 460.616 326.449 460 329.249 460H329.753C330.724 460 331.601 460.168 332.385 460.504V460H340.001V488.504C340.001 491.341 339.366 493.376 338.097 494.608C336.865 495.877 334.812 496.512 331.937 496.512H329.473C326.71 496.512 324.676 495.877 323.369 494.608C322.062 493.339 321.409 491.397 321.409 488.784V488.728H329.025ZM329.305 467.448C329.118 467.448 329.025 467.541 329.025 467.728V480.272C329.025 480.459 329.118 480.552 329.305 480.552H332.385V467.448H329.305ZM343.078 488V467.448H341.958L342.518 460H350.694V463.192L352.71 460H357.246V468.568H350.694V488H343.078ZM366.989 488C364.114 488 362.042 487.384 360.773 486.152C359.541 484.883 358.925 482.829 358.925 479.992V468.008C358.925 465.133 359.522 463.08 360.717 461.848C361.949 460.616 363.965 460 366.765 460H367.269C368.239 460 369.117 460.168 369.901 460.504V460H377.517V480.552H378.077L378.637 488H369.901V485.032L367.885 488H366.989ZM366.821 467.448C366.634 467.448 366.541 467.541 366.541 467.728V480.272C366.541 480.459 366.634 480.552 366.821 480.552H369.901V467.448H366.821ZM392.522 480.552V488H387.034C385.466 488 384.197 487.533 383.226 486.6C382.255 485.629 381.77 484.36 381.77 482.792V466.888H379.474L380.034 460H381.77V456.248H380.594L381.154 448.8H389.33V460H391.962L391.402 466.888H389.33V480.552H392.522ZM394.198 480.44V468.008C394.198 465.133 394.814 463.08 396.046 461.848C397.315 460.616 399.387 460 402.262 460H404.726C407.601 460 409.654 460.616 410.886 461.848C412.155 463.08 412.79 465.133 412.79 468.008V477.696H401.814V480.72C401.814 480.907 401.907 481 402.094 481H404.894C405.081 481 405.174 480.907 405.174 480.72V478.872H412.79V480.44C412.79 483.277 412.155 485.331 410.886 486.6C409.654 487.832 407.601 488.448 404.726 488.448H402.262C399.387 488.448 397.315 487.832 396.046 486.6C394.814 485.368 394.198 483.315 394.198 480.44ZM405.174 467.728C405.174 467.541 405.081 467.448 404.894 467.448H402.094C401.907 467.448 401.814 467.541 401.814 467.728V471.368H405.174V467.728ZM426.57 488V485.032L424.554 488H423.658C420.783 488 418.711 487.384 417.442 486.152C416.21 484.883 415.594 482.829 415.594 479.992V467.448H414.474L415.034 460H423.21V480.272C423.21 480.459 423.303 480.552 423.49 480.552H426.57V460H434.186V480.552H434.746L435.306 488H426.57ZM437.524 488V467.448H436.404L436.964 460H445.14V463.192L447.156 460H451.692V468.568H445.14V488H437.524ZM494.107 460V480.552H494.667L495.227 488H486.491V485.032L484.475 488H483.579C479.697 488 477.251 486.787 476.243 484.36L473.779 488H472.603C469.729 488 467.657 487.384 466.387 486.152C465.155 484.883 464.539 482.829 464.539 479.992V467.448H463.419L463.979 460H472.155V480.272C472.155 480.459 472.249 480.552 472.435 480.552H475.515C475.515 480.403 475.515 480.216 475.515 479.992V460H483.131V480.272C483.131 480.459 483.225 480.552 483.411 480.552H486.491V460H494.107ZM496.901 480.44V468.008C496.901 465.133 497.517 463.08 498.749 461.848C500.019 460.616 502.091 460 504.965 460H507.429C510.304 460 512.357 460.616 513.589 461.848C514.859 463.08 515.493 465.133 515.493 468.008V477.696H504.517V480.72C504.517 480.907 504.611 481 504.797 481H507.597C507.784 481 507.877 480.907 507.877 480.72V478.872H515.493V480.44C515.493 483.277 514.859 485.331 513.589 486.6C512.357 487.832 510.304 488.448 507.429 488.448H504.965C502.091 488.448 500.019 487.832 498.749 486.6C497.517 485.368 496.901 483.315 496.901 480.44ZM507.877 467.728C507.877 467.541 507.784 467.448 507.597 467.448H504.797C504.611 467.448 504.517 467.541 504.517 467.728V471.368H507.877V467.728ZM518.297 488V456.248H517.177L517.737 448.8H525.913V462.968L527.929 460H528.825C531.7 460 533.753 460.616 534.985 461.848C536.255 463.08 536.889 465.133 536.889 468.008V479.992C536.889 482.829 536.273 484.883 535.041 486.152C533.847 487.384 531.849 488 529.049 488H528.545C527.575 488 526.697 487.832 525.913 487.496V488H518.297ZM528.993 480.552C529.18 480.552 529.273 480.459 529.273 480.272V467.728C529.273 467.541 529.18 467.448 528.993 467.448H525.913V480.552H528.993Z" fill="#F3BB00"/>
<path d="M232.06 528H224.796V519.712C224.796 518.816 225.063 518.101 225.596 517.568C226.151 517.013 226.844 516.736 227.676 516.736H228.86C228.967 516.736 229.02 516.683 229.02 516.576V511.936C229.02 511.829 228.967 511.776 228.86 511.776H224.796V508.8H229.052C229.948 508.8 230.674 509.077 231.228 509.632C231.783 510.165 232.06 510.88 232.06 511.776V516.736C232.06 517.632 231.783 518.357 231.228 518.912C230.674 519.445 229.948 519.712 229.052 519.712H227.996C227.89 519.712 227.836 519.765 227.836 519.872V525.024H232.06V528ZM238.032 508.672C238.906 508.672 239.621 508.949 240.176 509.504C240.752 510.059 241.04 510.773 241.04 511.648V525.024C241.04 525.877 240.752 526.592 240.176 527.168C239.621 527.723 238.906 528 238.032 528H236.336C235.461 528 234.736 527.723 234.16 527.168C233.605 526.592 233.328 525.877 233.328 525.024V511.648C233.328 510.773 233.605 510.059 234.16 509.504C234.714 508.928 235.44 508.651 236.336 508.672H238.032ZM236.304 524.864C236.304 524.971 236.357 525.024 236.464 525.024H237.968C238.074 525.024 238.128 524.971 238.128 524.864V511.808C238.128 511.701 238.074 511.648 237.968 511.648H236.528C236.421 511.648 236.368 511.701 236.368 511.808L236.304 524.864ZM249.592 528H242.328V519.712C242.328 518.816 242.594 518.101 243.128 517.568C243.682 517.013 244.376 516.736 245.208 516.736H246.391C246.498 516.736 246.552 516.683 246.552 516.576V511.936C246.552 511.829 246.498 511.776 246.391 511.776H242.328V508.8H246.584C247.48 508.8 248.205 509.077 248.76 509.632C249.314 510.165 249.592 510.88 249.592 511.776V516.736C249.592 517.632 249.314 518.357 248.76 518.912C248.205 519.445 247.48 519.712 246.584 519.712H245.528C245.421 519.712 245.368 519.765 245.368 519.872V525.024H249.592V528ZM258.123 528H250.859V519.712C250.859 518.816 251.125 518.101 251.659 517.568C252.213 517.013 252.907 516.736 253.739 516.736H254.923C255.029 516.736 255.083 516.683 255.083 516.576V511.936C255.083 511.829 255.029 511.776 254.923 511.776H250.859V508.8H255.115C256.011 508.8 256.736 509.077 257.291 509.632C257.845 510.165 258.123 510.88 258.123 511.776V516.736C258.123 517.632 257.845 518.357 257.291 518.912C256.736 519.445 256.011 519.712 255.115 519.712H254.059C253.952 519.712 253.899 519.765 253.899 519.872V525.024H258.123V528ZM265.47 516.832V519.872H259.39V516.832H265.47ZM274.029 528H266.765V519.712C266.765 518.816 267.032 518.101 267.565 517.568C268.12 517.013 268.813 516.736 269.645 516.736H270.829C270.936 516.736 270.989 516.683 270.989 516.576V511.936C270.989 511.829 270.936 511.776 270.829 511.776H266.765V508.8H271.021C271.917 508.8 272.642 509.077 273.197 509.632C273.752 510.165 274.029 510.88 274.029 511.776V516.736C274.029 517.632 273.752 518.357 273.197 518.912C272.642 519.445 271.917 519.712 271.021 519.712H269.965C269.858 519.712 269.805 519.765 269.805 519.872V525.024H274.029V528ZM280 508.672C280.875 508.672 281.59 508.949 282.144 509.504C282.72 510.059 283.008 510.773 283.008 511.648V525.024C283.008 525.877 282.72 526.592 282.144 527.168C281.59 527.723 280.875 528 280 528H278.304C277.43 528 276.704 527.723 276.128 527.168C275.574 526.592 275.296 525.877 275.296 525.024V511.648C275.296 510.773 275.574 510.059 276.128 509.504C276.683 508.928 277.408 508.651 278.304 508.672H280ZM278.272 524.864C278.272 524.971 278.326 525.024 278.432 525.024H279.936C280.043 525.024 280.096 524.971 280.096 524.864V511.808C280.096 511.701 280.043 511.648 279.936 511.648H278.496C278.39 511.648 278.336 511.701 278.336 511.808L278.272 524.864ZM291.56 528H284.296V519.712C284.296 518.816 284.563 518.101 285.096 517.568C285.651 517.013 286.344 516.736 287.176 516.736H288.36C288.467 516.736 288.52 516.683 288.52 516.576V511.936C288.52 511.829 288.467 511.776 288.36 511.776H284.296V508.8H288.552C289.448 508.8 290.174 509.077 290.728 509.632C291.283 510.165 291.56 510.88 291.56 511.776V516.736C291.56 517.632 291.283 518.357 290.728 518.912C290.174 519.445 289.448 519.712 288.552 519.712H287.496C287.39 519.712 287.336 519.765 287.336 519.872V525.024H291.56V528ZM300.124 516.736V519.712H300.092V524.992C300.092 525.888 299.814 526.613 299.26 527.168C298.705 527.701 297.98 527.968 297.084 527.968H292.828V524.992H296.891C296.998 524.992 297.052 524.939 297.052 524.832V519.712H293.756V516.736H297.084V511.936C297.084 511.829 297.03 511.776 296.924 511.776H292.86V508.8H297.116C298.012 508.8 298.737 509.077 299.292 509.632C299.846 510.165 300.124 510.88 300.124 511.776V516.736ZM307.14 505.6H310.18V531.2H307.14V505.6ZM321.779 508.224L322.643 510.784H320.083L319.219 508.224H321.779ZM320.435 528C319.453 528 318.664 527.723 318.067 527.168C317.491 526.592 317.203 525.877 317.203 525.024V514.976C317.203 514.101 317.491 513.387 318.067 512.832C318.664 512.277 319.453 512 320.435 512H320.562C321.139 512 321.651 512.139 322.099 512.416V512H325.139V525.024H325.587L325.907 528H322.099V526.752L321.299 528H320.435ZM320.403 514.976C320.296 514.976 320.243 515.029 320.243 515.136V524.864C320.243 524.971 320.296 525.024 320.403 525.024H322.099V514.976H320.403ZM335.841 528C334.859 528 334.07 527.723 333.473 527.168C332.897 526.592 332.609 525.877 332.609 525.024V514.976C332.609 514.101 332.897 513.387 333.473 512.832C334.07 512.277 334.859 512 335.841 512H335.969C336.545 512 337.057 512.139 337.505 512.416V508.576H336.737L337.057 505.6H340.545V525.024H340.993L341.313 528H337.505V526.752L336.705 528H335.841ZM335.809 514.976C335.702 514.976 335.649 515.029 335.649 515.136V524.864C335.649 524.971 335.702 525.024 335.809 525.024H337.505V514.976H335.809ZM344.989 507.744L345.309 510.72H342.269V507.744H344.989ZM345.309 512V528H342.269V514.976H341.789L342.109 512H345.309ZM346.421 522.976L349.461 523.296V524.864C349.461 524.971 349.515 525.024 349.621 525.024H350.901C351.008 525.024 351.061 524.971 351.061 524.864V521.888L348.213 520.672C347.872 520.523 347.488 520.288 347.061 519.968C346.635 519.648 346.421 519.125 346.421 518.4V514.848C346.421 513.952 346.699 513.237 347.253 512.704C347.808 512.149 348.533 511.872 349.429 511.872H351.093C351.989 511.872 352.715 512.149 353.269 512.704C353.824 513.237 354.101 513.952 354.101 514.848V516.896L351.061 516.576V515.008C351.061 514.901 351.008 514.848 350.901 514.848H349.621C349.515 514.848 349.461 514.901 349.461 515.008V517.984L352.309 519.2C352.651 519.349 353.035 519.584 353.461 519.904C353.888 520.224 354.101 520.747 354.101 521.472V525.024C354.101 525.92 353.824 526.645 353.269 527.2C352.715 527.733 351.989 528 351.093 528H349.429C348.533 528 347.808 527.733 347.253 527.2C346.699 526.645 346.421 525.92 346.421 525.024V522.976ZM361.278 525.024V528H359.422C358.526 528 357.801 527.733 357.246 527.2C356.691 526.645 356.414 525.92 356.414 525.024V514.976H355.07L355.326 512H356.414V508.576H355.614L355.87 505.6H359.454V512H361.278L361.022 514.976H359.454V525.024H361.278ZM365.31 528C364.328 528 363.539 527.723 362.942 527.168C362.366 526.592 362.078 525.877 362.078 525.024V514.976C362.078 514.101 362.366 513.387 362.942 512.832C363.539 512.277 364.328 512 365.31 512H365.438C366.014 512 366.526 512.139 366.974 512.416V512H370.014V525.024H370.462L370.782 528H366.974V526.752L366.174 528H365.31ZM365.278 514.976C365.171 514.976 365.118 515.029 365.118 515.136V524.864C365.118 524.971 365.171 525.024 365.278 525.024H366.974V514.976H365.278ZM372.026 528V514.976H371.258L371.578 512H375.066V513.248L375.866 512H376.73C377.711 512 378.49 512.277 379.066 512.832C379.663 513.387 379.962 514.101 379.962 514.976V525.024H380.762L380.442 528H376.922V515.136C376.922 515.029 376.868 514.976 376.762 514.976H375.066V528H372.026ZM381.421 525.152V514.848C381.421 513.952 381.699 513.237 382.253 512.704C382.808 512.149 383.533 511.872 384.429 511.872H386.733C387.629 511.872 388.355 512.149 388.909 512.704C389.464 513.237 389.741 513.952 389.741 514.848V519.072L386.701 518.752V515.008C386.701 514.901 386.648 514.848 386.541 514.848H384.621C384.515 514.848 384.461 514.901 384.461 515.008V524.992C384.461 525.099 384.515 525.152 384.621 525.152H386.541C386.648 525.152 386.701 525.109 386.701 525.024V521.312H389.741V525.152C389.741 526.048 389.464 526.773 388.909 527.328C388.355 527.861 387.629 528.128 386.733 528.128H384.429C383.533 528.128 382.808 527.861 382.253 527.328C381.699 526.773 381.421 526.048 381.421 525.152ZM391.015 525.152V514.848C391.015 513.952 391.292 513.237 391.847 512.704C392.402 512.149 393.127 511.872 394.023 511.872H396.007C396.903 511.872 397.628 512.149 398.183 512.704C398.738 513.237 399.015 513.952 399.015 514.848V518.784H395.975V515.008C395.975 514.901 395.922 514.848 395.815 514.848H394.215C394.108 514.848 394.055 514.901 394.055 515.008V518.784H399.015V521.76H394.055V524.992C394.055 525.099 394.108 525.152 394.215 525.152H395.815C395.922 525.152 395.975 525.109 395.975 525.024V523.264H399.015V525.152C399.015 526.048 398.738 526.773 398.183 527.328C397.628 527.861 396.903 528.128 396.007 528.128H394.023C393.127 528.128 392.402 527.861 391.847 527.328C391.292 526.773 391.015 526.048 391.015 525.152ZM406.046 505.6H409.086V531.2H406.046V505.6ZM424.429 525.152C424.429 526.048 424.151 526.773 423.597 527.328C423.042 527.861 422.317 528.128 421.421 528.128H419.117C418.221 528.128 417.495 527.861 416.941 527.328C416.386 526.773 416.109 526.048 416.109 525.152V508.448C416.109 507.552 416.386 506.837 416.941 506.304C417.495 505.749 418.221 505.472 419.117 505.472H421.421C422.317 505.472 423.042 505.749 423.597 506.304C424.151 506.837 424.429 507.552 424.429 508.448V525.152ZM419.309 508.448C419.202 508.448 419.149 508.501 419.149 508.608V524.992C419.149 525.099 419.202 525.152 419.309 525.152H421.229C421.335 525.152 421.389 525.099 421.389 524.992V508.608C421.389 508.501 421.335 508.448 421.229 508.448H419.309ZM429.191 532.256H426.151V514.976H425.383L425.703 512H429.191V513.248L429.991 512H430.855C431.836 512 432.615 512.277 433.191 512.832C433.788 513.387 434.087 514.101 434.087 514.976V525.024C434.087 525.877 433.788 526.592 433.191 527.168C432.615 527.723 431.836 528 430.855 528H430.727C430.151 528 429.639 527.861 429.191 527.584V532.256ZM430.887 514.976H429.191V525.024H430.887C430.993 525.024 431.047 524.971 431.047 524.864V515.136C431.047 515.029 430.993 514.976 430.887 514.976ZM435.515 525.152V514.848C435.515 513.952 435.792 513.237 436.347 512.704C436.902 512.149 437.627 511.872 438.523 511.872H440.507C441.403 511.872 442.128 512.149 442.683 512.704C443.238 513.237 443.515 513.952 443.515 514.848V518.784H440.475V515.008C440.475 514.901 440.422 514.848 440.315 514.848H438.715C438.608 514.848 438.555 514.901 438.555 515.008V518.784H443.515V521.76H438.555V524.992C438.555 525.099 438.608 525.152 438.715 525.152H440.315C440.422 525.152 440.475 525.109 440.475 525.024V523.264H443.515V525.152C443.515 526.048 443.238 526.773 442.683 527.328C442.128 527.861 441.403 528.128 440.507 528.128H438.523C437.627 528.128 436.902 527.861 436.347 527.328C435.792 526.773 435.515 526.048 435.515 525.152ZM445.244 528V514.976H444.476L444.796 512H448.284V513.248L449.084 512H449.948C450.93 512 451.708 512.277 452.284 512.832C452.882 513.387 453.18 514.101 453.18 514.976V525.024H453.98L453.66 528H450.14V515.136C450.14 515.029 450.087 514.976 449.98 514.976H448.284V528H445.244ZM463.273 518.272V525.152C463.273 526.048 462.995 526.773 462.441 527.328C461.886 527.861 461.161 528.128 460.265 528.128H457.961C457.065 528.128 456.339 527.861 455.785 527.328C455.23 526.773 454.953 526.048 454.953 525.152V508.448C454.953 507.552 455.23 506.837 455.785 506.304C456.339 505.749 457.065 505.472 457.961 505.472H460.265C461.161 505.472 461.886 505.749 462.441 506.304C462.995 506.837 463.273 507.552 463.273 508.448V515.616L460.233 515.296V508.608C460.233 508.501 460.179 508.448 460.073 508.448H458.153C458.046 508.448 457.993 508.501 457.993 508.608V524.992C457.993 525.099 458.046 525.152 458.153 525.152H460.073C460.179 525.152 460.233 525.099 460.233 524.992V518.272H463.273ZM467.906 505.6L467.938 525.024H468.738L469.058 528H464.898L464.866 508.576H464.226L464.546 505.6H467.906ZM472.935 528C471.953 528 471.164 527.723 470.567 527.168C469.991 526.592 469.703 525.877 469.703 525.024V514.976C469.703 514.101 469.991 513.387 470.567 512.832C471.164 512.277 471.953 512 472.935 512H473.062C473.639 512 474.151 512.139 474.599 512.416V512H477.639V525.024H478.087L478.407 528H474.599V526.752L473.799 528H472.935ZM472.903 514.976C472.796 514.976 472.743 515.029 472.743 515.136V524.864C472.743 524.971 472.796 525.024 472.903 525.024H474.599V514.976H472.903ZM479.203 522.976L482.243 523.296V524.864C482.243 524.971 482.296 525.024 482.403 525.024H483.683C483.789 525.024 483.843 524.971 483.843 524.864V521.888L480.995 520.672C480.653 520.523 480.269 520.288 479.843 519.968C479.416 519.648 479.203 519.125 479.203 518.4V514.848C479.203 513.952 479.48 513.237 480.035 512.704C480.589 512.149 481.315 511.872 482.211 511.872H483.875C484.771 511.872 485.496 512.149 486.051 512.704C486.605 513.237 486.883 513.952 486.883 514.848V516.896L483.843 516.576V515.008C483.843 514.901 483.789 514.848 483.683 514.848H482.403C482.296 514.848 482.243 514.901 482.243 515.008V517.984L485.091 519.2C485.432 519.349 485.816 519.584 486.243 519.904C486.669 520.224 486.883 520.747 486.883 521.472V525.024C486.883 525.92 486.605 526.645 486.051 527.2C485.496 527.733 484.771 528 483.875 528H482.211C481.315 528 480.589 527.733 480.035 527.2C479.48 526.645 479.203 525.92 479.203 525.024V522.976ZM488.171 522.976L491.211 523.296V524.864C491.211 524.971 491.265 525.024 491.371 525.024H492.651C492.758 525.024 492.811 524.971 492.811 524.864V521.888L489.963 520.672C489.622 520.523 489.238 520.288 488.811 519.968C488.385 519.648 488.171 519.125 488.171 518.4V514.848C488.171 513.952 488.449 513.237 489.003 512.704C489.558 512.149 490.283 511.872 491.179 511.872H492.843C493.739 511.872 494.465 512.149 495.019 512.704C495.574 513.237 495.851 513.952 495.851 514.848V516.896L492.811 516.576V515.008C492.811 514.901 492.758 514.848 492.651 514.848H491.371C491.265 514.848 491.211 514.901 491.211 515.008V517.984L494.059 519.2C494.401 519.349 494.785 519.584 495.211 519.904C495.638 520.224 495.851 520.747 495.851 521.472V525.024C495.851 525.92 495.574 526.645 495.019 527.2C494.465 527.733 493.739 528 492.843 528H491.179C490.283 528 489.558 527.733 489.003 527.2C488.449 526.645 488.171 525.92 488.171 525.024V522.976ZM500.628 512V513.408L501.492 512H503.636V515.104H500.628V528H497.588V514.976H496.82L497.14 512H500.628ZM509.889 515.008C509.889 514.901 509.835 514.848 509.729 514.848H507.809C507.702 514.848 507.649 514.901 507.649 515.008V524.992C507.649 525.099 507.702 525.152 507.809 525.152H509.729C509.835 525.152 509.889 525.109 509.889 525.024V515.008ZM504.609 525.152V514.848C504.609 513.952 504.886 513.237 505.441 512.704C505.995 512.149 506.721 511.872 507.617 511.872H509.921C510.817 511.872 511.542 512.149 512.097 512.704C512.651 513.237 512.929 513.952 512.929 514.848V525.152C512.929 526.048 512.651 526.773 512.097 527.328C511.542 527.861 510.817 528.128 509.921 528.128H507.617C506.721 528.128 505.995 527.861 505.441 527.328C504.886 526.773 504.609 526.048 504.609 525.152ZM519.326 515.008C519.326 514.901 519.273 514.848 519.166 514.848H517.246C517.14 514.848 517.086 514.901 517.086 515.008V524.992C517.086 525.099 517.14 525.152 517.246 525.152H519.166C519.273 525.152 519.326 525.109 519.326 525.024V515.008ZM514.046 525.152V514.848C514.046 513.952 514.324 513.237 514.878 512.704C515.433 512.149 516.158 511.872 517.054 511.872H519.358C520.254 511.872 520.98 512.149 521.534 512.704C522.089 513.237 522.366 513.952 522.366 514.848V525.152C522.366 526.048 522.089 526.773 521.534 527.328C520.98 527.861 520.254 528.128 519.358 528.128H517.054C516.158 528.128 515.433 527.861 514.878 527.328C514.324 526.773 514.046 526.048 514.046 525.152ZM532.024 528H528.984V515.136C528.984 515.029 528.931 514.976 528.824 514.976H527.128V528H524.088V514.976H523.32L523.64 512H527.128V513.248L527.928 512H528.792C529.496 512 530.104 512.149 530.616 512.448C531.128 512.747 531.501 513.152 531.736 513.664L532.824 512H533.688C534.669 512 535.448 512.277 536.024 512.832C536.621 513.387 536.92 514.101 536.92 514.976V525.024H537.688L537.368 528H533.88V515.136C533.88 515.029 533.827 514.976 533.72 514.976H532.024V528Z" fill="black" fill-opacity="0.56"/>
<path d="M715.712 683.76V692.44C715.712 695.277 715.077 697.331 713.808 698.6C712.576 699.832 710.523 700.448 707.648 700.448H705.184C702.309 700.448 700.237 699.832 698.968 698.6C697.736 697.331 697.12 695.277 697.12 692.44V668.36C697.12 665.485 697.736 663.432 698.968 662.2C700.237 660.968 702.309 660.352 705.184 660.352H707.648C710.523 660.352 712.576 660.968 713.808 662.2C715.077 663.432 715.712 665.485 715.712 668.36V677.6L708.096 676.76V668.08C708.096 667.893 708.003 667.8 707.816 667.8H705.016C704.829 667.8 704.736 667.893 704.736 668.08V692.72C704.736 692.907 704.829 693 705.016 693H707.816C708.003 693 708.096 692.907 708.096 692.72V683.76H715.712ZM718.516 700V668.248H717.396L717.956 660.8H726.132V674.968L728.148 672H729.044C731.919 672 733.972 672.616 735.204 673.848C736.473 675.08 737.108 677.133 737.108 680.008V692.552H738.228L737.668 700H729.492V679.728C729.492 679.541 729.399 679.448 729.212 679.448H726.132V700H718.516ZM739.886 692.44V680.008C739.886 677.133 740.502 675.08 741.734 673.848C743.003 672.616 745.075 672 747.95 672H750.414C753.288 672 755.342 672.616 756.574 673.848C757.843 675.08 758.478 677.133 758.478 680.008V689.696H747.502V692.72C747.502 692.907 747.595 693 747.782 693H750.582C750.768 693 750.862 692.907 750.862 692.72V690.872H758.478V692.44C758.478 695.277 757.843 697.331 756.574 698.6C755.342 699.832 753.288 700.448 750.414 700.448H747.95C745.075 700.448 743.003 699.832 741.734 698.6C740.502 697.368 739.886 695.315 739.886 692.44ZM750.862 679.728C750.862 679.541 750.768 679.448 750.582 679.448H747.782C747.595 679.448 747.502 679.541 747.502 679.728V683.368H750.862V679.728ZM760.722 700V693.672C760.722 693.224 760.778 692.776 760.89 692.328C761.002 691.843 761.17 691.432 761.394 691.096L768.842 679.504H760.722L761.282 672.056H777.074V678.384C777.074 678.832 777.018 679.299 776.906 679.784C776.794 680.232 776.626 680.624 776.402 680.96L768.954 692.552H777.074L776.514 700H760.722ZM794.754 700L789.378 672H795.874L798.562 687.512L801.25 672H807.746L802.37 700H794.754ZM820.151 679.728C820.151 679.541 820.057 679.448 819.871 679.448H817.071C816.884 679.448 816.791 679.541 816.791 679.728V692.72C816.791 692.907 816.884 693 817.071 693H819.871C820.057 693 820.151 692.907 820.151 692.72V679.728ZM809.175 692.44V680.008C809.175 677.133 809.791 675.08 811.023 673.848C812.292 672.616 814.364 672 817.239 672H819.703C822.577 672 824.631 672.616 825.863 673.848C827.132 675.08 827.767 677.133 827.767 680.008V692.44C827.767 695.277 827.132 697.331 825.863 698.6C824.631 699.832 822.577 700.448 819.703 700.448H817.239C814.364 700.448 812.292 699.832 811.023 698.6C809.791 697.368 809.175 695.315 809.175 692.44ZM841.547 700V697.032L839.531 700H838.635C835.76 700 833.688 699.384 832.419 698.152C831.187 696.883 830.571 694.829 830.571 691.992V679.448H829.451L830.011 672H838.187V692.272C838.187 692.459 838.28 692.552 838.467 692.552H841.547V672H849.163V692.552H849.723L850.283 700H841.547ZM851.94 689.36L859.556 689.92V692.272C859.556 692.459 859.65 692.552 859.836 692.552H863.196C863.383 692.552 863.476 692.459 863.476 692.272V690.592L855.076 687.512C854.479 687.325 853.807 686.933 853.06 686.336C852.314 685.739 851.94 684.805 851.94 683.536V676.984C851.94 675.379 852.426 674.109 853.396 673.176C854.367 672.243 855.636 671.776 857.204 671.776H863.028C865.903 671.776 867.956 672.392 869.188 673.624C870.458 674.856 871.092 676.909 871.092 679.784V682.416L863.476 681.856V679.504C863.476 679.317 863.383 679.224 863.196 679.224H859.836C859.65 679.224 859.556 679.317 859.556 679.504V681.128L867.956 684.208C868.554 684.395 869.226 684.787 869.972 685.384C870.719 685.981 871.092 686.915 871.092 688.184V694.792C871.092 696.36 870.607 697.629 869.636 698.6C868.666 699.533 867.396 700 865.828 700H860.004C857.13 700 855.058 699.384 853.788 698.152C852.556 696.883 851.94 694.829 851.94 691.992V689.36ZM883.946 707.392V679.448H882.826L883.386 672H891.562V674.968L893.578 672H894.474C897.348 672 899.402 672.616 900.634 673.848C901.903 675.08 902.538 677.133 902.538 680.008V691.992C902.538 694.829 901.922 696.883 900.69 698.152C899.495 699.384 897.498 700 894.698 700H894.194C893.223 700 892.346 699.832 891.562 699.496V707.392H883.946ZM894.642 692.552C894.828 692.552 894.922 692.459 894.922 692.272V679.728C894.922 679.541 894.828 679.448 894.642 679.448H891.562V692.552H894.642ZM904.768 692.44V680.008C904.768 677.133 905.384 675.08 906.616 673.848C907.886 672.616 909.958 672 912.832 672H915.296C918.171 672 920.224 672.616 921.456 673.848C922.726 675.08 923.36 677.133 923.36 680.008V689.696H912.384V692.72C912.384 692.907 912.478 693 912.664 693H915.464C915.651 693 915.744 692.907 915.744 692.72V690.872H923.36V692.44C923.36 695.277 922.726 697.331 921.456 698.6C920.224 699.832 918.171 700.448 915.296 700.448H912.832C909.958 700.448 907.886 699.832 906.616 698.6C905.384 697.368 904.768 695.315 904.768 692.44ZM915.744 679.728C915.744 679.541 915.651 679.448 915.464 679.448H912.664C912.478 679.448 912.384 679.541 912.384 679.728V683.368H915.744V679.728ZM937.14 700V697.032L935.124 700H934.228C931.354 700 929.282 699.384 928.012 698.152C926.78 696.883 926.164 694.829 926.164 691.992V679.448H925.044L925.604 672H933.78V692.272C933.78 692.459 933.874 692.552 934.06 692.552H937.14V672H944.756V692.552H945.316L945.876 700H937.14ZM960.022 692.552V700H954.534C952.966 700 951.697 699.533 950.726 698.6C949.755 697.629 949.27 696.36 949.27 694.792V678.888H946.974L947.534 672H949.27V668.248H948.094L948.654 660.8H956.83V672H959.462L958.902 678.888H956.83V692.552H960.022ZM975.625 670.32L977.977 665.056H984.193L986.545 670.32H982.065L981.113 668.136L980.105 670.32H975.625ZM971.761 692.44V680.008C971.761 677.133 972.377 675.08 973.609 673.848C974.878 672.616 976.95 672 979.825 672H982.289C985.163 672 987.217 672.616 988.449 673.848C989.718 675.08 990.353 677.133 990.353 680.008V689.696H979.377V692.72C979.377 692.907 979.47 693 979.657 693H982.457C982.643 693 982.737 692.907 982.737 692.72V690.872H990.353V692.44C990.353 695.277 989.718 697.331 988.449 698.6C987.217 699.832 985.163 700.448 982.289 700.448H979.825C976.95 700.448 974.878 699.832 973.609 698.6C972.377 697.368 971.761 695.315 971.761 692.44ZM982.737 679.728C982.737 679.541 982.643 679.448 982.457 679.448H979.657C979.47 679.448 979.377 679.541 979.377 679.728V683.368H982.737V679.728ZM1005.08 692.552V700H999.597C998.029 700 996.759 699.533 995.789 698.6C994.818 697.629 994.333 696.36 994.333 694.792V678.888H992.037L992.597 672H994.333V668.248H993.157L993.717 660.8H1001.89V672H1004.52L1003.96 678.888H1001.89V692.552H1005.08ZM1007.32 700V679.448H1006.2L1006.76 672H1014.94V675.192L1016.95 672H1021.49V680.568H1014.94V700H1007.32ZM1023.44 692.44V680.008C1023.44 677.133 1024.06 675.08 1025.29 673.848C1026.56 672.616 1028.63 672 1031.5 672H1033.97C1036.84 672 1038.9 672.616 1040.13 673.848C1041.4 675.08 1042.03 677.133 1042.03 680.008V689.696H1031.06V692.72C1031.06 692.907 1031.15 693 1031.34 693H1034.14C1034.32 693 1034.42 692.907 1034.42 692.72V690.872H1042.03V692.44C1042.03 695.277 1041.4 697.331 1040.13 698.6C1038.9 699.832 1036.84 700.448 1033.97 700.448H1031.5C1028.63 700.448 1026.56 699.832 1025.29 698.6C1024.06 697.368 1023.44 695.315 1023.44 692.44ZM1034.42 679.728C1034.42 679.541 1034.32 679.448 1034.14 679.448H1031.34C1031.15 679.448 1031.06 679.541 1031.06 679.728V683.368H1034.42V679.728ZM1054.34 690.424V666.4H1060.67V690.424H1054.34ZM1054.34 700V692.384H1060.67V700H1054.34ZM1062.92 690.424V666.4H1069.25V690.424H1062.92ZM1062.92 700V692.384H1069.25V700H1062.92Z" fill="#F3BB00"/>
<path d="M703.904 740H696.64V731.712C696.64 730.816 696.907 730.101 697.44 729.568C697.995 729.013 698.688 728.736 699.52 728.736H700.704C700.811 728.736 700.864 728.683 700.864 728.576V723.936C700.864 723.829 700.811 723.776 700.704 723.776H696.64V720.8H700.896C701.792 720.8 702.517 721.077 703.072 721.632C703.627 722.165 703.904 722.88 703.904 723.776V728.736C703.904 729.632 703.627 730.357 703.072 730.912C702.517 731.445 701.792 731.712 700.896 731.712H699.84C699.733 731.712 699.68 731.765 699.68 731.872V737.024H703.904V740ZM709.875 720.672C710.75 720.672 711.465 720.949 712.019 721.504C712.595 722.059 712.883 722.773 712.883 723.648V737.024C712.883 737.877 712.595 738.592 712.019 739.168C711.465 739.723 710.75 740 709.875 740H708.179C707.305 740 706.579 739.723 706.003 739.168C705.449 738.592 705.171 737.877 705.171 737.024V723.648C705.171 722.773 705.449 722.059 706.003 721.504C706.558 720.928 707.283 720.651 708.179 720.672H709.875ZM708.147 736.864C708.147 736.971 708.201 737.024 708.307 737.024H709.811C709.918 737.024 709.971 736.971 709.971 736.864V723.808C709.971 723.701 709.918 723.648 709.811 723.648H708.371C708.265 723.648 708.211 723.701 708.211 723.808L708.147 736.864ZM721.435 740H714.171V731.712C714.171 730.816 714.438 730.101 714.971 729.568C715.526 729.013 716.219 728.736 717.051 728.736H718.235C718.342 728.736 718.395 728.683 718.395 728.576V723.936C718.395 723.829 718.342 723.776 718.235 723.776H714.171V720.8H718.427C719.323 720.8 720.049 721.077 720.603 721.632C721.158 722.165 721.435 722.88 721.435 723.776V728.736C721.435 729.632 721.158 730.357 720.603 730.912C720.049 731.445 719.323 731.712 718.427 731.712H717.371C717.265 731.712 717.211 731.765 717.211 731.872V737.024H721.435V740ZM729.999 728.736V731.712H729.967V736.992C729.967 737.888 729.689 738.613 729.135 739.168C728.58 739.701 727.855 739.968 726.959 739.968H722.703V736.992H726.766C726.873 736.992 726.927 736.939 726.927 736.832V731.712H723.631V728.736H726.959V723.936C726.959 723.829 726.905 723.776 726.799 723.776H722.735V720.8H726.991C727.887 720.8 728.612 721.077 729.167 721.632C729.721 722.165 729.999 722.88 729.999 723.776V728.736ZM737.015 717.6H740.055V743.2H737.015V717.6ZM755.142 737.024L754.885 740H747.238V720.576H746.758L747.078 717.6H750.278V737.024H755.142ZM760.997 720.224L761.861 722.784H759.301L758.437 720.224H760.997ZM759.653 740C758.672 740 757.883 739.723 757.285 739.168C756.709 738.592 756.421 737.877 756.421 737.024V726.976C756.421 726.101 756.709 725.387 757.285 724.832C757.883 724.277 758.672 724 759.653 724H759.781C760.357 724 760.869 724.139 761.317 724.416V724H764.357V737.024H764.805L765.125 740H761.317V738.752L760.517 740H759.653ZM759.621 726.976C759.515 726.976 759.461 727.029 759.461 727.136V736.864C759.461 736.971 759.515 737.024 759.621 737.024H761.317V726.976H759.621ZM777.108 727.008C777.108 726.901 777.054 726.848 776.948 726.848H775.028C774.921 726.848 774.868 726.901 774.868 727.008V736.992C774.868 737.099 774.921 737.152 775.028 737.152H776.948C777.054 737.152 777.108 737.109 777.108 737.024V727.008ZM771.828 737.152V726.848C771.828 725.952 772.105 725.237 772.66 724.704C773.214 724.149 773.94 723.872 774.836 723.872H777.14C778.036 723.872 778.761 724.149 779.316 724.704C779.87 725.237 780.148 725.952 780.148 726.848V737.152C780.148 738.048 779.87 738.773 779.316 739.328C778.761 739.861 778.036 740.128 777.14 740.128H774.836C773.94 740.128 773.214 739.861 772.66 739.328C772.105 738.773 771.828 738.048 771.828 737.152ZM786.481 720.224L787.345 722.784H784.785L783.921 720.224H786.481ZM786.929 737.024V724H789.969V737.024H790.449L790.769 740H786.929V738.752L786.129 740H785.265C784.284 740 783.494 739.723 782.897 739.168C782.321 738.592 782.033 737.877 782.033 737.024V726.976H781.265L781.585 724H785.073V736.864C785.073 736.971 785.126 737.024 785.233 737.024H786.929ZM798.244 740V720.576H797.476L797.796 717.6H801.284V725.248L802.084 724H802.948C803.93 724 804.708 724.277 805.284 724.832C805.882 725.387 806.18 726.101 806.18 726.976V737.024C806.18 737.877 805.882 738.592 805.284 739.168C804.708 739.723 803.93 740 802.948 740H802.82C802.244 740 801.732 739.861 801.284 739.584V740H798.244ZM802.98 726.976H801.284V737.024H802.98C803.087 737.024 803.14 736.971 803.14 736.864V727.136C803.14 727.029 803.087 726.976 802.98 726.976ZM812.733 727.008C812.733 726.901 812.679 726.848 812.573 726.848H810.653C810.546 726.848 810.493 726.901 810.493 727.008V736.992C810.493 737.099 810.546 737.152 810.653 737.152H812.573C812.679 737.152 812.733 737.109 812.733 737.024V727.008ZM807.453 737.152V726.848C807.453 725.952 807.73 725.237 808.285 724.704C808.839 724.149 809.565 723.872 810.461 723.872H812.765C813.661 723.872 814.386 724.149 814.941 724.704C815.495 725.237 815.773 725.952 815.773 726.848V737.152C815.773 738.048 815.495 738.773 814.941 739.328C814.386 739.861 813.661 740.128 812.765 740.128H810.461C809.565 740.128 808.839 739.861 808.285 739.328C807.73 738.773 807.453 738.048 807.453 737.152ZM817.494 740V726.976H816.726L817.046 724H820.534V725.248L821.334 724H822.198C823.18 724 823.958 724.277 824.534 724.832C825.132 725.387 825.43 726.101 825.43 726.976V737.024H826.23L825.91 740H822.39V727.136C822.39 727.029 822.337 726.976 822.23 726.976H820.534V740H817.494ZM832.633 724H835.449L837.241 734.336L839.033 724H841.849L838.777 740H835.705L832.633 724ZM848.076 727.008C848.076 726.901 848.023 726.848 847.916 726.848H845.996C845.89 726.848 845.836 726.901 845.836 727.008V736.992C845.836 737.099 845.89 737.152 845.996 737.152H847.916C848.023 737.152 848.076 737.109 848.076 737.024V727.008ZM842.796 737.152V726.848C842.796 725.952 843.074 725.237 843.628 724.704C844.183 724.149 844.908 723.872 845.804 723.872H848.108C849.004 723.872 849.73 724.149 850.284 724.704C850.839 725.237 851.116 725.952 851.116 726.848V737.152C851.116 738.048 850.839 738.773 850.284 739.328C849.73 739.861 849.004 740.128 848.108 740.128H845.804C844.908 740.128 844.183 739.861 843.628 739.328C843.074 738.773 842.796 738.048 842.796 737.152ZM857.578 737.024V724H860.618V737.024H861.098L861.418 740H857.578V738.752L856.778 740H855.914C854.932 740 854.143 739.723 853.546 739.168C852.97 738.592 852.682 737.877 852.682 737.024V726.976H851.914L852.234 724H855.722V736.864C855.722 736.971 855.775 737.024 855.882 737.024H857.578ZM862.046 734.976L865.086 735.296V736.864C865.086 736.971 865.14 737.024 865.246 737.024H866.526C866.633 737.024 866.686 736.971 866.686 736.864V733.888L863.838 732.672C863.497 732.523 863.113 732.288 862.686 731.968C862.26 731.648 862.046 731.125 862.046 730.4V726.848C862.046 725.952 862.324 725.237 862.878 724.704C863.433 724.149 864.158 723.872 865.054 723.872H866.718C867.614 723.872 868.34 724.149 868.894 724.704C869.449 725.237 869.726 725.952 869.726 726.848V728.896L866.686 728.576V727.008C866.686 726.901 866.633 726.848 866.526 726.848H865.246C865.14 726.848 865.086 726.901 865.086 727.008V729.984L867.934 731.2C868.276 731.349 868.66 731.584 869.086 731.904C869.513 732.224 869.726 732.747 869.726 733.472V737.024C869.726 737.92 869.449 738.645 868.894 739.2C868.34 739.733 867.614 740 866.718 740H865.054C864.158 740 863.433 739.733 862.878 739.2C862.324 738.645 862.046 737.92 862.046 737.024V734.976ZM876.765 734.976L879.805 735.296V736.864C879.805 736.971 879.858 737.024 879.965 737.024H881.245C881.352 737.024 881.405 736.971 881.405 736.864V733.888L878.557 732.672C878.216 732.523 877.832 732.288 877.405 731.968C876.978 731.648 876.765 731.125 876.765 730.4V726.848C876.765 725.952 877.042 725.237 877.597 724.704C878.152 724.149 878.877 723.872 879.773 723.872H881.437C882.333 723.872 883.058 724.149 883.613 724.704C884.168 725.237 884.445 725.952 884.445 726.848V728.896L881.405 728.576V727.008C881.405 726.901 881.352 726.848 881.245 726.848H879.965C879.858 726.848 879.805 726.901 879.805 727.008V729.984L882.653 731.2C882.994 731.349 883.378 731.584 883.805 731.904C884.232 732.224 884.445 732.747 884.445 733.472V737.024C884.445 737.92 884.168 738.645 883.613 739.2C883.058 739.733 882.333 740 881.437 740H879.773C878.877 740 878.152 739.733 877.597 739.2C877.042 738.645 876.765 737.92 876.765 737.024V734.976ZM885.734 737.152V726.848C885.734 725.952 886.011 725.237 886.566 724.704C887.12 724.149 887.846 723.872 888.742 723.872H890.726C891.622 723.872 892.347 724.149 892.902 724.704C893.456 725.237 893.734 725.952 893.734 726.848V730.784H890.694V727.008C890.694 726.901 890.64 726.848 890.534 726.848H888.934C888.827 726.848 888.774 726.901 888.774 727.008V730.784H893.734V733.76H888.774V736.992C888.774 737.099 888.827 737.152 888.934 737.152H890.534C890.64 737.152 890.694 737.109 890.694 737.024V735.264H893.734V737.152C893.734 738.048 893.456 738.773 892.902 739.328C892.347 739.861 891.622 740.128 890.726 740.128H888.742C887.846 740.128 887.12 739.861 886.566 739.328C886.011 738.773 885.734 738.048 885.734 737.152ZM903.399 740H900.359V727.136C900.359 727.029 900.306 726.976 900.199 726.976H898.503V740H895.463V726.976H894.695L895.015 724H898.503V725.248L899.303 724H900.167C900.871 724 901.479 724.149 901.991 724.448C902.503 724.747 902.876 725.152 903.111 725.664L904.199 724H905.063C906.044 724 906.823 724.277 907.399 724.832C907.996 725.387 908.295 726.101 908.295 726.976V737.024H909.063L908.743 740H905.255V727.136C905.255 727.029 905.202 726.976 905.095 726.976H903.399V740ZM910.151 740V720.576H909.383L909.703 717.6H913.191V725.248L913.991 724H914.855C915.836 724 916.615 724.277 917.191 724.832C917.788 725.387 918.087 726.101 918.087 726.976V737.024C918.087 737.877 917.788 738.592 917.191 739.168C916.615 739.723 915.836 740 914.855 740H914.727C914.151 740 913.639 739.861 913.191 739.584V740H910.151ZM914.887 726.976H913.191V737.024H914.887C914.993 737.024 915.047 736.971 915.047 736.864V727.136C915.047 727.029 914.993 726.976 914.887 726.976ZM922.719 717.6L922.751 737.024H923.551L923.871 740H919.711L919.679 720.576H919.039L919.359 717.6H922.719ZM924.671 737.152V726.848C924.671 725.952 924.949 725.237 925.503 724.704C926.058 724.149 926.783 723.872 927.679 723.872H929.663C930.559 723.872 931.285 724.149 931.839 724.704C932.394 725.237 932.671 725.952 932.671 726.848V730.784H929.631V727.008C929.631 726.901 929.578 726.848 929.471 726.848H927.871C927.765 726.848 927.711 726.901 927.711 727.008V730.784H932.671V733.76H927.711V736.992C927.711 737.099 927.765 737.152 927.871 737.152H929.471C929.578 737.152 929.631 737.109 929.631 737.024V735.264H932.671V737.152C932.671 738.048 932.394 738.773 931.839 739.328C931.285 739.861 930.559 740.128 929.663 740.128H927.679C926.783 740.128 926.058 739.861 925.503 739.328C924.949 738.773 924.671 738.048 924.671 737.152Z" fill="black" fill-opacity="0.56"/>
</svg>
